<svg xmlns="http://www.w3.org/2000/svg" viewBox="0 0 1050.39 933.57"><defs><style>.cls-1{fill:#7c8986;}.cls-2{fill:#96a2a0;}.cls-3{fill:#bfd7e0;}.cls-4{fill:#727e91;}.cls-5{fill:#8bb4bc;}.cls-6{fill:#93b3bc;}.cls-7{fill:#a0c6c1;}.cls-8{fill:#c8dbdd;}.cls-9{fill:#7598a0;}.cls-11,.cls-12,.cls-14,.cls-15,.cls-16,.cls-20,.cls-21,.cls-22,.cls-23,.cls-24,.cls-25,.cls-42,.cls-43,.cls-44,.cls-9{fill-rule:evenodd;}.cls-10{fill:#b0bac6;}.cls-11{fill:#7f8f89;}.cls-12{fill:#abc0ba;}.cls-13{fill:#c2c7c5;}.cls-14{fill:#696969;}.cls-15{fill:#32362c;}.cls-16{fill:#abd3ce;}.cls-17{fill:#9cacb7;}.cls-18{fill:#77878c;}.cls-19,.cls-22{fill:#bcbdcd;}.cls-20{fill:#959595;}.cls-21{fill:#818288;}.cls-23,.cls-34{fill:#5f648a;}.cls-24{fill:#565f81;}.cls-25{fill:#a1a2bf;}.cls-26{fill:#ffdeed;}.cls-27{fill:#c7c3cf;}.cls-28{fill:#bdafb5;}.cls-29,.cls-42{fill:#fce878;}.cls-30{fill:#d6d0cb;}.cls-31{fill:#a0bca0;}.cls-32{fill:#822911;}.cls-33{fill:#ec3800;}.cls-35{fill:#0a1926;}.cls-36{fill:#003e71;}.cls-37{fill:#fff;}.cls-38{fill:#575866;}.cls-39{fill:#1e140d;}.cls-40{fill:#808296;}.cls-41{fill:#5e3f29;}.cls-43{fill:#e5bd4c;}.cls-44{fill:#ce9228;}</style></defs><title>warehouse-rooms</title><g id="Layer_2" data-name="Layer 2"><g id="Layer_1-2" data-name="Layer 1"><polygon class="cls-1" points="1050.29 413.73 1050.29 420.68 685.78 631.83 685.09 625.57 1050.29 413.73"/><polygon class="cls-2" points="521.96 509.39 522.3 515.65 685.43 631.48 685.78 624.52 521.96 509.39"/><polygon class="cls-3" points="861.61 315.48 527.17 512.87 686.13 625.22 1040.57 419.83 861.61 315.48"/><polygon class="cls-4" points="1040.29 419.49 1045.29 416.61 1045.29 262.07 1040.29 264.93 1040.29 419.49"/><polygon class="cls-5" points="1045.29 416.61 1050.29 413.73 1050.29 259.17 1045.29 262.07 1045.29 416.61"/><polygon class="cls-6" points="1040.39 419.49 861.78 316.7 867.35 165.74 1040.39 264.93 1040.39 419.49"/><polygon class="cls-7" points="1045.39 262.07 1040.39 264.93 862.48 162.96 867.35 160.17 1045.39 262.07"/><polygon class="cls-8" points="1050.39 259.21 1045.39 262.07 867.35 160.17 872.57 157.39 1050.39 259.21"/><polygon class="cls-9" points="527.87 512.17 529.96 351.48 867.52 165.74 862.3 317.22 527.87 512.17"/><polygon class="cls-10" points="527.7 513.48 521.96 509.04 524.22 348.61 529.96 351.83 527.7 513.48"/><path class="cls-11" d="M985.8,260.81l-53.56-36.74a5.32,5.32,0,0,1-2.21-4.21l-2.58-1.26c0-1.61,3.58-6.2,4.79-5.5l55.47,32a5.29,5.29,0,0,1,2.2,4.21v5.09c0,1.61-2.9,7.08-4.11,6.38"/><path class="cls-12" d="M985.07,260.56l-55.47-32a5.3,5.3,0,0,1-2.21-4.21v-5.09c0-1.61,1-2.36,2.21-1.66l55.47,32a5.31,5.31,0,0,1,2.2,4.21v5.09c0,1.62-1,2.37-2.2,1.67"/><path class="cls-13" d="M986.07,247.76l-55.48-32c-1.21-.7-3.14,1.21-3.14,2.82a1.34,1.34,0,0,1,2.15-1l55.47,32a5.31,5.31,0,0,1,2.2,4.21v5.09c0,1.28-.62,2-1.47,1.92,1.21.7,2.47-2.09,2.47-3.7V252a5.29,5.29,0,0,0-2.2-4.21"/><path class="cls-14" d="M982.92,250.26l-51.17-29.54a17.44,17.44,0,0,0-1.71-.87c-.38-.17-.67,0-.67.47l55.92,32.28a1.68,1.68,0,0,0-.66-1.24c-.44-.31-1-.72-1.71-1.1"/><path class="cls-14" d="M982.92,252.48l-51.17-29.54a17.44,17.44,0,0,0-1.71-.87c-.38-.17-.67,0-.67.48l55.92,32.28a1.66,1.66,0,0,0-.66-1.24c-.44-.31-1-.72-1.71-1.11"/><path class="cls-14" d="M982.92,254.71l-51.17-29.54a17.44,17.44,0,0,0-1.71-.87c-.38-.17-.67,0-.67.47l55.92,32.29a1.68,1.68,0,0,0-.66-1.25c-.44-.3-1-.72-1.71-1.1"/><path class="cls-14" d="M982.92,256.93l-51.17-29.54c-.67-.38-1.28-.67-1.71-.87s-.67,0-.67.48l55.92,32.28a1.66,1.66,0,0,0-.66-1.24c-.44-.31-1-.72-1.71-1.11"/><path class="cls-15" d="M982.92,258.5,931.75,229c-.67-.39-1.28-.8-1.71-1.11a1.67,1.67,0,0,1-.67-1.24l55.92,32.29c0,.43-.28.64-.66.47a16.38,16.38,0,0,1-1.71-.87"/><path class="cls-15" d="M982.92,256.27l-51.17-29.54a19.28,19.28,0,0,1-1.71-1.1,1.69,1.69,0,0,1-.67-1.24l55.92,32.28c0,.44-.28.64-.66.48a19.12,19.12,0,0,1-1.71-.88"/><path class="cls-15" d="M982.92,254.05l-51.17-29.54c-.67-.39-1.28-.8-1.71-1.11a1.67,1.67,0,0,1-.67-1.24l55.92,32.28c0,.44-.28.65-.66.48a16.38,16.38,0,0,1-1.71-.87"/><path class="cls-15" d="M982.92,251.82l-51.17-29.54c-.67-.38-1.28-.8-1.71-1.1a1.69,1.69,0,0,1-.67-1.25l55.92,32.29c0,.44-.28.64-.66.47a16.38,16.38,0,0,1-1.71-.87"/><polygon class="cls-16" points="529.96 351.48 867.52 165.74 862.48 162.96 524.04 348.7 529.96 351.48"/><polygon class="cls-17" points="588.4 420.7 554.68 440.2 554.68 437.47 588.4 417.97 588.4 420.7"/><polygon class="cls-17" points="588.4 430.12 554.68 449.61 554.68 446.88 588.4 427.38 588.4 430.12"/><polygon class="cls-17" points="588.4 439.53 554.68 459.02 554.68 456.29 588.4 436.8 588.4 439.53"/><polygon class="cls-17" points="588.4 448.94 554.68 468.43 554.68 465.7 588.4 446.21 588.4 448.94"/><polygon class="cls-17" points="588.4 458.35 554.68 477.84 554.68 475.11 588.4 455.62 588.4 458.35"/><polygon class="cls-18" points="588.4 418.88 554.68 438.37 554.68 435.64 588.4 416.14 588.4 418.88"/><polygon class="cls-18" points="588.4 428.29 554.68 447.78 554.68 445.05 588.4 425.56 588.4 428.29"/><polygon class="cls-18" points="588.4 437.7 554.68 457.19 554.68 454.46 588.4 434.97 588.4 437.7"/><polygon class="cls-18" points="588.4 447.11 554.68 466.6 554.68 463.87 588.4 444.38 588.4 447.11"/><polygon class="cls-18" points="588.4 456.52 554.68 476.01 554.68 473.28 588.4 453.79 588.4 456.52"/><polygon class="cls-19" points="588.4 418.41 554.68 437.9 554.68 429.91 588.4 410.42 588.4 418.41"/><polygon class="cls-19" points="588.4 427.81 554.68 447.3 554.68 439.31 588.4 419.81 588.4 427.81"/><polygon class="cls-19" points="588.4 437.2 554.68 456.7 554.68 448.7 588.4 429.21 588.4 437.2"/><polygon class="cls-19" points="588.4 446.6 554.68 466.09 554.68 458.1 588.4 438.61 588.4 446.6"/><polygon class="cls-19" points="588.4 456 554.68 475.49 554.68 467.5 588.4 448 588.4 456"/><polygon class="cls-19" points="588.4 465.39 554.68 484.88 554.68 476.89 588.4 457.4 588.4 465.39"/><polygon class="cls-20" points="544.91 490.49 544.15 510.48 613.95 470.14 598.36 459.57 544.91 490.49"/><polygon class="cls-21" points="588.07 467.55 603.42 476.41 596.49 476.41 569.17 476.41 588.07 465.53 588.07 467.55"/><polygon class="cls-22" points="538.8 406.39 540.4 409.63 544.15 409.89 587.21 391.52 613.95 369.74 608.18 366.41 538.8 406.39"/><polygon class="cls-23" points="544.15 409.89 549.73 433.3 544.15 510.67 538.8 507.58 538.8 444.22 538.8 406.39 544.15 409.89"/><polygon class="cls-24" points="588.07 392.88 603.42 401.74 609.83 441.24 603.42 476.41 588.07 467.55 588.07 392.88"/><polygon class="cls-25" points="613.95 470.32 613.95 369.74 544.15 409.89 544.15 510.67 554.68 504.58 554.68 429.91 603.42 401.74 603.42 476.41 613.95 470.32"/><polygon class="cls-26" points="601.29 382.77 609.86 377.88 609.86 380.37 601.29 385.25 601.29 382.77"/><path class="cls-27" d="M609.76,378.05v2.21l-8.37,4.83v-2.21Zm.19-.33-8.75,5v2.65l8.75-5.05Z"/><polygon class="cls-28" points="607.12 380.36 601.68 383.49 601.68 383.15 607.12 380.01 607.12 380.36"/><polygon class="cls-28" points="607.12 381.17 601.68 384.3 601.68 384.2 607.12 381.06 607.12 381.17"/><polygon class="cls-28" points="602.85 383.86 601.68 384.53 601.68 384.42 602.85 383.75 602.85 383.86"/><polygon class="cls-28" points="604.18 383.09 603.01 383.76 603.01 383.66 604.18 382.98 604.18 383.09"/><polygon class="cls-28" points="607.7 381.05 606.54 381.73 606.54 381.62 607.7 380.95 607.7 381.05"/><polygon class="cls-28" points="609.63 378.61 608.47 379.29 608.47 379.23 609.63 378.56 609.63 378.61"/><polygon class="cls-28" points="609.63 378.75 608.47 379.42 608.47 379.37 609.63 378.69 609.63 378.75"/><polygon class="cls-28" points="609.63 378.88 608.47 379.55 608.47 379.5 609.63 378.83 609.63 378.88"/><polygon class="cls-28" points="609.63 379.02 608.47 379.69 608.47 379.64 609.63 378.96 609.63 379.02"/><polygon class="cls-28" points="609.63 379.15 608.47 379.82 608.47 379.77 609.63 379.1 609.63 379.15"/><polygon class="cls-28" points="609.63 379.29 608.47 379.96 608.47 379.91 609.63 379.23 609.63 379.29"/><polygon class="cls-28" points="609.63 379.42 608.47 380.09 608.47 380.04 609.63 379.37 609.63 379.42"/><polygon class="cls-28" points="609.63 379.55 608.47 380.23 608.47 380.18 609.63 379.5 609.63 379.55"/><polygon class="cls-28" points="609.63 379.69 608.47 380.36 608.47 380.31 609.63 379.64 609.63 379.69"/><polygon class="cls-29" points="581.51 488.92 584.87 496.25 586.43 495.34 583.08 488.02 581.51 488.92"/><polygon class="cls-29" points="585.99 486.33 589.35 493.66 590.91 492.75 587.56 485.43 585.99 486.33"/><polygon class="cls-29" points="590.48 483.74 593.83 491.07 595.4 490.17 592.04 482.84 590.48 483.74"/><polygon class="cls-29" points="594.96 481.16 598.32 488.48 599.88 487.58 596.52 480.25 594.96 481.16"/><polygon class="cls-29" points="599.44 478.57 602.8 485.89 604.36 484.99 601 477.67 599.44 478.57"/><polygon class="cls-29" points="606.02 480.56 607.28 483.31 608.84 482.4 608.71 482.12 606.02 480.56"/><polygon class="cls-29" points="554.62 504.45 557.3 506 556.18 503.55 554.62 504.45"/><polygon class="cls-29" points="559.1 501.86 562.33 508.9 562.64 509.08 564.02 508.28 560.66 500.96 559.1 501.86"/><polygon class="cls-29" points="563.58 499.27 566.94 506.6 568.5 505.69 565.14 498.37 563.58 499.27"/><polygon class="cls-29" points="568.07 496.68 571.42 504.01 572.98 503.11 569.63 495.78 568.07 496.68"/><polygon class="cls-29" points="572.55 494.1 575.9 501.42 577.47 500.52 574.11 493.19 572.55 494.1"/><polygon class="cls-29" points="577.03 491.51 580.38 498.83 581.95 497.93 578.59 490.61 577.03 491.51"/><polygon class="cls-30" points="567.2 418.55 554.58 425.83 554.58 418.36 567.2 411.08 567.2 418.55"/><path class="cls-31" d="M560.37,418.73a4.87,4.87,0,0,1-2.22,3.83c-1.22.71-2.22.15-2.22-1.26a4.91,4.91,0,0,1,2.22-3.83c1.23-.71,2.22-.14,2.22,1.26"/><path class="cls-32" d="M565.54,415.62a4.88,4.88,0,0,1-2.22,3.83c-1.23.71-2.22.14-2.22-1.26a4.88,4.88,0,0,1,2.22-3.83c1.23-.71,2.22-.14,2.22,1.26"/><path class="cls-33" d="M565.85,415.62a4.88,4.88,0,0,1-2.22,3.83c-1.23.71-2.22.14-2.22-1.26a4.88,4.88,0,0,1,2.22-3.83c1.23-.71,2.22-.14,2.22,1.26"/><polygon class="cls-34" points="554.58 425.83 554 425.53 554 418.11 554.58 418.36 554.58 425.83"/><polygon class="cls-19" points="567.2 411.08 566.7 410.79 554 418.11 554.58 418.36 567.2 411.08"/><polygon class="cls-30" points="539.14 467.69 539.17 458.93 535.27 461.16 535.24 469.93 539.14 467.69"/><path class="cls-35" d="M537.1,468.18a4,4,0,0,0,1.7-2.64c0-.39-.38-.66-.59-.81a.88.88,0,0,0-1,0,3,3,0,0,0-1.34,2.3,1.15,1.15,0,0,0,.23.74c.24.27.53.62,1,.36"/><path class="cls-35" d="M537.12,464.48a4.08,4.08,0,0,0,1.7-2.64c0-.39-.38-.66-.59-.81a.88.88,0,0,0-1,.05,2.92,2.92,0,0,0-1.34,2.3,1,1,0,0,0,.23.73c.23.28.53.63,1,.37"/><path class="cls-36" d="M537.49,464.38a3,3,0,0,0,1.34-2.3c0-.85-.59-1.2-1.33-.78a2.94,2.94,0,0,0-1.33,2.3c0,.85.59,1.2,1.32.78"/><path class="cls-36" d="M537.5,468.17a3,3,0,0,0,1.34-2.3c0-.85-.59-1.2-1.33-.78a2.94,2.94,0,0,0-1.33,2.3c0,.85.59,1.2,1.32.78"/><polygon class="cls-34" points="539.17 458.93 538.15 458.38 534.28 460.59 535.27 461.16 539.17 458.93"/><polygon class="cls-19" points="535.24 469.93 534.25 469.41 534.28 460.59 535.27 461.16 535.24 469.93"/><path class="cls-37" d="M537.39,467.19l0,0-.36-.69a0,0,0,0,1,0,0s0,0,0,0l.16-.09s0,0,0,0l0,0,.21.45s0,0,0,0,0,0,0,0l.21-.69,0-.06.05-.05.17-.09h0s0,0,0,0l-.36,1.11,0,.06,0,.05-.13.08h-.06"/><path class="cls-37" d="M537.53,462.2l.13-.07.05,0s0,0,0,0l.36.69a0,0,0,0,1,0,.05l0,0-.16.1h0l0,0-.21-.45h0s0,0,0,0l-.21.69,0,.07-.05,0-.16.09h0a0,0,0,0,1,0-.05l.36-1.1a.16.16,0,0,1,0-.07l0-.05"/><polygon class="cls-38" points="554.15 422.06 543.75 428.07 543.98 428.2 554.33 422.23 554.15 422.06"/><polygon class="cls-39" points="554.33 422.37 554.33 422.23 543.98 428.2 543.98 428.34 554.33 422.37"/><polygon class="cls-38" points="538.71 424.86 544.22 428.07 543.98 428.2 538.47 424.99 538.71 424.86"/><polygon class="cls-39" points="538.47 425.14 538.47 424.99 543.98 428.2 543.98 428.34 538.47 425.14"/><polygon class="cls-38" points="538.71 424.86 537.54 425.5 537.81 425.59 538.66 425.09 538.71 424.86"/><polygon class="cls-39" points="538.66 425.23 538.66 425.09 537.81 425.59 537.81 425.72 538.66 425.23"/><polygon class="cls-40" points="537.54 425.5 537.54 458.99 537.8 459.14 537.81 425.59 537.54 425.5"/><polygon class="cls-41" points="537.8 425.59 537.8 459.14 537.89 459.09 537.89 425.54 537.8 425.59"/><polygon class="cls-42" points="569.42 487.56 573.45 485.24 569.43 482.92 565.4 485.24 569.42 487.56"/><polygon class="cls-43" points="569.42 487.56 569.42 517.85 565.4 515.52 565.4 485.24 569.42 487.56"/><polygon class="cls-44" points="569.42 487.56 569.42 517.85 573.45 515.52 573.45 485.24 569.42 487.56"/><polygon class="cls-42" points="622.18 457.51 626.2 455.19 622.18 452.87 618.15 455.19 622.18 457.51"/><polygon class="cls-43" points="622.18 457.51 622.18 487.79 618.15 485.47 618.15 455.19 622.18 457.51"/><polygon class="cls-44" points="622.18 457.51 622.18 487.79 626.2 485.47 626.2 455.19 622.18 457.51"/><polygon class="cls-1" points="528.33 715.47 528.33 722.42 163.83 933.57 163.13 927.3 528.33 715.47"/><polygon class="cls-2" points="0 811.13 0.35 817.39 163.48 933.22 163.83 926.26 0 811.13"/><polygon class="cls-3" points="339.65 617.22 5.22 814.61 164.17 926.96 518.61 721.57 339.65 617.22"/><polygon class="cls-4" points="518.33 721.23 523.33 718.35 523.33 563.81 518.33 566.67 518.33 721.23"/><polygon class="cls-5" points="523.33 718.35 528.33 715.47 528.33 560.91 523.33 563.81 523.33 718.35"/><polygon class="cls-6" points="518.43 721.23 339.83 618.43 345.39 467.48 518.43 566.67 518.43 721.23"/><polygon class="cls-7" points="523.43 563.81 518.43 566.67 340.52 464.7 345.39 461.91 523.43 563.81"/><polygon class="cls-8" points="528.43 560.95 523.43 563.81 345.39 461.91 350.61 459.13 528.43 560.95"/><polygon class="cls-9" points="5.91 813.91 8 653.22 345.56 467.48 340.35 618.96 5.91 813.91"/><polygon class="cls-10" points="5.74 815.22 0 810.78 2.26 650.35 8 653.57 5.74 815.22"/><path class="cls-11" d="M463.84,562.55l-53.56-36.74a5.31,5.31,0,0,1-2.2-4.21l-2.58-1.26c0-1.61,3.57-6.2,4.78-5.5l55.47,32a5.29,5.29,0,0,1,2.2,4.21v5.09c0,1.61-2.89,7.08-4.11,6.38"/><path class="cls-12" d="M463.11,562.3l-55.47-32a5.29,5.29,0,0,1-2.2-4.21V521c0-1.61,1-2.36,2.2-1.66l55.47,32a5.31,5.31,0,0,1,2.2,4.21v5.09c0,1.62-1,2.37-2.2,1.67"/><path class="cls-13" d="M464.11,549.5l-55.47-32c-1.21-.7-3.14,1.21-3.14,2.82a1.33,1.33,0,0,1,2.14-1l55.47,32a5.31,5.31,0,0,1,2.2,4.21v5.09c0,1.27-.61,2-1.47,1.92,1.22.7,2.47-2.09,2.47-3.7v-5.09a5.29,5.29,0,0,0-2.2-4.21"/><path class="cls-14" d="M461,552l-51.17-29.54c-.67-.39-1.28-.68-1.71-.88s-.66,0-.66.48l55.91,32.28a1.68,1.68,0,0,0-.66-1.24A19.28,19.28,0,0,0,461,552"/><path class="cls-14" d="M461,554.22l-51.17-29.54a17.44,17.44,0,0,0-1.71-.87c-.38-.17-.66,0-.66.48l55.91,32.28a1.66,1.66,0,0,0-.66-1.24c-.43-.31-1-.72-1.71-1.11"/><path class="cls-14" d="M461,556.45l-51.17-29.54a17.44,17.44,0,0,0-1.71-.87c-.38-.17-.66,0-.66.47l55.91,32.29a1.68,1.68,0,0,0-.66-1.25c-.43-.3-1-.72-1.71-1.1"/><path class="cls-14" d="M461,558.67l-51.17-29.54c-.67-.38-1.28-.68-1.71-.87s-.66,0-.66.48L463.33,561a1.66,1.66,0,0,0-.66-1.24c-.43-.31-1-.72-1.71-1.11"/><path class="cls-15" d="M461,560.24,409.79,530.7c-.67-.39-1.28-.8-1.71-1.11a1.66,1.66,0,0,1-.66-1.24l55.91,32.29c0,.43-.28.64-.66.47a17.44,17.44,0,0,1-1.71-.87"/><path class="cls-15" d="M461,558l-51.17-29.54a19.28,19.28,0,0,1-1.71-1.1,1.68,1.68,0,0,1-.66-1.24l55.91,32.28c0,.44-.28.64-.66.47A17.44,17.44,0,0,1,461,558"/><path class="cls-15" d="M461,555.79l-51.17-29.54c-.67-.39-1.28-.8-1.71-1.11a1.66,1.66,0,0,1-.66-1.24l55.91,32.28c0,.44-.28.65-.66.48s-1-.49-1.71-.87"/><path class="cls-15" d="M461,553.56,409.79,524c-.67-.39-1.28-.8-1.71-1.1a1.7,1.7,0,0,1-.66-1.25L463.33,554c0,.43-.28.64-.66.47a17.44,17.44,0,0,1-1.71-.87"/><polygon class="cls-16" points="8 653.22 345.56 467.48 340.52 464.7 2.09 650.43 8 653.22"/><polygon class="cls-17" points="66.44 722.44 32.72 741.94 32.72 739.21 66.44 719.71 66.44 722.44"/><polygon class="cls-17" points="66.44 731.86 32.72 751.35 32.72 748.62 66.44 729.12 66.44 731.86"/><polygon class="cls-17" points="66.44 741.27 32.72 760.76 32.72 758.03 66.44 738.54 66.44 741.27"/><polygon class="cls-17" points="66.44 750.68 32.72 770.17 32.72 767.44 66.44 747.95 66.44 750.68"/><polygon class="cls-17" points="66.44 760.09 32.72 779.58 32.72 776.85 66.44 757.36 66.44 760.09"/><polygon class="cls-18" points="66.44 720.61 32.72 740.11 32.72 737.38 66.44 717.88 66.44 720.61"/><polygon class="cls-18" points="66.44 730.02 32.72 749.52 32.72 746.79 66.44 727.29 66.44 730.02"/><polygon class="cls-18" points="66.44 739.44 32.72 758.93 32.72 756.2 66.44 736.71 66.44 739.44"/><polygon class="cls-18" points="66.44 748.85 32.72 768.34 32.72 765.61 66.44 746.12 66.44 748.85"/><polygon class="cls-18" points="66.44 758.26 32.72 777.75 32.72 775.02 66.44 755.53 66.44 758.26"/><polygon class="cls-19" points="66.44 720.15 32.72 739.64 32.72 731.65 66.44 712.16 66.44 720.15"/><polygon class="cls-19" points="66.44 729.55 32.72 749.04 32.72 741.05 66.44 721.55 66.44 729.55"/><polygon class="cls-19" points="66.44 738.94 32.72 758.44 32.72 750.44 66.44 730.95 66.44 738.94"/><polygon class="cls-19" points="66.44 748.34 32.72 767.83 32.72 759.84 66.44 740.34 66.44 748.34"/><polygon class="cls-19" points="66.44 757.73 32.72 777.23 32.72 769.23 66.44 749.74 66.44 757.73"/><polygon class="cls-19" points="66.44 767.13 32.72 786.62 32.72 778.63 66.44 759.14 66.44 767.13"/><polygon class="cls-20" points="22.95 792.23 22.2 812.22 91.99 771.88 76.41 761.31 22.95 792.23"/><polygon class="cls-21" points="66.11 769.29 81.46 778.15 74.54 778.15 47.21 778.15 66.11 767.26 66.11 769.29"/><polygon class="cls-22" points="16.84 708.13 18.44 711.37 22.2 711.63 65.25 693.26 91.99 671.48 86.23 668.15 16.84 708.13"/><polygon class="cls-23" points="22.2 711.63 27.77 735.04 22.2 812.4 16.84 809.33 16.84 745.96 16.84 708.13 22.2 711.63"/><polygon class="cls-24" points="66.11 694.62 81.46 703.48 87.87 742.98 81.46 778.15 66.11 769.28 66.11 694.62"/><polygon class="cls-25" points="91.99 772.06 91.99 671.48 22.2 711.63 22.2 812.4 32.73 806.32 32.73 731.65 81.46 703.48 81.46 778.15 91.99 772.06"/><polygon class="cls-26" points="79.33 684.51 87.9 679.62 87.9 682.1 79.33 686.99 79.33 684.51"/><path class="cls-27" d="M87.8,679.79V682l-8.37,4.84v-2.21Zm.19-.33-8.75,5v2.65L88,682.1Z"/><polygon class="cls-28" points="85.16 682.09 79.72 685.23 79.72 684.89 85.16 681.75 85.16 682.09"/><polygon class="cls-28" points="85.16 682.9 79.72 686.04 79.72 685.94 85.16 682.8 85.16 682.9"/><polygon class="cls-28" points="80.89 685.59 79.73 686.27 79.73 686.16 80.89 685.49 80.89 685.59"/><polygon class="cls-28" points="82.22 684.83 81.06 685.5 81.06 685.39 82.22 684.72 82.22 684.83"/><polygon class="cls-28" points="85.74 682.79 84.58 683.47 84.58 683.36 85.74 682.69 85.74 682.79"/><polygon class="cls-28" points="87.68 680.35 86.51 681.02 86.51 680.97 87.68 680.3 87.68 680.35"/><polygon class="cls-28" points="87.68 680.49 86.51 681.16 86.51 681.11 87.68 680.43 87.68 680.49"/><polygon class="cls-28" points="87.68 680.62 86.51 681.29 86.51 681.24 87.68 680.57 87.68 680.62"/><polygon class="cls-28" points="87.68 680.75 86.51 681.43 86.51 681.38 87.68 680.7 87.68 680.75"/><polygon class="cls-28" points="87.68 680.89 86.51 681.56 86.51 681.51 87.68 680.84 87.68 680.89"/><polygon class="cls-28" points="87.68 681.02 86.51 681.7 86.51 681.64 87.68 680.97 87.68 681.02"/><polygon class="cls-28" points="87.68 681.16 86.51 681.83 86.51 681.78 87.68 681.11 87.68 681.16"/><polygon class="cls-28" points="87.68 681.29 86.51 681.97 86.51 681.91 87.68 681.24 87.68 681.29"/><polygon class="cls-28" points="87.68 681.43 86.51 682.1 86.51 682.05 87.68 681.38 87.68 681.43"/><polygon class="cls-29" points="59.55 790.66 62.91 797.98 64.47 797.08 61.12 789.76 59.55 790.66"/><polygon class="cls-29" points="64.04 788.07 67.39 795.4 68.96 794.49 65.6 787.17 64.04 788.07"/><polygon class="cls-29" points="68.52 785.48 71.88 792.81 73.44 791.9 70.08 784.58 68.52 785.48"/><polygon class="cls-29" points="73 782.89 76.36 790.22 77.92 789.32 74.56 781.99 73 782.89"/><polygon class="cls-29" points="77.48 780.31 80.84 787.63 82.41 786.73 79.05 779.4 77.48 780.31"/><polygon class="cls-29" points="84.07 782.3 85.32 785.04 86.89 784.14 86.76 783.85 84.07 782.3"/><polygon class="cls-29" points="32.66 806.19 35.35 807.74 34.22 805.28 32.66 806.19"/><polygon class="cls-29" points="37.14 803.6 40.37 810.64 40.68 810.82 42.06 810.02 38.71 802.7 37.14 803.6"/><polygon class="cls-29" points="41.63 801.01 44.98 808.34 46.55 807.43 43.19 800.11 41.63 801.01"/><polygon class="cls-29" points="46.11 798.42 49.46 805.75 51.03 804.85 47.67 797.52 46.11 798.42"/><polygon class="cls-29" points="50.59 795.84 53.95 803.16 55.51 802.26 52.15 794.93 50.59 795.84"/><polygon class="cls-29" points="55.07 793.25 58.43 800.57 59.99 799.67 56.63 792.35 55.07 793.25"/><polygon class="cls-30" points="45.24 720.29 32.62 727.57 32.62 720.1 45.24 712.82 45.24 720.29"/><path class="cls-31" d="M38.42,720.47a4.91,4.91,0,0,1-2.22,3.83C35,725,34,724.44,34,723a4.88,4.88,0,0,1,2.22-3.83c1.22-.71,2.22-.14,2.22,1.26"/><path class="cls-32" d="M43.59,717.36a4.89,4.89,0,0,1-2.23,3.83c-1.22.71-2.22.14-2.22-1.27a4.89,4.89,0,0,1,2.22-3.82c1.23-.71,2.23-.15,2.23,1.26"/><path class="cls-33" d="M43.89,717.36a4.88,4.88,0,0,1-2.22,3.83c-1.22.71-2.22.14-2.22-1.27a4.89,4.89,0,0,1,2.22-3.82c1.23-.71,2.22-.15,2.22,1.26"/><polygon class="cls-34" points="32.62 727.57 32.04 727.27 32.04 719.85 32.62 720.1 32.62 727.57"/><polygon class="cls-19" points="45.24 712.82 44.74 712.53 32.04 719.85 32.62 720.1 45.24 712.82"/><polygon class="cls-30" points="17.18 769.43 17.21 760.67 13.31 762.9 13.29 771.66 17.18 769.43"/><path class="cls-35" d="M15.15,769.92a4,4,0,0,0,1.69-2.64c0-.39-.38-.66-.59-.81a.88.88,0,0,0-1,0,2.94,2.94,0,0,0-1.33,2.3,1.15,1.15,0,0,0,.22.74c.24.27.54.62,1,.36"/><path class="cls-35" d="M15.16,766.22a4,4,0,0,0,1.7-2.64c0-.39-.38-.66-.59-.81a.88.88,0,0,0-1,.05,3,3,0,0,0-1.34,2.3,1.1,1.1,0,0,0,.23.73c.24.28.53.63,1,.37"/><path class="cls-36" d="M15.53,766.12a3,3,0,0,0,1.34-2.3c0-.85-.59-1.2-1.33-.78a2.94,2.94,0,0,0-1.33,2.3c0,.85.59,1.2,1.32.78"/><path class="cls-36" d="M15.55,769.91a2.94,2.94,0,0,0,1.33-2.3c0-.85-.59-1.2-1.32-.78a3,3,0,0,0-1.34,2.3c0,.85.59,1.2,1.33.78"/><polygon class="cls-34" points="17.21 760.67 16.19 760.11 12.32 762.33 13.31 762.9 17.21 760.67"/><polygon class="cls-19" points="13.29 771.67 12.3 771.15 12.32 762.33 13.31 762.9 13.29 771.67"/><path class="cls-37" d="M15.44,768.93s0,0,0,0l-.36-.69v0l0,0,.16-.09a0,0,0,0,1,0,0l0,0,.21.45h0l0,0,.21-.69,0-.06a.08.08,0,0,1,.05-.05l.16-.09h0v0l-.37,1.11,0,.06a.12.12,0,0,1-.05.05l-.13.08h-.05"/><path class="cls-37" d="M15.57,763.94l.13-.08h.06s0,0,0,0l.36.69a0,0,0,0,1,0,0s0,0,0,0l-.16.1H15.9l0,0-.21-.45h0l0,0-.21.69,0,.06a.08.08,0,0,1,0,.05l-.16.09h0a0,0,0,0,1,0-.05l.37-1.11a.09.09,0,0,1,0-.06l.05,0"/><polygon class="cls-38" points="32.2 723.8 21.79 729.81 22.02 729.94 32.38 723.97 32.2 723.8"/><polygon class="cls-39" points="32.38 724.1 32.38 723.97 22.02 729.94 22.02 730.08 32.38 724.1"/><polygon class="cls-38" points="16.75 726.6 22.26 729.81 22.02 729.94 16.52 726.73 16.75 726.6"/><polygon class="cls-39" points="16.52 726.88 16.52 726.73 22.02 729.94 22.02 730.08 16.52 726.88"/><polygon class="cls-38" points="16.75 726.6 15.58 727.24 15.85 727.33 16.71 726.83 16.75 726.6"/><polygon class="cls-39" points="16.71 726.97 16.71 726.83 15.85 727.33 15.85 727.46 16.71 726.97"/><polygon class="cls-40" points="15.58 727.24 15.58 760.73 15.84 760.88 15.85 727.33 15.58 727.24"/><polygon class="cls-41" points="15.84 727.33 15.84 760.88 15.94 760.83 15.94 727.28 15.84 727.33"/><polygon class="cls-42" points="47.47 789.3 51.49 786.98 47.47 784.66 43.45 786.98 47.47 789.3"/><polygon class="cls-43" points="47.47 789.3 47.47 819.59 43.45 817.26 43.45 786.98 47.47 789.3"/><polygon class="cls-44" points="47.47 789.3 47.47 819.59 51.49 817.26 51.49 786.98 47.47 789.3"/><polygon class="cls-42" points="100.22 759.25 104.24 756.93 100.22 754.6 96.19 756.93 100.22 759.25"/><polygon class="cls-43" points="100.22 759.25 100.22 789.53 96.2 787.21 96.2 756.93 100.22 759.25"/><polygon class="cls-44" points="100.22 759.25 100.22 789.53 104.24 787.21 104.24 756.93 100.22 759.25"/><polygon class="cls-1" points="580.51 256.34 580.51 263.29 216 474.44 215.3 468.17 580.51 256.34"/><polygon class="cls-2" points="52.17 352 52.52 358.26 215.65 474.09 216 467.13 52.17 352"/><polygon class="cls-3" points="391.83 158.09 57.39 355.48 216.35 467.83 570.78 262.44 391.83 158.09"/><polygon class="cls-4" points="570.51 262.1 575.51 259.22 575.51 104.68 570.51 107.54 570.51 262.1"/><polygon class="cls-5" points="575.51 259.22 580.51 256.34 580.51 101.78 575.51 104.68 575.51 259.22"/><polygon class="cls-6" points="570.61 262.1 392 159.3 397.56 8.35 570.61 107.54 570.61 262.1"/><polygon class="cls-7" points="575.61 104.68 570.61 107.54 392.7 5.57 397.56 2.78 575.61 104.68"/><polygon class="cls-8" points="580.61 101.82 575.61 104.68 397.56 2.78 402.78 0 580.61 101.82"/><polygon class="cls-9" points="58.09 354.78 60.17 194.09 397.74 8.35 392.52 159.83 58.09 354.78"/><polygon class="cls-10" points="57.91 356.09 52.17 351.65 54.44 191.22 60.17 194.44 57.91 356.09"/><path class="cls-11" d="M516,103.42,462.45,66.68a5.31,5.31,0,0,1-2.2-4.21l-2.58-1.26c0-1.61,3.57-6.2,4.78-5.5l55.48,32a5.29,5.29,0,0,1,2.2,4.21V97c0,1.61-2.9,7.08-4.11,6.38"/><path class="cls-12" d="M515.29,103.17l-55.48-32a5.29,5.29,0,0,1-2.2-4.21V61.84c0-1.61,1-2.36,2.2-1.66l55.48,32a5.31,5.31,0,0,1,2.2,4.21v5.09c0,1.62-1,2.37-2.2,1.67"/><path class="cls-13" d="M516.28,90.37l-55.47-32c-1.21-.7-3.14,1.21-3.14,2.82a1.33,1.33,0,0,1,2.14-1l55.48,32a5.31,5.31,0,0,1,2.2,4.21v5.09c0,1.27-.62,2-1.47,1.92,1.21.7,2.47-2.09,2.47-3.7V94.58a5.3,5.3,0,0,0-2.21-4.21"/><path class="cls-14" d="M513.13,92.87,462,63.33c-.67-.39-1.28-.68-1.71-.88s-.67,0-.67.48l55.92,32.28a1.69,1.69,0,0,0-.67-1.24,19.28,19.28,0,0,0-1.71-1.1"/><path class="cls-14" d="M513.13,95.09,462,65.55a17.44,17.44,0,0,0-1.71-.87c-.39-.17-.67,0-.67.47l55.92,32.29a1.67,1.67,0,0,0-.67-1.24c-.43-.31-1-.72-1.71-1.11"/><path class="cls-14" d="M513.13,97.32,462,67.78a17.44,17.44,0,0,0-1.71-.87c-.39-.17-.67,0-.67.47l55.92,32.28a1.69,1.69,0,0,0-.67-1.24,19.28,19.28,0,0,0-1.71-1.1"/><path class="cls-14" d="M513.13,99.54,462,70a17.44,17.44,0,0,0-1.71-.87c-.39-.17-.67,0-.67.48l55.92,32.28a1.67,1.67,0,0,0-.67-1.24c-.43-.31-1-.72-1.71-1.11"/><path class="cls-15" d="M513.13,101.11,462,71.57c-.67-.39-1.28-.8-1.71-1.11a1.64,1.64,0,0,1-.67-1.24l55.92,32.28c0,.44-.29.65-.67.48a17.44,17.44,0,0,1-1.71-.87"/><path class="cls-15" d="M513.13,98.88,462,69.34a19.28,19.28,0,0,1-1.71-1.1,1.66,1.66,0,0,1-.67-1.24l55.92,32.28c0,.44-.29.64-.67.47a17.44,17.44,0,0,1-1.71-.87"/><path class="cls-15" d="M513.13,96.66,462,67.12c-.67-.39-1.28-.8-1.71-1.11a1.64,1.64,0,0,1-.67-1.24l55.92,32.28c0,.44-.29.65-.67.48s-1-.49-1.71-.87"/><path class="cls-15" d="M513.13,94.43,462,64.89c-.67-.39-1.28-.8-1.71-1.11a1.64,1.64,0,0,1-.67-1.24l55.92,32.29c0,.43-.29.64-.67.47a17.44,17.44,0,0,1-1.71-.87"/><polygon class="cls-16" points="60.17 194.09 397.74 8.35 392.7 5.57 54.26 191.3 60.17 194.09"/><polygon class="cls-17" points="118.62 263.31 84.89 282.81 84.89 280.08 118.62 260.58 118.62 263.31"/><polygon class="cls-17" points="118.62 272.73 84.89 292.22 84.89 289.49 118.62 269.99 118.62 272.73"/><polygon class="cls-17" points="118.62 282.14 84.89 301.63 84.89 298.9 118.62 279.4 118.62 282.14"/><polygon class="cls-17" points="118.62 291.55 84.89 311.04 84.89 308.31 118.62 288.82 118.62 291.55"/><polygon class="cls-17" points="118.62 300.96 84.89 320.45 84.89 317.72 118.62 298.23 118.62 300.96"/><polygon class="cls-18" points="118.62 261.48 84.89 280.98 84.89 278.25 118.62 258.75 118.62 261.48"/><polygon class="cls-18" points="118.62 270.89 84.89 290.39 84.89 287.66 118.62 268.16 118.62 270.89"/><polygon class="cls-18" points="118.62 280.31 84.89 299.8 84.89 297.07 118.62 277.57 118.62 280.31"/><polygon class="cls-18" points="118.62 289.72 84.89 309.21 84.89 306.48 118.62 286.99 118.62 289.72"/><polygon class="cls-18" points="118.62 299.13 84.89 318.62 84.89 315.89 118.62 296.4 118.62 299.13"/><polygon class="cls-19" points="118.62 261.02 84.89 280.51 84.89 272.52 118.62 253.03 118.62 261.02"/><polygon class="cls-19" points="118.62 270.42 84.89 289.91 84.89 281.92 118.62 262.42 118.62 270.42"/><polygon class="cls-19" points="118.62 279.81 84.89 299.31 84.89 291.31 118.62 271.82 118.62 279.81"/><polygon class="cls-19" points="118.62 289.21 84.89 308.7 84.89 300.71 118.62 281.21 118.62 289.21"/><polygon class="cls-19" points="118.62 298.6 84.89 318.1 84.89 310.1 118.62 290.61 118.62 298.6"/><polygon class="cls-19" points="118.62 308 84.89 327.49 84.89 319.5 118.62 300.01 118.62 308"/><polygon class="cls-20" points="75.12 333.1 74.37 353.09 144.17 312.74 128.58 302.18 75.12 333.1"/><polygon class="cls-21" points="118.28 310.15 133.64 319.02 126.71 319.02 99.39 319.02 118.28 308.13 118.28 310.15"/><polygon class="cls-22" points="69.02 249 70.62 252.24 74.37 252.5 117.42 234.13 144.17 212.35 138.4 209.02 69.02 249"/><polygon class="cls-23" points="74.37 252.5 79.94 275.91 74.37 353.27 69.02 350.19 69.02 286.83 69.02 249 74.37 252.5"/><polygon class="cls-24" points="118.28 235.49 133.64 244.35 140.04 283.85 133.64 319.02 118.28 310.15 118.28 235.49"/><polygon class="cls-25" points="144.17 312.93 144.17 212.35 74.37 252.5 74.37 353.27 84.9 347.19 84.9 272.52 133.64 244.35 133.64 319.02 144.17 312.93"/><polygon class="cls-26" points="131.51 225.38 140.07 220.49 140.07 222.97 131.51 227.86 131.51 225.38"/><path class="cls-27" d="M140,220.65v2.21l-8.38,4.84v-2.21Zm.19-.32-8.76,5V228l8.76-5.06Z"/><polygon class="cls-28" points="137.34 222.96 131.9 226.1 131.9 225.76 137.34 222.62 137.34 222.96"/><polygon class="cls-28" points="137.34 223.78 131.9 226.91 131.9 226.81 137.34 223.67 137.34 223.78"/><polygon class="cls-28" points="133.07 226.46 131.9 227.14 131.9 227.03 133.07 226.36 133.07 226.46"/><polygon class="cls-28" points="134.4 225.7 133.23 226.37 133.23 226.26 134.4 225.59 134.4 225.7"/><polygon class="cls-28" points="137.92 223.66 136.75 224.34 136.75 224.23 137.92 223.56 137.92 223.66"/><polygon class="cls-28" points="139.85 221.22 138.68 221.89 138.68 221.84 139.85 221.17 139.85 221.22"/><polygon class="cls-28" points="139.85 221.35 138.68 222.03 138.68 221.98 139.85 221.3 139.85 221.35"/><polygon class="cls-28" points="139.85 221.49 138.68 222.16 138.68 222.11 139.85 221.44 139.85 221.49"/><polygon class="cls-28" points="139.85 221.62 138.68 222.3 138.68 222.25 139.85 221.57 139.85 221.62"/><polygon class="cls-28" points="139.85 221.76 138.68 222.43 138.68 222.38 139.85 221.71 139.85 221.76"/><polygon class="cls-28" points="139.85 221.89 138.68 222.57 138.68 222.51 139.85 221.84 139.85 221.89"/><polygon class="cls-28" points="139.85 222.03 138.68 222.7 138.68 222.65 139.85 221.98 139.85 222.03"/><polygon class="cls-28" points="139.85 222.16 138.68 222.84 138.68 222.78 139.85 222.11 139.85 222.16"/><polygon class="cls-28" points="139.85 222.3 138.68 222.97 138.68 222.92 139.85 222.25 139.85 222.3"/><polygon class="cls-29" points="111.73 331.53 115.08 338.85 116.65 337.95 113.29 330.63 111.73 331.53"/><polygon class="cls-29" points="116.21 328.94 119.57 336.27 121.13 335.36 117.77 328.04 116.21 328.94"/><polygon class="cls-29" points="120.69 326.35 124.05 333.68 125.61 332.77 122.26 325.45 120.69 326.35"/><polygon class="cls-29" points="125.18 323.76 128.53 331.09 130.1 330.19 126.74 322.86 125.18 323.76"/><polygon class="cls-29" points="129.66 321.18 133.01 328.5 134.58 327.6 131.22 320.27 129.66 321.18"/><polygon class="cls-29" points="136.24 323.17 137.5 325.91 139.06 325.01 138.93 324.72 136.24 323.17"/><polygon class="cls-29" points="84.83 347.06 87.52 348.61 86.4 346.15 84.83 347.06"/><polygon class="cls-29" points="89.32 344.47 92.54 351.51 92.86 351.69 94.24 350.89 90.88 343.56 89.32 344.47"/><polygon class="cls-29" points="93.8 341.88 97.16 349.2 98.72 348.3 95.36 340.98 93.8 341.88"/><polygon class="cls-29" points="98.28 339.29 101.64 346.62 103.2 345.71 99.84 338.39 98.28 339.29"/><polygon class="cls-29" points="102.76 336.7 106.12 344.03 107.68 343.13 104.33 335.8 102.76 336.7"/><polygon class="cls-29" points="107.25 334.12 110.6 341.44 112.17 340.54 108.81 333.21 107.25 334.12"/><polygon class="cls-30" points="97.42 261.16 84.8 268.44 84.8 260.97 97.42 253.69 97.42 261.16"/><path class="cls-31" d="M90.59,261.34a4.88,4.88,0,0,1-2.22,3.83c-1.23.71-2.22.14-2.22-1.26a4.88,4.88,0,0,1,2.22-3.83c1.23-.71,2.22-.14,2.22,1.26"/><path class="cls-32" d="M95.76,258.23a4.91,4.91,0,0,1-2.22,3.83c-1.23.71-2.22.14-2.22-1.27A4.86,4.86,0,0,1,93.54,257c1.22-.71,2.22-.15,2.22,1.26"/><path class="cls-33" d="M96.07,258.23a4.91,4.91,0,0,1-2.22,3.83c-1.23.71-2.22.14-2.22-1.27A4.86,4.86,0,0,1,93.85,257c1.22-.71,2.22-.15,2.22,1.26"/><polygon class="cls-34" points="84.8 268.44 84.21 268.14 84.21 260.72 84.8 260.97 84.8 268.44"/><polygon class="cls-19" points="97.42 253.69 96.92 253.4 84.21 260.72 84.8 260.97 97.42 253.69"/><polygon class="cls-30" points="69.36 310.3 69.39 301.54 65.49 303.77 65.46 312.54 69.36 310.3"/><path class="cls-35" d="M67.32,310.79a4,4,0,0,0,1.7-2.64c0-.39-.38-.66-.59-.81a.88.88,0,0,0-1,.05,3,3,0,0,0-1.34,2.3,1.09,1.09,0,0,0,.23.74c.23.27.53.62,1,.36"/><path class="cls-35" d="M67.34,307.09a4.08,4.08,0,0,0,1.7-2.64c0-.39-.39-.66-.6-.81a.88.88,0,0,0-1,.05,2.94,2.94,0,0,0-1.33,2.3,1.1,1.1,0,0,0,.22.73c.24.28.54.63,1,.37"/><path class="cls-36" d="M67.71,307a2.94,2.94,0,0,0,1.33-2.3c0-.85-.59-1.2-1.32-.78a3,3,0,0,0-1.34,2.3c0,.85.59,1.2,1.33.78"/><path class="cls-36" d="M67.72,310.78a2.94,2.94,0,0,0,1.33-2.3c0-.86-.59-1.21-1.32-.78A2.94,2.94,0,0,0,66.4,310c0,.85.59,1.2,1.32.78"/><polygon class="cls-34" points="69.39 301.54 68.37 300.98 64.49 303.2 65.49 303.77 69.39 301.54"/><polygon class="cls-19" points="65.46 312.54 64.47 312.02 64.49 303.2 65.49 303.77 65.46 312.54"/><path class="cls-37" d="M67.61,309.8s0,0,0,0l-.36-.69a0,0,0,0,1,0,0s0,0,0,0l.16-.09s0,0,0,0a.05.05,0,0,1,0,0l.21.45h0a.05.05,0,0,0,0,0l.22-.69a.09.09,0,0,1,0-.06l0,0,.16-.09h0a0,0,0,0,1,0,.05l-.37,1.11s0,0,0,.06a.13.13,0,0,1-.06,0l-.13.08h0"/><path class="cls-37" d="M67.75,304.81l.13-.08h.05s0,0,0,0l.36.69v0l0,0-.16.1h0l0,0-.2-.45h0a.05.05,0,0,0,0,0l-.22.69a.09.09,0,0,1,0,.06l-.05.05-.16.09h0V306l.37-1.11,0-.06a.12.12,0,0,1,0-.05"/><polygon class="cls-38" points="84.37 264.67 73.96 270.68 74.2 270.81 84.55 264.84 84.37 264.67"/><polygon class="cls-39" points="84.55 264.97 84.55 264.83 74.2 270.81 74.2 270.95 84.55 264.97"/><polygon class="cls-38" points="68.93 267.47 74.43 270.68 74.2 270.81 68.69 267.6 68.93 267.47"/><polygon class="cls-39" points="68.69 267.75 68.69 267.6 74.2 270.81 74.2 270.95 68.69 267.75"/><polygon class="cls-38" points="68.93 267.47 67.75 268.11 68.03 268.2 68.88 267.7 68.93 267.47"/><polygon class="cls-39" points="68.88 267.84 68.88 267.7 68.03 268.2 68.03 268.33 68.88 267.84"/><polygon class="cls-40" points="67.75 268.11 67.75 301.6 68.01 301.75 68.03 268.2 67.75 268.11"/><polygon class="cls-41" points="68.02 268.2 68.02 301.75 68.11 301.7 68.11 268.15 68.02 268.2"/><polygon class="cls-42" points="99.64 330.17 103.67 327.85 99.64 325.53 95.62 327.85 99.64 330.17"/><polygon class="cls-43" points="99.64 330.17 99.64 360.46 95.62 358.13 95.62 327.85 99.64 330.17"/><polygon class="cls-44" points="99.64 330.17 99.64 360.46 103.67 358.13 103.67 327.85 99.64 330.17"/><polygon class="cls-42" points="152.39 300.12 156.42 297.8 152.39 295.47 148.37 297.8 152.39 300.12"/><polygon class="cls-43" points="152.39 300.12 152.39 330.4 148.37 328.08 148.37 297.8 152.39 300.12"/><polygon class="cls-44" points="152.39 300.12 152.39 330.4 156.42 328.08 156.42 297.8 152.39 300.12"/></g></g></svg>