<svg xmlns="http://www.w3.org/2000/svg" viewBox="0 0 242 242"><defs><style>.cls-1{fill:#fff;}.cls-2{fill:#2cd096;}</style></defs><title>Asset 2</title><g id="Layer_2" data-name="Layer 2"><g id="Layer_1-2" data-name="Layer 1"><circle class="cls-1" cx="121" cy="121" r="121"/><path class="cls-2" d="M121,78a.66.66,0,0,1,.3.07L164,97.44a.29.29,0,0,1,0,.13L121.3,116.93a.68.68,0,0,1-.6,0L78,97.57a.33.33,0,0,1,0-.14l42.7-19.37A.72.72,0,0,1,121,78M78,97.39h0M87,116.94l28,12.71a14.6,14.6,0,0,0,6,1.3,14.45,14.45,0,0,0,6-1.31l28-12.7,8.94,4v.13l-42.7,19.35a.82.82,0,0,1-.3.07.78.78,0,0,1-.3-.07L78,121.12V121l9-4m-8.93,4h0m8.89,19.48L115,153.14a14.53,14.53,0,0,0,12.06,0l28.07-12.72,8.9,4v.12l-42.7,19.35a.66.66,0,0,1-.3.07.63.63,0,0,1-.3-.07L78,144.58v-.12l8.91-4m-8.89,4h0M121,74a4.58,4.58,0,0,0-2,.43L76.28,93.83a4.1,4.1,0,0,0,0,7.35L119,120.58a4.76,4.76,0,0,0,3.91,0l42.77-19.4a4.1,4.1,0,0,0,0-7.35L123,74.43a4.65,4.65,0,0,0-2-.43Zm34.06,38.55L125.38,126a10.57,10.57,0,0,1-8.76,0L87,112.55l-10.67,4.83a4.1,4.1,0,0,0,0,7.35L119,144.11a4.66,4.66,0,0,0,3.91,0l42.77-19.38a4.1,4.1,0,0,0,0-7.35l-10.66-4.83Zm0,23.48L125.38,149.5a10.57,10.57,0,0,1-8.76,0L86.91,136l-10.63,4.82a4.09,4.09,0,0,0,0,7.34L119,167.58a4.76,4.76,0,0,0,3.91,0l42.77-19.39a4.09,4.09,0,0,0,0-7.34L155.1,136Z"/></g></g></svg>