<svg xmlns="http://www.w3.org/2000/svg" viewBox="0 0 338.35 278.72"><defs><style>.cls-1,.cls-3{font-size:42px;}.cls-1,.cls-2,.cls-3{fill:#1c1c1c;}.cls-1{font-family:Nunito-Bold, Nunito;font-weight:700;}.cls-3{font-family:Nunito-Black, Nunito;font-weight:800;}.cls-4{letter-spacing:-0.01em;}.cls-5{letter-spacing:0.03em;}</style></defs><title>image-6</title><g id="Layer_2" data-name="Layer 2"><g id="Layer_1-2" data-name="Layer 1"><text class="cls-1" transform="translate(39.58 211.8)">Rising Ridges</text><path class="cls-2" d="M245.49,110.77,212.71,78a20.76,20.76,0,0,0-23.9-3.89L159,44.26V26.87L123.14,0,105.22,17.92l26.87,35.83h17.39l29.84,29.84a20.81,20.81,0,0,0,3.89,23.9L216,140.27a10.4,10.4,0,0,0,14.75,0l14.75-14.75a10.45,10.45,0,0,0,0-14.75ZM198.07,63a29.44,29.44,0,0,1,21,8.68l5.43,5.43a39.77,39.77,0,0,0,12.26-8.25,40.24,40.24,0,0,0,10.61-38.27A3.34,3.34,0,0,0,241.72,29L220.89,49.86l-19-3.17-3.16-19L219.54,6.86A3.38,3.38,0,0,0,218,1.2a40.36,40.36,0,0,0-38.24,10.61,39.66,39.66,0,0,0-11.53,29l23,23a30.07,30.07,0,0,1,6.91-.82ZM169,85.94,153.12,70.07l-42.66,42.69a17.91,17.91,0,0,0,25.33,25.33l34.6-34.6A30,30,0,0,1,169,85.94Zm-45.85,46.19a6.72,6.72,0,1,1,6.71-6.72A6.74,6.74,0,0,1,123.14,132.13Z"/><text class="cls-3" transform="translate(65.28 249.06)"><tspan class="cls-4">C</tspan><tspan x="28.06" y="0">arpent</tspan><tspan class="cls-5" x="159.98" y="0">r</tspan><tspan x="178.83" y="0">y</tspan></text></g></g></svg>