<svg xmlns="http://www.w3.org/2000/svg" viewBox="0 0 242 242"><defs><style>.cls-1{fill:#fff;}.cls-2{fill:#2cd096;}</style></defs><title>Asset 3</title><g id="Layer_2" data-name="Layer 2"><g id="Layer_1-2" data-name="Layer 1"><circle class="cls-1" cx="121" cy="121" r="121"/><path class="cls-2" d="M165.32,74a2.83,2.83,0,0,1,2.43,1.36l16.91,28.8a2.55,2.55,0,0,1,.28,2,2.64,2.64,0,0,1-1.26,1.61L78.08,167.65a2.85,2.85,0,0,1-3.83-1L57.33,137.84a2.56,2.56,0,0,1-.27-2,2.73,2.73,0,0,1,1.28-1.64l11.24-6.37L80.26,146a5.71,5.71,0,0,0,7.75,2.1l3-1.68a5.67,5.67,0,0,0,2.66-3.49,5.59,5.59,0,0,0-.6-4.27L82.41,120.55l4.77-2.7,3.92,6.67a5.71,5.71,0,0,0,7.75,2.1l3-1.68a5.68,5.68,0,0,0,2.06-7.77L100,110.6l4.77-2.7,10.68,18.2a5.74,5.74,0,0,0,4.94,2.84,5.68,5.68,0,0,0,2.81-.75l3-1.68a5.64,5.64,0,0,0,2.06-7.76l-10.65-18.12,4.78-2.71,3.91,6.64a5.71,5.71,0,0,0,7.75,2.1l3-1.68a5.68,5.68,0,0,0,2.06-7.77l-3.87-6.57,4.77-2.7,10.68,18.18a5.69,5.69,0,0,0,7.75,2.09l3-1.68a5.67,5.67,0,0,0,2.06-7.76L152.79,80.66l11.13-6.31a2.74,2.74,0,0,1,1.4-.37m0-4a6.83,6.83,0,0,0-3.37.89l-14.67,8.31L160,100.8a1.64,1.64,0,0,1-.62,2.27l-2.93,1.66a1.75,1.75,0,0,1-.85.23,1.72,1.72,0,0,1-1.47-.85L141.41,82.52l-11.73,6.65,5.93,10.07a1.65,1.65,0,0,1-.62,2.28l-2.93,1.66a1.74,1.74,0,0,1-.85.22,1.71,1.71,0,0,1-1.47-.84l-5.93-10-11.73,6.65,12.71,21.62a1.65,1.65,0,0,1-.61,2.27l-2.94,1.66a1.69,1.69,0,0,1-2.32-.62l-12.69-21.62L94.5,109.13l5.93,10.07a1.66,1.66,0,0,1-.61,2.28l-2.94,1.66a1.72,1.72,0,0,1-2.32-.62l-5.93-10.1L76.9,119.08l12.69,21.61A1.66,1.66,0,0,1,89,143L86,144.63a1.74,1.74,0,0,1-.85.22,1.71,1.71,0,0,1-1.47-.84L71,122.46l-14.66,8.31a6.62,6.62,0,0,0-2.49,9.1L70.8,168.69A6.81,6.81,0,0,0,76.68,172a6.88,6.88,0,0,0,3.37-.89l105.6-59.92a6.59,6.59,0,0,0,2.46-9.1l-16.92-28.8A6.78,6.78,0,0,0,165.32,70Z"/></g></g></svg>