<svg xmlns="http://www.w3.org/2000/svg" viewBox="0 0 242 242"><defs><style>.cls-1{fill:#fff;}.cls-2{fill:#2cd096;}</style></defs><title>Asset 4</title><g id="Layer_2" data-name="Layer 2"><g id="Layer_1-2" data-name="Layer 1"><circle class="cls-1" cx="121" cy="121" r="121"/><path class="cls-2" d="M125.7,70.25a30,30,0,0,1,21.37,8.85l9.67,9.68a9.57,9.57,0,0,1,2.46,9.32,4,4,0,0,0,1,3.85l6.18,6.18a4,4,0,0,0,5.66,0l2-2,4,4-18.54,18.53-4-4,2-2a4,4,0,0,0,0-5.66l-6.18-6.18a4,4,0,0,0-3.85-1,10,10,0,0,1-2.55.33,9.48,9.48,0,0,1-6.77-2.79L127.69,96.81A9.65,9.65,0,0,1,124.86,90V86a4,4,0,0,0-2.21-3.58l-13.89-6.94a30,30,0,0,1,16.94-5.18m48.8,35.47h0m-56.91,2,9.62,9.62-48.08,51.5a9.23,9.23,0,1,1-13-13l51.5-48.08m8.11-41.45a34.12,34.12,0,0,0-24.2,10L120.86,86v4a13.68,13.68,0,0,0,4,9.68l10.51,10.51a13.51,13.51,0,0,0,9.6,4,13.94,13.94,0,0,0,3.57-.47l6.18,6.18-2.42,2.42a3.43,3.43,0,0,0,0,4.84l4.84,4.84a3.43,3.43,0,0,0,4.84,0l19.36-19.36a3.42,3.42,0,0,0,0-4.83l-4.84-4.84a3.4,3.4,0,0,0-4.84,0l-2.42,2.42-6.18-6.18A13.65,13.65,0,0,0,159.57,86l-9.68-9.68a34.09,34.09,0,0,0-24.19-10Zm-7.78,35.67L63.36,152.86a13.23,13.23,0,1,0,18.7,18.69L133,117a21.17,21.17,0,0,1-2.44-2L120,104.48a21.41,21.41,0,0,1-2.11-2.56Z"/></g></g></svg>