<svg xmlns="http://www.w3.org/2000/svg" viewBox="0 0 242 242"><defs><style>.cls-1{fill:#fff;}.cls-2{fill:#2cd096;}</style></defs><title>Asset 5</title><g id="Layer_2" data-name="Layer 2"><g id="Layer_1-2" data-name="Layer 1"><circle class="cls-1" cx="121" cy="121" r="121"/><path class="cls-2" d="M170,69a3,3,0,0,1,3,3V93a3,3,0,0,1-3,3,4,4,0,0,0-4,4v42a4,4,0,0,0,4,4,3,3,0,0,1,3,3v21a3,3,0,0,1-3,3H149a3,3,0,0,1-3-3,4,4,0,0,0-4-4H100a4,4,0,0,0-4,4,3,3,0,0,1-3,3H72a3,3,0,0,1-3-3V149a3,3,0,0,1,3-3,4,4,0,0,0,4-4V100a4,4,0,0,0-4-4,3,3,0,0,1-3-3V72a3,3,0,0,1,3-3H93a3,3,0,0,1,3,3,4,4,0,0,0,4,4h42a4,4,0,0,0,4-4,3,3,0,0,1,3-3h21M156,90h7a4,4,0,0,0,4-4V79a4,4,0,0,0-4-4h-7a4,4,0,0,0-4,4v7a4,4,0,0,0,4,4M79,90h7a4,4,0,0,0,4-4V79a4,4,0,0,0-4-4H79a4,4,0,0,0-4,4v7a4,4,0,0,0,4,4m7,56h7a3,3,0,0,1,3,3v7a4,4,0,0,0,4,4h42a4,4,0,0,0,4-4v-7a3,3,0,0,1,3-3h7a4,4,0,0,0,4-4V100a4,4,0,0,0-4-4h-7a3,3,0,0,1-3-3V86a4,4,0,0,0-4-4H100a4,4,0,0,0-4,4v7a3,3,0,0,1-3,3H86a4,4,0,0,0-4,4v42a4,4,0,0,0,4,4m70,21h7a4,4,0,0,0,4-4v-7a4,4,0,0,0-4-4h-7a4,4,0,0,0-4,4v7a4,4,0,0,0,4,4m-77,0h7a4,4,0,0,0,4-4v-7a4,4,0,0,0-4-4H79a4,4,0,0,0-4,4v7a4,4,0,0,0,4,4M170,65H149a7,7,0,0,0-7,7H100a7,7,0,0,0-7-7H72a7,7,0,0,0-7,7V93a7,7,0,0,0,7,7v42a7,7,0,0,0-7,7v21a7,7,0,0,0,7,7H93a7,7,0,0,0,7-7h42a7,7,0,0,0,7,7h21a7,7,0,0,0,7-7V149a7,7,0,0,0-7-7V100a7,7,0,0,0,7-7V72a7,7,0,0,0-7-7ZM156,86V79h7v7ZM79,86V79h7v7Zm7,56V100h7a7,7,0,0,0,7-7V86h42v7a7,7,0,0,0,7,7h7v42h-7a7,7,0,0,0-7,7v7H100v-7a7,7,0,0,0-7-7Zm70,21v-7h7v7Zm-77,0v-7h7v7Z"/></g></g></svg>