<svg xmlns="http://www.w3.org/2000/svg" viewBox="0 0 242 242"><defs><style>.cls-1{fill:#fff;}.cls-2{fill:#2cd096;}</style></defs><title>Asset 1</title><g id="Layer_2" data-name="Layer 2"><g id="Layer_1-2" data-name="Layer 1"><circle class="cls-1" cx="121" cy="121" r="121"/><path class="cls-2" d="M130.26,85.21v22.53a4,4,0,0,0,3.08,3.89,4.2,4.2,0,0,0,.92.11,4,4,0,0,0,3.58-2.21l6.71-13.43a35.67,35.67,0,0,1,18.87,31.53v9.26H78.58v-9.26A35.67,35.67,0,0,1,97.45,96.1l6.71,13.43a4,4,0,0,0,3.58,2.21,4.2,4.2,0,0,0,.92-.11,4,4,0,0,0,3.08-3.89V85.21h18.52m39.79,66.32v5.26H72v-5.26h98.1M131,81.21h-19.9a3.32,3.32,0,0,0-3.31,3.32v23.21L99.28,90.82a39.79,39.79,0,0,0-24.7,36.81v13.26h92.84V127.63a39.79,39.79,0,0,0-24.7-36.81l-8.46,16.92V84.53A3.32,3.32,0,0,0,131,81.21Zm39.78,66.32H71.27A3.31,3.31,0,0,0,68,150.84v6.63a3.32,3.32,0,0,0,3.32,3.32h99.46a3.32,3.32,0,0,0,3.32-3.32v-6.63a3.31,3.31,0,0,0-3.32-3.31Z"/></g></g></svg>