<svg xmlns="http://www.w3.org/2000/svg" xmlns:xlink="http://www.w3.org/1999/xlink" viewBox="0 0 874.49 869.34"><defs><style>.cls-1{fill:none;}.cls-2{fill:url(#Tin);}.cls-3{fill:#242626;}.cls-4{fill:#a3a3a3;}.cls-4,.cls-5,.cls-6{fill-opacity:0.21;}.cls-5{fill:#6d6d6d;}.cls-6{fill:#e5e5e5;}</style><linearGradient id="Tin" x1="-1797.7" y1="2000.34" x2="-1188.93" y2="2000.34" gradientTransform="translate(176.78 -1922.21) rotate(-45.22)" gradientUnits="userSpaceOnUse"><stop offset="0.03" stop-color="#a7a9ac"/><stop offset="0.23" stop-color="#b6b8ba"/><stop offset="0.38" stop-color="#c4c6c8"/><stop offset="0.57" stop-color="#b5b7ba"/><stop offset="0.72" stop-color="#a7a9ac"/><stop offset="1" stop-color="#d1d3d4"/><stop offset="1" stop-color="#a7a9ac"/></linearGradient></defs><title>speed-square</title><g id="Layer_2" data-name="Layer 2"><g id="Layer_1-2" data-name="Layer 1"><rect class="cls-1" width="868.17" height="868.17"/><path class="cls-2" d="M434.76,438.93l-.88,426.35c5.12,6.09,9.18,2,9.18,2l425.69-428Zm64.81,29.8-2.05-4.07L678.86,466s11.71-2.59,10.71,2.51-14.73,11.77-14.73,11.77l-164.53-.89Zm-6.79,196.86c0,1.33-2.47,2.46-5.83,2.8v12.78c3.39.32,5.9,1.43,5.9,2.76s-2.5,2.47-5.9,2.81v12.31c3.17.36,5.46,1.43,5.46,2.71s-2.29,2.37-5.46,2.76v12.85c3.2.36,5.53,1.44,5.54,2.73s-2.33,2.39-5.54,2.77v12.39c3,.4,5.09,1.44,5.1,2.67s-2.12,2.28-5.1,2.71v18s-20.8,23-21.33,17.4v-8.54c-2.88-.42-4.9-1.44-4.91-2.64s2-2.25,4.91-2.69V749.6c-2.88-.42-4.92-1.44-4.92-2.65s2-2.24,4.92-2.68V731.85c-3.18-.36-5.49-1.44-5.49-2.72s2.3-2.38,5.49-2.77V713.52c-3.22-.36-5.56-1.44-5.56-2.73s2.33-2.4,5.55-2.77V695.63c-3-.4-5.11-1.44-5.11-2.67s2.12-2.29,5.11-2.71V677.71c-3.37-.31-5.86-1.42-5.86-2.75s2.48-2.46,5.86-2.8V659.38c-3.4-.31-5.92-1.42-5.92-2.76s2.51-2.47,5.92-2.81v-12.3c-3.18-.36-5.48-1.44-5.48-2.72s2.29-2.38,5.47-2.76V623.18c-3.21-.36-5.54-1.44-5.54-2.73s2.32-2.39,5.54-2.77V605.29c-3-.4-5.09-1.44-5.09-2.67s2.11-2.28,5.09-2.71V587c-3-.39-5.15-1.44-5.16-2.67s2.15-2.3,5.16-2.72V569.4C462.35,569,460,568,460,566.68s2.31-2.38,5.5-2.76v-13c-2.69-.45-4.55-1.44-4.56-2.59s1.87-2.15,4.56-2.62V533.19c-3-.4-5.12-1.44-5.12-2.68s2.12-2.29,5.12-2.71V515.29c-2.75-.44-4.67-1.44-4.67-2.61s1.91-2.18,4.67-2.64V497c-2.79-.44-4.74-1.44-4.75-2.62s1.95-2.2,4.74-2.66v-8.06l2.53-3.57L487,498.83V519.3c3.67.24,6.44,1.4,6.45,2.8s-2.77,2.59-6.45,2.86v11.65c3.7.23,6.51,1.4,6.51,2.81s-2.8,2.61-6.51,2.86V555c3.22.36,5.56,1.44,5.57,2.73s-2.34,2.4-5.57,2.78v12c3.34.32,5.78,1.43,5.79,2.75s-2.45,2.44-5.79,2.79V591c3.45.3,6,1.42,6,2.77s-2.56,2.49-6,2.82v12.3c3.24.35,5.59,1.43,5.6,2.73s-2.35,2.4-5.6,2.78v12.39c3,.4,5.18,1.44,5.18,2.68s-2.15,2.31-5.18,2.72V645c3.58.27,6.27,1.41,6.27,2.79s-2.68,2.56-6.27,2.85v12.23C490.31,663.16,492.78,664.27,492.78,665.59Zm43.84,30.68s-.49,3.57-5.08,2.06l.91-28.53L747.58,455l27,.4v3.06Z"/><path class="cls-3" d="M870.48,438.55,443.57,867.79a6,6,0,0,1-4.18,1.55c-2.09-.09-4.13-1.3-6.06-3.6l-.17-.2v-.26l.89-427.07h.71ZM434.6,865c1.61,1.85,3.24,2.82,4.85,2.89a4.38,4.38,0,0,0,3.09-1.13L867,440l-431.54-.34ZM480,767c-5.46,5.51-11.89,11.31-14.12,10.57a1.52,1.52,0,0,1-1-1.45v-8c-3.08-.56-4.9-1.75-4.91-3.25s1.82-2.71,4.91-3.3V750.21c-3.09-.56-4.92-1.75-4.92-3.25s1.82-2.72,4.92-3.3V732.48c-2.76-.41-5.49-1.48-5.49-3.35s2.72-3,5.49-3.4V714.15c-2.8-.4-5.56-1.47-5.57-3.36s2.76-3,5.56-3.4V696.25c-3.21-.54-5.11-1.75-5.12-3.29s1.9-2.76,5.12-3.33V678.36c-2.94-.38-5.85-1.44-5.86-3.4s2.91-3.05,5.86-3.45V660c-2.86-.37-5.92-1.43-5.92-3.41s3.05-3.07,5.92-3.45v-11c-2.76-.41-5.48-1.48-5.48-3.35s2.71-3,5.47-3.39V623.81c-2.78-.4-5.54-1.47-5.55-3.35s2.75-3,5.55-3.41V605.91c-3.2-.54-5.09-1.75-5.1-3.28s1.89-2.77,5.1-3.33V587.58c-3.24-.53-5.15-1.74-5.16-3.29s1.91-2.78,5.16-3.34V570c-2.77-.42-5.51-1.48-5.51-3.36s2.73-3,5.5-3.39V551.52c-2.86-.58-4.55-1.75-4.56-3.18s1.69-2.61,4.56-3.22V533.81c-3.22-.54-5.12-1.75-5.13-3.29s1.9-2.77,5.13-3.34V515.9c-2.93-.58-4.67-1.76-4.68-3.21s1.73-2.65,4.68-3.25V497.57c-3-.57-4.74-1.76-4.75-3.22s1.76-2.67,4.74-3.26V483.4l3.16-4.45,19.73,19.58v20.11c3.11.3,6.44,1.36,6.45,3.46s-3.33,3.19-6.45,3.52V536c3.34.32,6.51,1.48,6.51,3.47s-3.16,3.18-6.51,3.52V554.4c2.8.41,5.56,1.47,5.57,3.36s-2.76,3-5.57,3.41v10.67c2.91.39,5.78,1.45,5.79,3.39s-2.88,3-5.79,3.44v11.64c2.91.35,6,1.42,6,3.41s-3.1,3.1-6,3.47v11c2.81.4,5.59,1.47,5.6,3.37s-2.78,3-5.6,3.41v11.14c3.25.53,5.18,1.75,5.18,3.3s-1.91,2.78-5.18,3.34v11.54c3,.33,6.26,1.39,6.27,3.45s-3.23,3.15-6.27,3.5V662.2c2.93.38,5.83,1.44,5.83,3.39s-2.9,3-5.83,3.44v11.5c2.85.36,5.9,1.43,5.9,3.4s-3,3.06-5.9,3.45v11c2.74.41,5.46,1.47,5.46,3.34s-2.71,3-5.46,3.39v11.59c2.78.41,5.53,1.47,5.54,3.36s-2.75,3-5.54,3.4v11.14c3.2.54,5.09,1.75,5.1,3.29s-1.89,2.76-5.1,3.32v17.64l-.19.2C486,760.77,483.16,763.82,480,767Zm-18.35-2.62a.79.79,0,0,0-.26.48c0,.55,1.34,1.5,4.29,1.94l.62.09V776a.52.52,0,0,0,.06.17c1.44.59,10.51-7.56,19.83-17.85V740l.62-.08c3.06-.44,4.48-1.45,4.48-2s-1.43-1.54-4.48-2l-.62-.08V722.23l.63-.08c3.21-.37,4.91-1.43,4.9-2s-1.56-1.64-4.89-2l-.64-.07V703.88l.63-.07c3.3-.41,4.84-1.46,4.83-2s-1.53-1.62-4.82-2l-.64-.07v-13.6l.65-.07c3.43-.34,5.26-1.43,5.25-2.09s-1.83-1.72-5.25-2l-.65-.06V667.74l.65-.06c3.38-.35,5.18-1.43,5.18-2.08s-1.8-1.72-5.18-2l-.65-.06V649.94l.66-.05c3.62-.29,5.61-1.44,5.61-2.12s-2-1.81-5.6-2.08l-.67-.05V631.53l.62-.09c3.12-.43,4.56-1.45,4.56-2s-1.45-1.56-4.55-2l-.63-.09V613.71l.64-.07c3.24-.37,5-1.43,5-2.06s-1.73-1.67-5-2l-.64-.07v-13.6l.65-.06c3.51-.33,5.37-1.43,5.37-2.1s-1.87-1.75-5.36-2.05l-.66-.06V577.38l.65-.06c3.36-.36,5.14-1.44,5.14-2.08s-1.79-1.71-5.14-2l-.65-.06V559.9l.64-.08c3.22-.37,4.93-1.43,4.93-2.05s-1.72-1.67-4.93-2l-.64-.07V541.61l.67-.05c3.77-.26,5.85-1.43,5.84-2.14s-2.08-1.85-5.83-2.09l-.68,0v-13l.67,0c3.72-.27,5.78-1.43,5.78-2.13s-2.06-1.85-5.77-2.09l-.68,0V499.13l-18.1-18-1.91,2.69v8.44l-.6.1c-2.86.47-4.14,1.42-4.14,1.94s1.29,1.47,4.14,1.91l.61.1v14.3l-.6.1c-2.81.47-4.08,1.41-4.07,1.93s1.26,1.45,4.07,1.9l.6.1v13.75l-.62.08c-3.08.44-4.51,1.45-4.5,2s1.43,1.55,4.5,2l.62.09v13.76l-.6.11c-2.73.47-4,1.4-4,1.91s1.23,1.42,4,1.88l.6.1v14.23l-.64.08c-3.33.4-4.88,1.46-4.87,2s1.55,1.63,4.87,2l.64.07v13.43l-.62.09c-3.1.43-4.54,1.45-4.54,2s1.45,1.56,4.54,2l.62.08v14.21l-.62.09c-3.06.43-4.48,1.45-4.47,2s1.42,1.54,4.47,2l.62.08v13.66l-.64.08c-3.2.38-4.91,1.43-4.9,2.05s1.7,1.66,4.9,2l.64.08v14.13l-.63.07c-3.31.41-4.85,1.46-4.84,2s1.54,1.63,4.84,2l.64.08v13.59l-.65.07c-3.44.34-5.28,1.43-5.27,2.09s1.83,1.73,5.27,2l.65.05v14.09l-.65.06c-3.4.35-5.21,1.44-5.21,2.09s1.81,1.72,5.21,2l.65.06v13.81l-.62.09c-3.07.44-4.5,1.45-4.49,2s1.43,1.54,4.49,2l.62.08v13.66l-.64.07c-3.22.38-4.93,1.44-4.92,2.06s1.71,1.66,4.92,2l.64.07V727l-.63.08c-3.32.4-4.87,1.46-4.86,2s1.54,1.63,4.86,2l.63.07v13.69l-.61.09c-3,.45-4.32,1.43-4.31,2s1.34,1.5,4.31,1.94l.61.09v13.78l-.61.09A7.74,7.74,0,0,0,461.69,764.34ZM775.32,458.78l-.22.22L537.28,696.63a3.72,3.72,0,0,1-1.58,2.24,5.13,5.13,0,0,1-4.39.15l-.51-.17.93-29.36.21-.2,215.35-215h.3l27.71.41ZM535.94,695.94,773.87,458.19v-2.05l-26-.39L533.16,670.11l-.88,27.69a3.38,3.38,0,0,0,2.66-.16,2.33,2.33,0,0,0,1-1.47ZM687.77,472.6c-4,4.07-11.53,7.79-12.61,8.32L675,481h-.16L510,480.1l-11-10.94-2.64-5.23,182.44,1.34c1.16-.25,8.35-1.68,10.75.66a2.81,2.81,0,0,1,.74,2.7A8.45,8.45,0,0,1,687.77,472.6Zm-13.09,6.95c3.83-1.89,13.43-7.35,14.18-11.19a1.38,1.38,0,0,0-.33-1.4c-1.45-1.41-6.6-.91-9.51-.27l-.16,0-180.17-1.32,1.47,2.91,10.45,10.36Z"/><rect class="cls-4" x="503.29" y="534.86" width="121.02" height="38.84" rx="12" transform="translate(-226.77 564.09) rotate(-45.22)"/><polygon class="cls-5" points="868.96 439.39 434.97 439.05 434.93 455.96 854.1 454.32 868.96 439.39"/><path class="cls-6" d="M532.08,698.54l-.34-.09v0c-16.77-6-31.6-15.6-44.59-27.08v9.95c3.39.31,5.9,1.42,5.91,2.76s-2.51,2.47-5.91,2.81v12.3c3.17.37,5.46,1.44,5.47,2.72s-2.29,2.37-5.47,2.76v12.85c3.21.36,5.53,1.44,5.54,2.73s-2.33,2.39-5.54,2.77v12.39c3,.4,5.09,1.44,5.1,2.67s-2.12,2.28-5.1,2.71v18s-20.79,23-21.33,17.4v-8.54c-2.88-.42-4.9-1.45-4.91-2.65s2-2.24,4.91-2.68V749.72c-2.88-.42-4.92-1.45-4.92-2.65s2-2.25,4.92-2.69V732c-3.19-.36-5.5-1.43-5.5-2.71s2.3-2.39,5.49-2.77V713.64c-3.22-.36-5.56-1.44-5.56-2.73s2.33-2.4,5.56-2.78V695.75c-3-.4-5.11-1.44-5.11-2.67s2.12-2.29,5.11-2.71V677.83c-3.37-.32-5.85-1.42-5.86-2.75s2.48-2.47,5.86-2.81V659.5c-3.41-.31-5.93-1.42-5.93-2.76s2.51-2.48,5.92-2.81V649a280.31,280.31,0,0,1-31.14-47.56l-.55,263.91c5.12,6.1,9.18,2,9.18,2L610.78,699C580.87,708.11,554.71,706.59,532.08,698.54Z"/><ellipse class="cls-5" cx="583.04" cy="571.25" rx="85.07" ry="1.13" transform="translate(-233.13 582.77) rotate(-45.22)"/><ellipse class="cls-5" cx="478.27" cy="487.77" rx="1.88" ry="18.29" transform="translate(-204.84 483.72) rotate(-45.22)"/><ellipse class="cls-5" cx="502.6" cy="473.34" rx="1.69" ry="13.19" transform="translate(-187.41 496.72) rotate(-45.22)"/><ellipse class="cls-5" cx="530.15" cy="684.14" rx="16.6" ry="1.75" transform="translate(-179.99 1178.91) rotate(-87.09)"/><ellipse class="cls-5" cx="761.79" cy="452.89" rx="16.95" ry="1.93" transform="translate(-1.76 2.97) rotate(-0.22)"/><ellipse class="cls-5" cx="478.19" cy="770.36" rx="19.76" ry="1.65" transform="translate(-391.48 513.88) rotate(-41.74)"/><rect class="cls-3" x="428.79" y="426.1" width="445.7" height="13.23" rx="6.23" transform="translate(0.47 -0.7) rotate(0.06)"/><path class="cls-3" d="M443.33,622.1a.36.36,0,0,1-.26.11l-8.84-.11a.34.34,0,0,1-.35-.36.36.36,0,0,1,.36-.36l8.84.11a.34.34,0,0,1,.35.36A.36.36,0,0,1,443.33,622.1Z"/><path class="cls-3" d="M443.74,585.85a.32.32,0,0,1-.26.1l-9-.25a.37.37,0,0,1-.35-.37.37.37,0,0,1,.37-.35l9,.25a.37.37,0,0,1,.35.37A.44.44,0,0,1,443.74,585.85Z"/><path class="cls-3" d="M438.64,617.52a.35.35,0,0,1-.26.11l-4.16-.06a.36.36,0,0,1-.36-.36.37.37,0,0,1,.37-.36l4.16.06a.36.36,0,0,1,.36.36A.33.33,0,0,1,438.64,617.52Z"/><path class="cls-3" d="M442.16,603.77a.36.36,0,0,1-.25.1l-7.73.07a.36.36,0,0,1-.36-.36.36.36,0,0,1,.36-.36l7.72-.07a.37.37,0,0,1,.37.36A.36.36,0,0,1,442.16,603.77Z"/><path class="cls-3" d="M438.63,613a.4.4,0,0,1-.26.1l-4.17,0a.36.36,0,0,1,0-.72l4.17.05a.37.37,0,0,1,.35.37A.39.39,0,0,1,438.63,613Z"/><path class="cls-3" d="M438.61,608.39a.35.35,0,0,1-.26.11l-4.16,0a.36.36,0,1,1,0-.72l4.16,0a.37.37,0,0,1,.36.37A.32.32,0,0,1,438.61,608.39Z"/><path class="cls-3" d="M439,599.3a.36.36,0,0,1-.26.11l-4.17,0a.35.35,0,0,1-.35-.37.34.34,0,0,1,.36-.35l4.17.05a.37.37,0,0,1,.35.37A.35.35,0,0,1,439,599.3Z"/><path class="cls-3" d="M438.93,594.74a.35.35,0,0,1-.26.11l-4.16-.05a.37.37,0,0,1-.36-.37.36.36,0,0,1,.37-.35l4.16,0a.36.36,0,0,1,.36.36A.33.33,0,0,1,438.93,594.74Z"/><path class="cls-3" d="M438.92,590.18a.36.36,0,0,1-.26.11l-4.17-.06a.35.35,0,0,1-.35-.36.36.36,0,0,1,.36-.36l4.17.06a.35.35,0,0,1,.35.36A.36.36,0,0,1,438.92,590.18Z"/><path class="cls-3" d="M447.14,619.76v2.88l1.5.21a2.9,2.9,0,0,1,0-.54,3.35,3.35,0,0,1,.48-1.82,2.12,2.12,0,0,1,1.89-1,2.74,2.74,0,0,1,2.61,3,4.31,4.31,0,0,1-.43,2l-1.07-.28a3.85,3.85,0,0,0,.38-1.65,1.46,1.46,0,0,0-1.38-1.62c-.85,0-1.41.64-1.4,2.14a6,6,0,0,0,.07,1l-3.78-.48,0-3.87Z"/><path class="cls-3" d="M453.47,585h-1.9v3.38h-.92l-4.68-3v-1.67l4.52,0v-1h1.07v1h1.9Zm-3,0h-2c-.43,0-.87,0-1.31,0v0c.48.23.86.43,1.27.66l2.06,1.36h0Z"/><path class="cls-3" d="M443.12,694.75a.36.36,0,0,1-.26.11l-8.84-.11a.34.34,0,0,1-.35-.36A.36.36,0,0,1,434,694l8.84.11a.34.34,0,0,1,.35.36A.36.36,0,0,1,443.12,694.75Z"/><path class="cls-3" d="M443.53,658.5a.37.37,0,0,1-.27.11l-9-.26a.36.36,0,0,1-.35-.37.37.37,0,0,1,.37-.35l9,.26a.36.36,0,0,1,.25.61Z"/><path class="cls-3" d="M438.43,690.17a.36.36,0,0,1-.26.11l-4.16-.06a.36.36,0,0,1-.36-.36.37.37,0,0,1,.37-.36l4.16.06a.36.36,0,0,1,.36.36A.41.41,0,0,1,438.43,690.17Z"/><path class="cls-3" d="M442,676.42a.36.36,0,0,1-.25.1l-7.73.07a.34.34,0,0,1-.36-.35.37.37,0,0,1,.35-.37l7.73-.07a.37.37,0,0,1,.37.36A.36.36,0,0,1,442,676.42Z"/><path class="cls-3" d="M438.42,685.61a.36.36,0,0,1-.26.11l-4.17-.06a.34.34,0,0,1-.35-.36.36.36,0,0,1,.36-.36l4.16.06a.36.36,0,0,1,.26.61Z"/><path class="cls-3" d="M438.4,681.05a.4.4,0,0,1-.26.1l-4.16,0a.36.36,0,0,1-.36-.36.37.37,0,0,1,.37-.36l4.16,0a.37.37,0,0,1,.36.37A.44.44,0,0,1,438.4,681.05Z"/><path class="cls-3" d="M438.74,672a.41.41,0,0,1-.27.1l-4.16,0a.35.35,0,0,1-.35-.36.36.36,0,0,1,.36-.36l4.16.05a.37.37,0,0,1,.36.37A.39.39,0,0,1,438.74,672Z"/><path class="cls-3" d="M438.72,667.39a.36.36,0,0,1-.26.11l-4.16,0a.37.37,0,0,1-.36-.37.35.35,0,0,1,.37-.35l4.16,0a.36.36,0,0,1,.25.61Z"/><path class="cls-3" d="M438.71,662.83a.36.36,0,0,1-.26.11l-4.17-.05a.36.36,0,0,1-.35-.37.34.34,0,0,1,.36-.35l4.16.05a.36.36,0,0,1,.26.61Z"/><path class="cls-3" d="M446.3,692h.91l6.59,3.14v1.5l-6.3-3.13h0v3.52h-1.17Z"/><path class="cls-3" d="M447.17,656.23a4.92,4.92,0,0,0,0,.72,2.65,2.65,0,0,0,2.2,2.5v0a2.18,2.18,0,0,1-.74-1.68,2.27,2.27,0,0,1,2.44-2.3,2.61,2.61,0,0,1,2.68,2.63c0,1.82-1.37,2.82-3.22,2.83a4.55,4.55,0,0,1-3.36-1.29,4.33,4.33,0,0,1-1.12-2.65,3.82,3.82,0,0,1,0-.72Zm4,.65a1.32,1.32,0,0,0-1.48,1.31,1.36,1.36,0,0,0,.78,1.21.82.82,0,0,0,.45.09c1,0,1.79-.5,1.79-1.41C452.73,657.35,452.09,656.88,451.19,656.88Z"/><path class="cls-3" d="M443,767.48a.36.36,0,0,1-.26.11l-8.84-.11a.34.34,0,0,1-.35-.36.36.36,0,0,1,.36-.36l8.84.11a.34.34,0,0,1,.35.36A.36.36,0,0,1,443,767.48Z"/><path class="cls-3" d="M443.37,731.23a.36.36,0,0,1-.26.11l-9-.26a.36.36,0,0,1-.35-.37.37.37,0,0,1,.37-.35l9,.26a.37.37,0,0,1,.35.37A.41.41,0,0,1,443.37,731.23Z"/><path class="cls-3" d="M438.27,762.9a.36.36,0,0,1-.26.11l-4.16,0a.37.37,0,0,1-.36-.37.37.37,0,0,1,.37-.36l4.16.06a.36.36,0,0,1,.36.36A.41.41,0,0,1,438.27,762.9Z"/><path class="cls-3" d="M441.79,749.15a.36.36,0,0,1-.25.1l-7.73.07a.34.34,0,0,1-.36-.35.37.37,0,0,1,.35-.37l7.73-.07a.37.37,0,0,1,.37.36A.36.36,0,0,1,441.79,749.15Z"/><path class="cls-3" d="M438.26,758.34a.36.36,0,0,1-.26.11l-4.17-.06a.34.34,0,0,1-.35-.36.36.36,0,0,1,.36-.36l4.17.06a.36.36,0,0,1,.25.61Z"/><path class="cls-3" d="M438.24,753.78a.34.34,0,0,1-.26.1l-4.16,0a.36.36,0,0,1-.36-.36.37.37,0,0,1,.37-.36l4.16,0a.37.37,0,0,1,.36.37A.38.38,0,0,1,438.24,753.78Z"/><path class="cls-3" d="M438.58,744.69a.35.35,0,0,1-.26.1l-4.17,0a.35.35,0,0,1-.35-.36.36.36,0,0,1,.36-.36l4.16.05a.37.37,0,0,1,.26.62Z"/><path class="cls-3" d="M438.56,740.12a.36.36,0,0,1-.26.11l-4.16-.05a.37.37,0,0,1-.36-.37.36.36,0,0,1,.37-.35l4.16,0a.37.37,0,0,1,.36.37A.41.41,0,0,1,438.56,740.12Z"/><path class="cls-3" d="M438.55,735.56a.36.36,0,0,1-.26.11l-4.17,0a.36.36,0,0,1-.35-.37.34.34,0,0,1,.36-.35l4.16.05a.36.36,0,0,1,.36.36A.36.36,0,0,1,438.55,735.56Z"/><path class="cls-3" d="M453,769.3a3.53,3.53,0,0,0,0-.78,2.86,2.86,0,0,0-.58-1.52,2.77,2.77,0,0,0-1.67-1v0a2.09,2.09,0,0,1,.68,1.63A2.21,2.21,0,0,1,449,770a2.64,2.64,0,0,1-2.68-2.69c0-1.74,1.36-2.68,3.18-2.69a4.64,4.64,0,0,1,3.48,1.29,4.1,4.1,0,0,1,1,2.55,5.34,5.34,0,0,1,0,.86Zm-4-.72a1.26,1.26,0,0,0,1.37-1.24,1.36,1.36,0,0,0-.63-1.21.93.93,0,0,0-.4-.08c-1,0-1.89.38-1.89,1.3C447.4,768.07,448,768.58,448.94,768.58Z"/><path class="cls-3" d="M454,730.88c0,1.6-.91,2.73-2.25,2.72a2,2,0,0,1-1.88-1.43h0a1.85,1.85,0,0,1-1.69,1.14c-.92,0-1.89-.74-1.88-2.35a2.22,2.22,0,0,1,2.06-2.49,1.83,1.83,0,0,1,1.65,1.14h0a2.07,2.07,0,0,1,1.95-1.4C453,728.22,454,729.13,454,730.88Zm-6.76,0a1,1,0,0,0,1.05,1.08,1.22,1.22,0,0,0,1.13-.93c-.19-.72-.56-1.22-1.17-1.23A1,1,0,0,0,447.2,730.89Zm5.76,0a1.18,1.18,0,0,0-1.21-1.26,1.36,1.36,0,0,0-1.32,1.1c.23.83.64,1.39,1.4,1.4A1.15,1.15,0,0,0,453,730.93Z"/><path class="cls-3" d="M442.8,840.74a.35.35,0,0,1-.26.11l-8.84-.1a.37.37,0,0,1-.35-.37.34.34,0,0,1,.36-.35l8.84.1a.35.35,0,0,1,.25.61Z"/><path class="cls-3" d="M443.21,804.49a.35.35,0,0,1-.26.11l-9-.25a.37.37,0,1,1,0-.73l9,.26a.36.36,0,0,1,.35.37A.32.32,0,0,1,443.21,804.49Z"/><path class="cls-3" d="M438.11,836.16a.33.33,0,0,1-.26.11l-4.16,0a.37.37,0,0,1-.36-.37.36.36,0,0,1,.37-.35l4.16,0a.36.36,0,0,1,.36.36A.33.33,0,0,1,438.11,836.16Z"/><path class="cls-3" d="M441.64,822.41a.36.36,0,0,1-.26.11l-7.73.07a.36.36,0,0,1,0-.72l7.73-.07a.34.34,0,0,1,.36.35A.4.4,0,0,1,441.64,822.41Z"/><path class="cls-3" d="M438.1,831.6a.36.36,0,0,1-.26.11l-4.17-.06a.36.36,0,0,1-.35-.36.36.36,0,0,1,.36-.36l4.17.06a.34.34,0,0,1,.35.36A.36.36,0,0,1,438.1,831.6Z"/><path class="cls-3" d="M438.08,827a.33.33,0,0,1-.26.11l-4.16-.06a.36.36,0,0,1-.36-.36.37.37,0,0,1,.37-.36l4.16.06a.36.36,0,0,1,.36.36A.33.33,0,0,1,438.08,827Z"/><path class="cls-3" d="M438.42,818a.36.36,0,0,1-.26.11L434,818a.36.36,0,0,1,0-.72l4.17.06a.34.34,0,0,1,.35.36A.36.36,0,0,1,438.42,818Z"/><path class="cls-3" d="M438.4,813.39a.36.36,0,0,1-.26.1l-4.16,0a.36.36,0,0,1-.36-.36.37.37,0,0,1,.37-.36l4.16,0a.37.37,0,0,1,.36.37A.34.34,0,0,1,438.4,813.39Z"/><path class="cls-3" d="M438.39,808.82a.36.36,0,0,1-.26.11l-4.17,0a.37.37,0,0,1-.35-.37.36.36,0,0,1,.36-.35l4.17.05a.36.36,0,0,1,.25.61Z"/><path class="cls-3" d="M438.9,653.9a.4.4,0,0,1-.26.1l-4.16,0a.37.37,0,0,1-.36-.37.36.36,0,0,1,.36-.35l4.17,0a.35.35,0,0,1,.35.37A.39.39,0,0,1,438.9,653.9Z"/><path class="cls-3" d="M442.42,640.14a.33.33,0,0,1-.25.11l-7.73.07a.36.36,0,0,1-.36-.36.34.34,0,0,1,.35-.36l7.73-.07a.37.37,0,0,1,.37.35A.35.35,0,0,1,442.42,640.14Z"/><path class="cls-3" d="M438.88,649.33a.33.33,0,0,1-.26.11l-4.16-.05a.36.36,0,0,1-.35-.37.34.34,0,0,1,.36-.35l4.16.05a.36.36,0,0,1,.36.36A.33.33,0,0,1,438.88,649.33Z"/><path class="cls-3" d="M445.19,655.12a.36.36,0,0,1-.51,0l-10.48-10.4a.35.35,0,0,1-.08-.4.36.36,0,0,1,.34-.22l4.16.06a.34.34,0,0,1,.35.36.36.36,0,0,1-.36.36l-3.27,0,9.84,9.77A.35.35,0,0,1,445.19,655.12Z"/><path class="cls-3" d="M439.2,635.68a.33.33,0,0,1-.26.11l-4.16-.06a.36.36,0,0,1-.36-.36.37.37,0,0,1,.37-.36l4.16.06a.36.36,0,0,1,.36.36A.33.33,0,0,1,439.2,635.68Z"/><path class="cls-3" d="M439.19,631.12a.36.36,0,0,1-.26.11l-4.16-.06a.36.36,0,0,1-.36-.36.36.36,0,0,1,.36-.36l4.17,0a.36.36,0,0,1,.35.37A.37.37,0,0,1,439.19,631.12Z"/><path class="cls-3" d="M439.17,626.56a.36.36,0,0,1-.26.1l-4.16,0a.35.35,0,0,1-.35-.36.36.36,0,0,1,.36-.36l4.16.05a.37.37,0,0,1,.36.37A.36.36,0,0,1,439.17,626.56Z"/><path class="cls-3" d="M438.3,726.54a.36.36,0,0,1-.26.11l-4.17-.06a.34.34,0,0,1-.35-.36.36.36,0,0,1,.36-.36l4.17.06a.36.36,0,0,1,.35.36A.37.37,0,0,1,438.3,726.54Z"/><path class="cls-3" d="M441.82,712.79a.39.39,0,0,1-.25.1l-7.73.07a.37.37,0,0,1-.37-.36.36.36,0,0,1,.36-.36l7.73-.07a.36.36,0,0,1,.36.36A.4.4,0,0,1,441.82,712.79Z"/><path class="cls-3" d="M438.28,722a.38.38,0,0,1-.26.1l-4.16-.05a.36.36,0,0,1-.36-.36.37.37,0,0,1,.37-.36l4.16.05a.37.37,0,0,1,.36.37A.36.36,0,0,1,438.28,722Z"/><path class="cls-3" d="M438.27,717.41a.36.36,0,0,1-.26.11l-4.17,0a.36.36,0,0,1-.35-.37.35.35,0,0,1,.36-.35l4.17,0a.36.36,0,0,1,.35.37A.35.35,0,0,1,438.27,717.41Z"/><path class="cls-3" d="M438.6,708.32a.35.35,0,0,1-.26.11l-4.16,0a.37.37,0,0,1-.36-.37.36.36,0,0,1,.37-.35l4.16.05a.36.36,0,0,1,.36.36A.41.41,0,0,1,438.6,708.32Z"/><path class="cls-3" d="M438.59,703.76a.36.36,0,0,1-.26.11l-4.17,0a.36.36,0,0,1-.35-.37.34.34,0,0,1,.36-.35l4.17,0a.36.36,0,0,1,.25.61Z"/><path class="cls-3" d="M438.57,699.2a.35.35,0,0,1-.26.11l-4.16-.06a.36.36,0,0,1-.36-.36.37.37,0,0,1,.37-.36l4.16.06a.36.36,0,0,1,.36.36A.33.33,0,0,1,438.57,699.2Z"/><path class="cls-3" d="M438.23,799.36a.35.35,0,0,1-.26.1l-4.17-.05a.35.35,0,0,1-.35-.36.36.36,0,0,1,.36-.36l4.17,0a.37.37,0,0,1,.25.62Z"/><path class="cls-3" d="M441.75,785.6a.36.36,0,0,1-.25.11l-7.73.07a.37.37,0,0,1-.37-.36.36.36,0,0,1,.36-.36l7.73-.07a.36.36,0,0,1,.26.61Z"/><path class="cls-3" d="M438.21,794.8a.38.38,0,0,1-.26.1l-4.16,0a.37.37,0,0,1-.36-.37.37.37,0,0,1,.37-.35l4.16,0a.37.37,0,0,1,.36.37A.36.36,0,0,1,438.21,794.8Z"/><path class="cls-3" d="M438.2,790.23a.36.36,0,0,1-.26.11l-4.17-.05a.37.37,0,0,1-.35-.37.34.34,0,0,1,.36-.35l4.17,0a.36.36,0,0,1,.25.61Z"/><path class="cls-3" d="M438.53,781.14a.36.36,0,0,1-.26.11l-4.16,0a.37.37,0,0,1-.36-.37.35.35,0,0,1,.37-.35l4.16,0a.36.36,0,0,1,.36.36A.41.41,0,0,1,438.53,781.14Z"/><path class="cls-3" d="M438.52,776.58a.36.36,0,0,1-.26.11l-4.17-.06a.34.34,0,0,1-.35-.36.36.36,0,0,1,.36-.36l4.17.06a.36.36,0,0,1,.25.61Z"/><path class="cls-3" d="M438.5,772a.35.35,0,0,1-.26.11l-4.16-.06a.36.36,0,0,1-.36-.36.37.37,0,0,1,.37-.36l4.16,0a.37.37,0,0,1,.36.37A.38.38,0,0,1,438.5,772Z"/><path class="cls-3" d="M443.33,549.71a.36.36,0,0,1-.26.11l-8.84-.11a.34.34,0,0,1-.35-.36.36.36,0,0,1,.36-.36l8.84.11a.35.35,0,0,1,.35.36A.36.36,0,0,1,443.33,549.71Z"/><path class="cls-3" d="M443.74,513.46a.37.37,0,0,1-.27.11l-9-.26a.36.36,0,0,1-.35-.37.37.37,0,0,1,.37-.35l9,.26a.36.36,0,0,1,.25.61Z"/><path class="cls-3" d="M438.64,545.13a.36.36,0,0,1-.26.11l-4.16,0a.37.37,0,0,1-.36-.37.37.37,0,0,1,.37-.36l4.16.06a.34.34,0,0,1,.35.36A.36.36,0,0,1,438.64,545.13Z"/><path class="cls-3" d="M442.16,531.38a.36.36,0,0,1-.25.1l-7.73.07a.34.34,0,0,1-.36-.35.36.36,0,0,1,.35-.37l7.73-.07a.37.37,0,0,1,.37.36A.36.36,0,0,1,442.16,531.38Z"/><path class="cls-3" d="M438.63,540.57a.36.36,0,0,1-.26.11l-4.17-.06a.34.34,0,0,1-.35-.36.36.36,0,0,1,.36-.36l4.16.06a.36.36,0,0,1,.26.61Z"/><path class="cls-3" d="M438.61,536a.4.4,0,0,1-.26.1l-4.16-.05a.36.36,0,1,1,0-.72l4.16,0a.37.37,0,0,1,.36.37A.44.44,0,0,1,438.61,536Z"/><path class="cls-3" d="M438.94,526.92a.36.36,0,0,1-.26.1l-4.16,0a.35.35,0,0,1-.35-.36.36.36,0,0,1,.36-.36l4.16,0a.37.37,0,0,1,.36.37A.34.34,0,0,1,438.94,526.92Z"/><path class="cls-3" d="M438.93,522.35a.36.36,0,0,1-.26.11l-4.16-.05a.37.37,0,0,1-.36-.37.36.36,0,0,1,.37-.35l4.16,0a.36.36,0,0,1,.25.61Z"/><path class="cls-3" d="M438.92,517.79a.37.37,0,0,1-.27.11l-4.16,0a.36.36,0,0,1-.35-.37.34.34,0,0,1,.36-.35l4.16,0a.36.36,0,0,1,.26.61Z"/><path class="cls-3" d="M452.12,551.82a3.63,3.63,0,0,0,.46-1.71c0-1.08-.62-1.52-1.21-1.5-.88,0-1.26.83-1.26,1.7V551h-1v-.64c0-.65-.31-1.48-1.06-1.48-.5,0-.93.39-.92,1.2a3,3,0,0,0,.47,1.53l-1,.33a4,4,0,0,1-.58-2.15c0-1.55.84-2.34,1.82-2.35a1.83,1.83,0,0,1,1.75,1.38h0a1.89,1.89,0,0,1,1.86-1.66c1.26,0,2.27,1,2.28,2.91a4.18,4.18,0,0,1-.51,2.1Z"/><path class="cls-3" d="M453.59,515.72h-.87l-.82-.89c-1.64-1.75-2.54-2.58-3.53-2.59a1.18,1.18,0,0,0-1.25,1.34,2.71,2.71,0,0,0,.63,1.6l-1,.42a3.73,3.73,0,0,1-.78-2.3,2.22,2.22,0,0,1,2.26-2.47c1.32,0,2.38.93,3.59,2.23l.57.65h0v-3.07h1.18Z"/><path class="cls-3" d="M443.71,477a.36.36,0,0,1-.26.11l-8.84-.1a.36.36,0,0,1-.35-.37.34.34,0,0,1,.36-.35l8.84.1a.36.36,0,0,1,.25.61Z"/><path class="cls-3" d="M439,472.44a.36.36,0,0,1-.26.11l-4.16-.05a.36.36,0,1,1,0-.72l4.16.05a.37.37,0,0,1,.36.37A.41.41,0,0,1,439,472.44Z"/><path class="cls-3" d="M442.54,458.69a.33.33,0,0,1-.25.11l-7.73.07a.36.36,0,0,1,0-.72l7.73-.07a.37.37,0,0,1,.37.35A.35.35,0,0,1,442.54,458.69Z"/><path class="cls-3" d="M439,467.88a.36.36,0,0,1-.26.11l-4.17-.05a.36.36,0,0,1-.35-.37.34.34,0,0,1,.36-.35l4.17,0a.36.36,0,0,1,.25.61Z"/><path class="cls-3" d="M439,463.32a.35.35,0,0,1-.26.11l-4.16-.06a.36.36,0,0,1-.36-.36.37.37,0,0,1,.37-.36l4.16.06a.36.36,0,0,1,.36.36A.33.33,0,0,1,439,463.32Z"/><path class="cls-3" d="M439.33,454.23a.36.36,0,0,1-.26.11l-4.17-.06a.34.34,0,0,1-.35-.36.36.36,0,0,1,.36-.36l4.16.06a.36.36,0,0,1,.26.61Z"/><path class="cls-3" d="M439.31,449.67a.35.35,0,0,1-.26.1l-4.16,0a.36.36,0,0,1-.36-.36.37.37,0,0,1,.37-.36l4.16.05a.37.37,0,0,1,.36.37A.44.44,0,0,1,439.31,449.67Z"/><path class="cls-3" d="M439.3,445.11a.4.4,0,0,1-.26.1l-4.17,0a.35.35,0,0,1-.35-.37.36.36,0,0,1,.36-.35l4.17.05a.37.37,0,0,1,.35.37A.39.39,0,0,1,439.3,445.11Z"/><path class="cls-3" d="M447,477.22v0l.69,1.37-1.07.24-.9-1.81v-1.19l7.49,0v1.37Z"/><path class="cls-3" d="M438.84,509a.36.36,0,0,1-.26.1l-4.16-.05a.36.36,0,1,1,0-.72l4.16.05a.37.37,0,0,1,.36.37A.36.36,0,0,1,438.84,509Z"/><path class="cls-3" d="M442.37,495.19a.36.36,0,0,1-.26.11l-7.73.07A.36.36,0,0,1,434,495a.36.36,0,0,1,.36-.36l7.73-.07a.36.36,0,0,1,.36.35A.36.36,0,0,1,442.37,495.19Z"/><path class="cls-3" d="M438.83,504.38a.36.36,0,0,1-.26.11l-4.16-.05a.37.37,0,0,1-.36-.37.35.35,0,0,1,.36-.35l4.17,0a.35.35,0,0,1,.35.36A.36.36,0,0,1,438.83,504.38Z"/><path class="cls-3" d="M438.81,499.82a.33.33,0,0,1-.26.11l-4.16-.06a.34.34,0,0,1-.35-.36.36.36,0,0,1,.36-.36l4.16.06a.36.36,0,0,1,.36.36A.33.33,0,0,1,438.81,499.82Z"/><path class="cls-3" d="M439.15,490.73a.36.36,0,0,1-.26.11l-4.17-.06a.36.36,0,0,1,0-.72l4.17.06a.34.34,0,0,1,.35.36A.36.36,0,0,1,439.15,490.73Z"/><path class="cls-3" d="M439.13,486.17a.3.3,0,0,1-.26.1l-4.16,0a.36.36,0,0,1-.36-.36.37.37,0,0,1,.37-.36l4.16.05a.37.37,0,0,1,.36.37A.34.34,0,0,1,439.13,486.17Z"/><path class="cls-3" d="M439.12,481.61a.4.4,0,0,1-.26.1l-4.17,0a.36.36,0,0,1,0-.72l4.17.05a.35.35,0,0,1,.35.37A.39.39,0,0,1,439.12,481.61Z"/><path class="cls-3" d="M438.73,581.37a.4.4,0,0,1-.26.1l-4.17-.05a.36.36,0,0,1-.35-.37.35.35,0,0,1,.36-.35l4.17,0a.36.36,0,0,1,.35.37A.39.39,0,0,1,438.73,581.37Z"/><path class="cls-3" d="M442.25,567.61a.34.34,0,0,1-.25.11l-7.73.07a.37.37,0,0,1-.37-.36.36.36,0,0,1,.36-.36L442,567a.36.36,0,0,1,.36.35A.36.36,0,0,1,442.25,567.61Z"/><path class="cls-3" d="M438.71,576.8a.35.35,0,0,1-.26.11l-4.16,0a.37.37,0,0,1-.36-.37.36.36,0,0,1,.37-.35l4.16.05a.36.36,0,0,1,.36.36A.33.33,0,0,1,438.71,576.8Z"/><path class="cls-3" d="M438.7,572.24a.36.36,0,0,1-.26.11l-4.17-.06a.36.36,0,0,1-.35-.36.36.36,0,0,1,.36-.36l4.17.06a.34.34,0,0,1,.35.36A.36.36,0,0,1,438.7,572.24Z"/><path class="cls-3" d="M439,563.15a.35.35,0,0,1-.26.11l-4.16-.06a.36.36,0,0,1-.36-.36.37.37,0,0,1,.37-.36l4.16.06a.36.36,0,0,1,.36.36A.33.33,0,0,1,439,563.15Z"/><path class="cls-3" d="M439,558.59a.32.32,0,0,1-.26.1l-4.17-.05a.35.35,0,0,1-.35-.36.36.36,0,0,1,.36-.36l4.17.05a.37.37,0,0,1,.35.37A.37.37,0,0,1,439,558.59Z"/><path class="cls-3" d="M439,554a.38.38,0,0,1-.26.1l-4.16,0a.36.36,0,0,1-.36-.36.37.37,0,0,1,.37-.36l4.16,0a.37.37,0,0,1,.36.37A.36.36,0,0,1,439,554Z"/><path class="cls-3" d="M456,666.13a.36.36,0,0,1-.51,0l-3.2-3.18a.36.36,0,0,1,.51-.51l3.2,3.18A.36.36,0,0,1,456,666.13Z"/><path class="cls-3" d="M686.5,465.48a.35.35,0,0,1-.26.11.36.36,0,0,1-.35-.37l.25-9a.36.36,0,0,1,.37-.35.35.35,0,0,1,.35.37l-.25,9A.41.41,0,0,1,686.5,465.48Z"/><path class="cls-3" d="M688.58,448.39v.69L686.23,454H685.1l2.35-4.73v0h-2.64v-.88Z"/><path class="cls-3" d="M650.22,465.36a.35.35,0,0,1-.26.1.36.36,0,0,1-.36-.36l.11-8.84a.35.35,0,0,1,.36-.35.34.34,0,0,1,.35.36l-.1,8.84A.37.37,0,0,1,650.22,465.36Z"/><path class="cls-3" d="M651.85,448.88a3.64,3.64,0,0,0-.54,0,2,2,0,0,0-1.88,1.65h0a1.58,1.58,0,0,1,1.26-.55,1.68,1.68,0,0,1,1.72,1.82,1.94,1.94,0,0,1-2,2,2.13,2.13,0,0,1-2.12-2.41,3.41,3.41,0,0,1,1-2.52,3.23,3.23,0,0,1,2-.84,2.54,2.54,0,0,1,.53,0Zm-.49,3a1,1,0,0,0-1-1.12,1.05,1.05,0,0,0-.91.59.74.74,0,0,0-.07.33c0,.75.38,1.35,1.06,1.35S651.37,452.57,651.36,451.9Z"/><path class="cls-3" d="M682.19,465.55a.36.36,0,0,1-.26.11.37.37,0,0,1-.36-.37l.06-4.16a.36.36,0,0,1,.36-.36.37.37,0,0,1,.36.37l-.06,4.16A.36.36,0,0,1,682.19,465.55Z"/><path class="cls-3" d="M668.56,465.59a.36.36,0,0,1-.62-.25l-.07-7.73a.36.36,0,0,1,.36-.36.36.36,0,0,1,.36.36l.07,7.73A.36.36,0,0,1,668.56,465.59Z"/><path class="cls-3" d="M677.63,465.56a.36.36,0,0,1-.62-.25l0-4.17a.36.36,0,0,1,.37-.35.34.34,0,0,1,.35.36l0,4.17A.35.35,0,0,1,677.63,465.56Z"/><path class="cls-3" d="M673.06,465.58a.35.35,0,0,1-.26.11.37.37,0,0,1-.35-.37l0-4.16a.36.36,0,1,1,.72,0l-.05,4.16A.33.33,0,0,1,673.06,465.58Z"/><path class="cls-3" d="M664,465.24a.35.35,0,0,1-.61-.25l0-4.17a.35.35,0,0,1,.37-.35.36.36,0,0,1,.35.36l0,4.17A.32.32,0,0,1,664,465.24Z"/><path class="cls-3" d="M659.41,465.26a.36.36,0,0,1-.26.11.36.36,0,0,1-.35-.37l.05-4.16a.36.36,0,0,1,.36-.36.37.37,0,0,1,.36.37l-.05,4.16A.41.41,0,0,1,659.41,465.26Z"/><path class="cls-3" d="M654.85,465.27a.36.36,0,0,1-.26.11.36.36,0,0,1-.36-.36l.06-4.17a.34.34,0,0,1,.36-.35.36.36,0,0,1,.36.36L655,465A.35.35,0,0,1,654.85,465.27Z"/><path class="cls-3" d="M614.54,465.37a.35.35,0,0,1-.26.11.35.35,0,0,1-.35-.37l.25-9a.36.36,0,0,1,.37-.35.35.35,0,0,1,.35.37l-.25,9A.38.38,0,0,1,614.54,465.37Z"/><path class="cls-3" d="M616.51,449.08h-2.17l-.16,1.12a2.79,2.79,0,0,1,1.78.33,1.62,1.62,0,0,1,.74,1.42,2.06,2.06,0,0,1-2.27,2,3.11,3.11,0,0,1-1.48-.33l.21-.8a2.82,2.82,0,0,0,1.24.29,1.09,1.09,0,0,0,1.21-1c0-.64-.48-1.07-1.6-1.06a5.51,5.51,0,0,0-.77.05l.36-2.83h2.9Z"/><path class="cls-3" d="M578.26,465.25a.36.36,0,0,1-.26.11.37.37,0,0,1-.36-.37l.11-8.84a.36.36,0,0,1,.72,0l-.11,8.84A.36.36,0,0,1,578.26,465.25Z"/><path class="cls-3" d="M578.86,453.65v-1.42h-2.54v-.69l2.28-3.51h1.25l0,3.39h.72v.8h-.73v1.43Zm0-2.23v-1.53c0-.32,0-.64,0-1h0c-.18.35-.32.64-.49.95l-1,1.54v0Z"/><path class="cls-3" d="M610.23,465.44a.36.36,0,0,1-.26.11.37.37,0,0,1-.36-.37l.06-4.16a.36.36,0,0,1,.36-.36.37.37,0,0,1,.36.37l-.06,4.16A.36.36,0,0,1,610.23,465.44Z"/><path class="cls-3" d="M596.6,465.49a.4.4,0,0,1-.26.1.36.36,0,0,1-.36-.35l-.07-7.73a.37.37,0,0,1,.36-.37.36.36,0,0,1,.36.36l.07,7.73A.4.4,0,0,1,596.6,465.49Z"/><path class="cls-3" d="M605.67,465.46a.4.4,0,0,1-.26.1.36.36,0,0,1-.36-.36l.05-4.17a.37.37,0,0,1,.37-.35.34.34,0,0,1,.35.36l-.05,4.17A.39.39,0,0,1,605.67,465.46Z"/><path class="cls-3" d="M601.1,465.47a.35.35,0,0,1-.26.11.36.36,0,0,1-.35-.37l0-4.16a.37.37,0,0,1,.37-.36.37.37,0,0,1,.35.37l0,4.16A.33.33,0,0,1,601.1,465.47Z"/><path class="cls-3" d="M592,465.14a.34.34,0,0,1-.26.1.35.35,0,0,1-.35-.36l.05-4.16a.37.37,0,0,1,.37-.36.36.36,0,0,1,.35.36l0,4.17A.36.36,0,0,1,592,465.14Z"/><path class="cls-3" d="M587.45,465.15a.36.36,0,0,1-.26.11.35.35,0,0,1-.35-.37l0-4.16a.36.36,0,0,1,.36-.36.37.37,0,0,1,.36.37l-.05,4.16A.41.41,0,0,1,587.45,465.15Z"/><path class="cls-3" d="M582.89,465.17a.4.4,0,0,1-.26.1.36.36,0,0,1-.36-.36l.06-4.17a.36.36,0,0,1,.36-.35.36.36,0,0,1,.36.36l-.06,4.17A.39.39,0,0,1,582.89,465.17Z"/><path class="cls-3" d="M541.72,465.13a.34.34,0,0,1-.26.1.35.35,0,0,1-.35-.37l.25-9a.36.36,0,1,1,.72,0l-.25,9A.38.38,0,0,1,541.72,465.13Z"/><path class="cls-3" d="M540.38,452.57a2.82,2.82,0,0,0,1.28.34c.81,0,1.14-.46,1.13-.9,0-.67-.63-.95-1.27-.95H541v-.78h.48c.49,0,1.11-.23,1.11-.79,0-.38-.29-.7-.9-.69a2.3,2.3,0,0,0-1.15.35l-.25-.76a3,3,0,0,1,1.62-.44c1.16,0,1.75.63,1.76,1.36a1.37,1.37,0,0,1-1,1.32v0a1.43,1.43,0,0,1,1.25,1.4c0,.95-.79,1.7-2.18,1.71a3.08,3.08,0,0,1-1.58-.39Z"/><path class="cls-3" d="M505.44,465a.36.36,0,0,1-.26.11.37.37,0,0,1-.36-.37l.11-8.83a.36.36,0,0,1,.36-.36.37.37,0,0,1,.36.37l-.11,8.83A.36.36,0,0,1,505.44,465Z"/><path class="cls-3" d="M503.75,453.49v-.64l.66-.62c1.32-1.23,1.94-1.91,1.95-2.65a.9.9,0,0,0-1-.94,2,2,0,0,0-1.2.47l-.31-.75a2.79,2.79,0,0,1,1.72-.59,1.67,1.67,0,0,1,1.86,1.7c0,1-.7,1.78-1.68,2.69l-.49.43v0h2.31v.88Z"/><path class="cls-3" d="M537.41,465.19a.36.36,0,0,1-.62-.25l.06-4.17a.34.34,0,0,1,.36-.35.36.36,0,0,1,.36.36l-.06,4.17A.35.35,0,0,1,537.41,465.19Z"/><path class="cls-3" d="M523.78,465.24a.39.39,0,0,1-.25.1.35.35,0,0,1-.37-.35l-.07-7.73a.37.37,0,0,1,.36-.37.36.36,0,0,1,.36.36l.07,7.73A.4.4,0,0,1,523.78,465.24Z"/><path class="cls-3" d="M532.85,465.21a.32.32,0,0,1-.26.1.36.36,0,0,1-.36-.36l0-4.16a.37.37,0,0,1,.37-.36.35.35,0,0,1,.35.37l0,4.16A.37.37,0,0,1,532.85,465.21Z"/><path class="cls-3" d="M528.28,465.22a.33.33,0,0,1-.26.11.36.36,0,0,1-.35-.36l.05-4.17a.36.36,0,0,1,.72,0l-.05,4.16A.33.33,0,0,1,528.28,465.22Z"/><path class="cls-3" d="M519.19,464.89a.33.33,0,0,1-.26.11.37.37,0,0,1-.35-.37l0-4.16a.37.37,0,0,1,.37-.36.36.36,0,0,1,.35.37l-.05,4.16A.33.33,0,0,1,519.19,464.89Z"/><path class="cls-3" d="M514.63,464.9a.35.35,0,0,1-.61-.25l.05-4.17a.35.35,0,0,1,.36-.35.36.36,0,0,1,.36.36l0,4.16A.33.33,0,0,1,514.63,464.9Z"/><path class="cls-3" d="M510.07,464.92a.36.36,0,0,1-.26.11.37.37,0,0,1-.36-.37l.06-4.16a.36.36,0,0,1,.36-.36.37.37,0,0,1,.36.37l-.06,4.16A.36.36,0,0,1,510.07,464.92Z"/><path class="cls-3" d="M501.3,464.55a.38.38,0,0,1-.26.1.34.34,0,0,1-.35-.36l.05-4.17a.36.36,0,0,1,.36-.35.36.36,0,0,1,.36.36l0,4.17A.36.36,0,0,1,501.3,464.55Z"/><path class="cls-3" d="M645.91,465.06a.36.36,0,0,1-.26.11.37.37,0,0,1-.36-.37l.05-4.16a.37.37,0,0,1,.37-.36.35.35,0,0,1,.35.37l0,4.16A.36.36,0,0,1,645.91,465.06Z"/><path class="cls-3" d="M632.27,465.1a.33.33,0,0,1-.25.11.36.36,0,0,1-.36-.36l-.07-7.73a.36.36,0,1,1,.72,0l.07,7.73A.33.33,0,0,1,632.27,465.1Z"/><path class="cls-3" d="M641.34,465.07a.35.35,0,0,1-.61-.25l0-4.17a.35.35,0,0,1,.37-.35.36.36,0,0,1,.35.36l0,4.16A.33.33,0,0,1,641.34,465.07Z"/><path class="cls-3" d="M636.78,465.09a.32.32,0,0,1-.26.1.34.34,0,0,1-.35-.36l.05-4.16a.36.36,0,1,1,.72,0l-.05,4.16A.44.44,0,0,1,636.78,465.09Z"/><path class="cls-3" d="M627.69,464.75a.36.36,0,0,1-.26.11.36.36,0,0,1-.36-.36l.06-4.17a.35.35,0,0,1,.36-.35.36.36,0,0,1,.36.36l-.05,4.17A.41.41,0,0,1,627.69,464.75Z"/><path class="cls-3" d="M623.13,464.77a.36.36,0,0,1-.26.11.37.37,0,0,1-.36-.37l.06-4.16a.36.36,0,0,1,.36-.36.37.37,0,0,1,.36.37l-.06,4.16A.36.36,0,0,1,623.13,464.77Z"/><path class="cls-3" d="M618.57,464.78a.36.36,0,0,1-.62-.25l0-4.17a.36.36,0,0,1,.37-.35.34.34,0,0,1,.35.36l-.05,4.16A.36.36,0,0,1,618.57,464.78Z"/><path class="cls-3" d="M573.79,464.81a.33.33,0,0,1-.26.11.37.37,0,0,1-.35-.37l.05-4.16a.37.37,0,0,1,.37-.36.36.36,0,0,1,.35.37l-.05,4.16A.34.34,0,0,1,573.79,464.81Z"/><path class="cls-3" d="M560.16,464.85a.33.33,0,0,1-.25.11.36.36,0,0,1-.36-.36l-.07-7.73a.36.36,0,0,1,.36-.36.36.36,0,0,1,.36.36l.07,7.73A.33.33,0,0,1,560.16,464.85Z"/><path class="cls-3" d="M569.23,464.82a.35.35,0,0,1-.61-.25l0-4.17a.35.35,0,0,1,.36-.35.36.36,0,0,1,.36.36l0,4.16A.33.33,0,0,1,569.23,464.82Z"/><path class="cls-3" d="M564.67,464.84a.32.32,0,0,1-.26.1.36.36,0,0,1-.36-.36l.06-4.16a.36.36,0,0,1,.36-.36.37.37,0,0,1,.36.37l-.06,4.16A.37.37,0,0,1,564.67,464.84Z"/><path class="cls-3" d="M555.58,464.5a.36.36,0,0,1-.62-.25l.06-4.17a.34.34,0,0,1,.36-.35.36.36,0,0,1,.36.36l-.06,4.17A.35.35,0,0,1,555.58,464.5Z"/><path class="cls-3" d="M551,464.52a.36.36,0,0,1-.26.11.37.37,0,0,1-.36-.37l.06-4.16a.36.36,0,0,1,.36-.36.37.37,0,0,1,.36.37l-.06,4.16A.36.36,0,0,1,551,464.52Z"/><path class="cls-3" d="M546.46,464.53a.36.36,0,0,1-.62-.25l0-4.17a.36.36,0,0,1,.37-.35.34.34,0,0,1,.35.36l-.05,4.16A.36.36,0,0,1,546.46,464.53Z"/><path class="cls-3" d="M480.67,458.27a.33.33,0,0,1-.25.11l-30.1.11a.3.3,0,0,1-.25-.1l-4.75-4.71-1.2,1.21a.36.36,0,0,1-.31.1.33.33,0,0,1-.26-.18l-3.62-6.49a.37.37,0,0,1,.14-.49.35.35,0,0,1,.45.08l6.61,3.27a.35.35,0,0,1,.2.26.38.38,0,0,1-.1.32l-1.4,1.41,4.64,4.6,29.95-.11a.36.36,0,0,1,.36.36A.33.33,0,0,1,480.67,458.27Zm-35.35-5.61,1-1.06-4.22-2.09ZM443.94,454l.87-.87-3-3Z"/><path class="cls-3" d="M453.24,447.64a11.7,11.7,0,0,1,2-.15,3.22,3.22,0,0,1,2.12.57,2,2,0,0,1,.71,1.59,2.11,2.11,0,0,1-.61,1.63,3.13,3.13,0,0,1-2.27.78,4,4,0,0,1-.64,0v2.71h-1.3Zm1.31,3.35a2.8,2.8,0,0,0,.64.05c1,0,1.58-.49,1.57-1.33s-.56-1.23-1.46-1.22a3.84,3.84,0,0,0-.76.06Z"/><path class="cls-3" d="M460.51,447.52l0,7.19h-1.31l0-7.19Z"/><path class="cls-3" d="M463.69,454.69l-2.35-7.17h1.43l1,3.26c.28.9.52,1.75.72,2.62h0c.19-.85.44-1.73.73-2.61l1-3.28h1.39l-2.45,7.2Z"/><path class="cls-3" d="M474.75,451c0,2.41-1.45,3.79-3.43,3.8s-3.31-1.53-3.32-3.64a3.44,3.44,0,0,1,3.4-3.78A3.31,3.31,0,0,1,474.75,451Zm-5.36.13c0,1.46.74,2.62,2,2.62s2-1.19,2-2.69-.68-2.63-2-2.62S469.38,449.63,469.39,451.11Z"/><path class="cls-3" d="M477,448.55h-2v-1.1l5.43,0v1.1h-2.07l0,6.09H477Z"/><path class="cls-3" d="M506.06,742.58a4,4,0,0,1-.94,1.36,3,3,0,0,1-4.53,0,3.18,3.18,0,0,1,0-4.74,3.62,3.62,0,0,1,1.28-.9l.48.83a2.94,2.94,0,0,0-1.05.71,2.1,2.1,0,0,0,.09,3.2,2.07,2.07,0,0,0,3.17,0,3.19,3.19,0,0,0,.72-1Z"/><path class="cls-3" d="M508.37,736c1.51,1.49,1.46,3.25.23,4.48a2.9,2.9,0,0,1-4.32-.2,3,3,0,0,1-.24-4.45A2.91,2.91,0,0,1,508.37,736Zm-3.25,3.41c.91.9,2.09,1.16,2.87.37s.5-2-.44-2.89-2.06-1.21-2.87-.39S504.2,738.44,505.12,739.36Z"/><path class="cls-3" d="M513.29,731.91c-.61-.54-1.34-1.2-1.94-1.81l0,0c.4.69.82,1.47,1.19,2.23l1.29,2.58-.62.63-2.51-1.3c-.74-.39-1.51-.84-2.19-1.27h0c.56.6,1.25,1.33,1.82,2l1.71,1.89-.76.76-4.19-4.74,1.07-1.08,2.39,1.2c.68.37,1.35.75,2,1.13l0,0c-.37-.6-.77-1.3-1.12-2l-1.18-2.4,1.05-1.06,4.74,4.18-.79.8Z"/><path class="cls-3" d="M518.74,726.42c-.6-.55-1.33-1.21-1.93-1.82l0,0c.4.69.82,1.48,1.18,2.24l1.3,2.57-.63.64-2.51-1.31c-.74-.39-1.51-.84-2.19-1.27h0c.57.6,1.25,1.33,1.83,2l1.7,1.89-.76.77-4.18-4.75,1.07-1.08,2.38,1.21c.68.36,1.35.75,2,1.13v0c-.36-.6-.76-1.3-1.12-2l-1.18-2.4,1.06-1.06,4.74,4.19-.8.79Z"/><path class="cls-3" d="M523.93,720.27a3,3,0,0,1,.23,4.49,2.93,2.93,0,0,1-4.33-.2,3,3,0,0,1-.23-4.46A2.91,2.91,0,0,1,523.93,720.27Zm-3.25,3.41c.91.9,2.09,1.16,2.87.38s.49-2-.45-2.89-2.05-1.21-2.86-.4S519.75,722.76,520.68,723.68Z"/><path class="cls-3" d="M526.91,721.84l-4.48-4.45.93-.93,3.07.75a17.61,17.61,0,0,1,2.26.72h0c-.65-.54-1.25-1.09-1.93-1.77l-1.57-1.55.76-.76,4.48,4.45-.84.84-3.13-.78a22.17,22.17,0,0,1-2.35-.74v0c.61.54,1.21,1.12,1.95,1.85l1.6,1.59Z"/><path class="cls-3" d="M514.82,716.3a3.91,3.91,0,0,1-.94,1.35,3,3,0,0,1-4.53.05,3.18,3.18,0,0,1,0-4.74,3.79,3.79,0,0,1,1.28-.89l.48.83a3,3,0,0,0-1.05.7,2.12,2.12,0,0,0,.09,3.21,2.08,2.08,0,0,0,3.17,0,3.22,3.22,0,0,0,.72-1.06Z"/><path class="cls-3" d="M512,710.48l2.62,2.59c.87.87,1.64.91,2.19.35s.53-1.34-.35-2.21l-2.61-2.59.81-.82,2.56,2.54c1.38,1.37,1.29,2.69.22,3.76s-2.27,1.14-3.68-.26l-2.57-2.55Z"/><path class="cls-3" d="M517.1,706.68,515.83,708l-.68-.68,3.35-3.38.69.68-1.28,1.28,3.79,3.77-.81.82Z"/><path class="cls-3" d="M522.54,707a3.29,3.29,0,0,0,1.36-.8c.52-.53.57-1.07.2-1.43s-.76-.31-1.53.06c-1,.47-1.86.56-2.51-.08a2,2,0,0,1,.28-2.86,3.39,3.39,0,0,1,1.3-.86l.46.86a2.62,2.62,0,0,0-1.1.68c-.51.51-.46,1-.2,1.27s.76.25,1.59-.12c1.06-.49,1.83-.48,2.48.16s.8,1.88-.35,3a3.77,3.77,0,0,1-1.48.93Z"/><path class="cls-3" d="M511.7,696.48l-1.27,1.27-.69-.68,3.36-3.38.69.68-1.28,1.29,3.79,3.76-.81.82Z"/><path class="cls-3" d="M519.58,691.55a3,3,0,0,1,.22,4.49,2.92,2.92,0,0,1-4.32-.2,3,3,0,0,1-.24-4.46A2.92,2.92,0,0,1,519.58,691.55ZM516.32,695c.91.9,2.09,1.16,2.87.38s.5-2-.44-2.89-2.06-1.21-2.87-.39S515.4,694,516.32,695Z"/><path class="cls-3" d="M518.14,688.73a9.7,9.7,0,0,1,1.15-1.34,2.83,2.83,0,0,1,1.68-1,1.79,1.79,0,0,1,1.42.54,1.91,1.91,0,0,1,.64,1.4,2.82,2.82,0,0,1-.93,1.89,4.12,4.12,0,0,1-.42.37l1.69,1.67-.81.82ZM521,690a1.89,1.89,0,0,0,.43-.37c.61-.61.68-1.28.15-1.8s-1.1-.41-1.66.15a2.66,2.66,0,0,0-.43.52Z"/><path class="cls-3" d="M510.18,679.92,512,681.7l1.88-1.9L512.06,678l.81-.82,4.48,4.45-.81.82-2-2-1.88,1.89,2,2-.81.82-4.48-4.45Z"/><path class="cls-3" d="M514.61,675.45l4.48,4.44-.81.82-4.48-4.44Z"/><path class="cls-3" d="M515.6,674.57a10.32,10.32,0,0,1,1.15-1.34,2.83,2.83,0,0,1,1.68-1,1.79,1.79,0,0,1,1.42.54,1.91,1.91,0,0,1,.64,1.4,2.82,2.82,0,0,1-.93,1.89,4.12,4.12,0,0,1-.42.37l1.69,1.68L520,679Zm2.89,1.26a1.89,1.89,0,0,0,.43-.37c.61-.61.68-1.28.15-1.8s-1.1-.41-1.67.16a2.6,2.6,0,0,0-.42.51Z"/><path class="cls-3" d="M523,671.88l.56.56-1.68,1.7-.57-.57Z"/><path class="cls-3" d="M526.58,672.35l-5.92-3,.88-.89,2.64,1.41c.74.39,1.41.76,2.07,1.18h0c-.42-.65-.8-1.35-1.17-2.07l-1.4-2.68.86-.87,3,6Z"/><path class="cls-3" d="M528.78,667.59l.89,1.64-.84.85-3.05-5.89,1-1,5.93,3-.87.88-1.68-.86Zm.66-1.9L528,665c-.35-.19-.73-.42-1.06-.61v0c.19.32.44.7.63,1l.76,1.44Z"/><path class="cls-3" d="M528.88,661.07l.81-.82,3.79,3.77,1.83-1.84.69.68-2.64,2.66Z"/><path class="cls-3" d="M442.08,859.48a.36.36,0,0,1-.26.11l-7.72.07a.37.37,0,0,1-.37-.36.36.36,0,0,1,.36-.36l7.73-.07a.36.36,0,0,1,.26.61Z"/><path class="cls-3" d="M438.53,864.11a.36.36,0,0,1-.26.11l-4.17-.05a.36.36,0,0,1-.35-.37.34.34,0,0,1,.36-.35l4.17,0a.36.36,0,0,1,.35.36A.36.36,0,0,1,438.53,864.11Z"/><path class="cls-3" d="M438.86,855a.36.36,0,0,1-.26.11l-4.16,0a.37.37,0,0,1-.36-.37.35.35,0,0,1,.37-.35l4.16,0a.35.35,0,0,1,.35.36A.36.36,0,0,1,438.86,855Z"/><path class="cls-3" d="M438.85,850.46a.36.36,0,0,1-.26.11l-4.17-.06a.34.34,0,0,1-.35-.36.36.36,0,0,1,.36-.36l4.16.06a.36.36,0,0,1,.26.61Z"/><path class="cls-3" d="M438.83,845.9a.36.36,0,0,1-.26.11l-4.16-.06a.36.36,0,0,1-.36-.36.37.37,0,0,1,.37-.36l4.16.06a.36.36,0,0,1,.36.36A.44.44,0,0,1,438.83,845.9Z"/><path class="cls-3" d="M450.2,797.94c2.41,0,3.92.93,3.93,2.71s-1.56,2.66-3.84,2.68-3.9-1-3.9-2.73S448,798,450.2,797.94Zm.09,4c1.82,0,2.76-.5,2.76-1.29s-1-1.26-2.82-1.25-2.76.42-2.76,1.27S448.41,801.92,450.29,801.9Z"/><path class="cls-3" d="M447.73,806.31v0l.7,1.36-1.07.25-.91-1.82V805l7.48,0v1.37Z"/><path class="cls-3" d="M468.63,804.75a14.93,14.93,0,0,1,1.48-1.72,4.75,4.75,0,0,1,2.87-1.62,3.49,3.49,0,0,1,2.88,1.16,4,4,0,0,1,1.34,3,5.17,5.17,0,0,1-1.72,3.24,15.64,15.64,0,0,1-1.42,1.28Zm5.67,3.63a4.43,4.43,0,0,0,.58-.53,2.66,2.66,0,0,0,0-4.18,2.47,2.47,0,0,0-3.86.05,4.21,4.21,0,0,0-.62.75Z"/><path class="cls-3" d="M480.23,799.05l-2.06,2.08,1.62,1.61,2.31-2.33.82.82-3.3,3.33-5.52-5.47,3.19-3.21.82.82-2.18,2.2,1.42,1.42,2.06-2.08Z"/><path class="cls-3" d="M487.93,795.68a7.67,7.67,0,0,1-1.45,2.08,4.17,4.17,0,0,1-2.88,1.43,3.85,3.85,0,0,1-2.79-1.24c-1.75-1.73-1.63-4.09.18-5.91a5.15,5.15,0,0,1,1.71-1.21l.59,1a4.17,4.17,0,0,0-1.48,1,2.6,2.6,0,0,0,0,4,2.81,2.81,0,0,0,4.54-.81L485,794.67l-1,1-.79-.78,1.93-2Z"/><path class="cls-3" d="M483.76,789.5a13.43,13.43,0,0,1,1.4-1.64,3.61,3.61,0,0,1,2.13-1.26,2,2,0,0,1,1.58.62,2.08,2.08,0,0,1,.39,2.37l0,0a2,2,0,0,1,1.83.28,16.23,16.23,0,0,0,2,1.1l-1,1a11.51,11.51,0,0,1-1.67-.93c-.87-.56-1.36-.52-1.95,0l-.5.51,2.27,2.25-1,1Zm3.43,1.42.6-.6a1.34,1.34,0,0,0,.18-2c-.6-.6-1.3-.45-2,.2a4,4,0,0,0-.57.67Z"/><path class="cls-3" d="M494.44,784.73l-2.06,2.08,1.62,1.61,2.3-2.33.83.82-3.31,3.33-5.51-5.47,3.18-3.21.83.82-2.19,2.2,1.43,1.42,2.06-2.08Z"/><path class="cls-3" d="M498.62,780.52l-2.06,2.08,1.62,1.6,2.3-2.32.83.82L498,786l-5.52-5.47,3.18-3.21.83.82-2.19,2.2,1.43,1.41,2.06-2.08Z"/><path class="cls-3" d="M501.07,780.75a4,4,0,0,0,1.67-1c.64-.65.7-1.31.25-1.75s-.94-.38-1.89.07c-1.23.58-2.29.68-3.09-.1s-.84-2.33.35-3.53a4.06,4.06,0,0,1,1.59-1.05l.57,1.05a3.25,3.25,0,0,0-1.35.84c-.63.64-.57,1.26-.25,1.57s.94.3,2-.15c1.31-.6,2.25-.59,3.05.2s1,2.31-.43,3.73a4.43,4.43,0,0,1-1.82,1.15Z"/><path class="cls-3" d="M513.43,531.24l0,0-1.07,3.28-2.09-1.31,1.45-4.33,1.88-1.9,12,11.87-2.17,2.19Z"/><path class="cls-3" d="M529.61,534.77l-1.38-1.37.1-2.71c.18-5.41.06-8.16-1.5-9.75-1.07-1.06-2.57-1.42-4.13.14a6.12,6.12,0,0,0-1.54,3.55l-2.26-.93a8.32,8.32,0,0,1,2.42-4.9c2.63-2.65,5.58-2.28,7.53-.35,2.1,2.09,2.3,5.28,2.17,9.27l-.14,1.95,0,0,4.88-4.91,1.88,1.86Z"/><path class="cls-3" d="M530.75,510.69a1.69,1.69,0,0,1-.06,2.49,1.67,1.67,0,0,1-2.46.05,1.79,1.79,0,0,1,2.52-2.54Zm9.07,13.79-9-8.89,2.26-2.29,9,8.9Z"/><path class="cls-3" d="M538.2,513.52c-1-1-1.91-1.86-2.74-2.57l2-2,1.45,1.22.05-.05a4.58,4.58,0,0,1,1.29-4.39c1.55-1.57,4.17-2.18,7,.63l5.32,5.28-2.24,2.26-5.06-5c-1.29-1.28-2.74-1.77-4-.53a2.67,2.67,0,0,0-.42,3.08,3,3,0,0,0,.64.82l5.26,5.23-2.26,2.28Z"/><path class="cls-3" d="M553.42,508.27a1.94,1.94,0,0,1-.06-2.84,2,2,0,0,1,2.9,2.89A2,2,0,0,1,553.42,508.27Z"/><path class="cls-3" d="M554,648.78l-.07.06a.37.37,0,0,1-.5-.12l-5.59-9a.36.36,0,1,1,.62-.38l5.59,9A.36.36,0,0,1,554,648.78Z"/><path class="cls-3" d="M558.64,644.13l-.08.06a.36.36,0,0,1-.49-.14l-3.73-6.91a.37.37,0,0,1,.15-.49.35.35,0,0,1,.48.15l3.73,6.9A.36.36,0,0,1,558.64,644.13Z"/><path class="cls-3" d="M564.35,638.41l-.08.06a.35.35,0,0,1-.49-.14l-3.19-5.57a.36.36,0,1,1,.62-.36l3.2,5.58A.36.36,0,0,1,564.35,638.41Z"/><path class="cls-3" d="M570.59,632.16l-.05,0a.35.35,0,0,1-.5-.07l-6.52-8.9a.36.36,0,0,1,.58-.43l6.52,8.9A.36.36,0,0,1,570.59,632.16Z"/><path class="cls-3" d="M574.57,628.17l-.05,0a.37.37,0,0,1-.5-.09l-4-5.57a.36.36,0,1,1,.59-.42l4,5.57A.38.38,0,0,1,574.57,628.17Z"/><path class="cls-3" d="M577.89,624.84l0,0a.38.38,0,0,1-.51-.08l-3.85-5.18a.36.36,0,1,1,.57-.43l3.86,5.18A.36.36,0,0,1,577.89,624.84Z"/><path class="cls-3" d="M581.87,620.85l0,0a.36.36,0,0,1-.51,0l-4-4.78a.36.36,0,0,1,0-.51.35.35,0,0,1,.51.05l4,4.78A.35.35,0,0,1,581.87,620.85Z"/><path class="cls-3" d="M585.46,617.26h0a.35.35,0,0,1-.51,0l-4-4.51a.36.36,0,0,1,.54-.48l4,4.52A.36.36,0,0,1,585.46,617.26Z"/><path class="cls-3" d="M589.44,613.27h0a.36.36,0,0,1-.51,0L584,608.09a.36.36,0,0,1,0-.51.35.35,0,0,1,.51,0l4.92,5.18A.36.36,0,0,1,589.44,613.27Z"/><path class="cls-3" d="M594,608.75h0a.36.36,0,0,1-.51,0l-7.18-7.7a.34.34,0,0,1,0-.51.34.34,0,0,1,.5,0l7.19,7.7A.36.36,0,0,1,594,608.75Z"/><path class="cls-3" d="M598.6,604.09h0a.36.36,0,0,1-.51,0l-4.53-4.51a.36.36,0,0,1,0-.51h0a.36.36,0,0,1,.51,0l4.52,4.51A.36.36,0,0,1,598.6,604.09Z"/><path class="cls-3" d="M603.77,598.9h0a.36.36,0,0,1-.51,0L599,594.66a.36.36,0,0,1,0-.51h0a.36.36,0,0,1,.51,0l4.26,4.24A.36.36,0,0,1,603.77,598.9Z"/><path class="cls-3" d="M609,593.71a.36.36,0,0,1-.5,0l-7.71-6.9a.36.36,0,0,1,0-.51.35.35,0,0,1,.51,0l7.71,6.9a.36.36,0,0,1,0,.51Z"/><path class="cls-3" d="M614.26,588.39h0a.35.35,0,0,1-.51,0l-4.52-4.51a.36.36,0,0,1,0-.51h0a.36.36,0,0,1,.51,0l4.52,4.51A.36.36,0,0,1,614.26,588.39Z"/><path class="cls-3" d="M620.63,582a.35.35,0,0,1-.48,0l-4.39-3.58a.35.35,0,0,1,0-.51.36.36,0,0,1,.5-.05l4.39,3.59a.34.34,0,0,1,0,.5Z"/><path class="cls-3" d="M626.74,575.89a.37.37,0,0,1-.49,0l-8.77-7.16a.36.36,0,1,1,.45-.56l8.78,7.17a.35.35,0,0,1,0,.5Z"/><path class="cls-3" d="M634,568.57a.36.36,0,0,1-.46,0l-6-4.12a.36.36,0,0,1,.41-.59l6,4.11a.37.37,0,0,1,.09.5Z"/><path class="cls-3" d="M640.81,561.79a.36.36,0,0,1-.45.05l-8.9-5.44a.35.35,0,0,1-.12-.49.36.36,0,0,1,.49-.12l8.91,5.44a.36.36,0,0,1,.12.49Z"/><path class="cls-3" d="M648.9,553.68a.35.35,0,0,1-.43.05l-5.85-3.45a.35.35,0,0,1-.13-.49.36.36,0,0,1,.49-.13l5.85,3.45a.36.36,0,0,1,.13.49Z"/><path class="cls-3" d="M657.27,545.3a.38.38,0,0,1-.42.07L647,540.59a.35.35,0,0,1-.17-.48.37.37,0,0,1,.48-.17l9.84,4.78a.36.36,0,0,1,.17.48A.86.86,0,0,1,657.27,545.3Z"/><path class="cls-3" d="M666.56,536a.37.37,0,0,1-.41.08l-10.76-4.91a.36.36,0,0,1,.29-.65l10.77,4.9a.37.37,0,0,1,.18.48A.36.36,0,0,1,666.56,536Z"/><path class="cls-3" d="M676.78,525.74a.34.34,0,0,1-.37.09l-10.9-3.71a.36.36,0,1,1,.23-.68l10.9,3.71a.35.35,0,0,1,.22.45A.25.25,0,0,1,676.78,525.74Z"/><path class="cls-3" d="M687.53,515a.36.36,0,0,1-.36.09l-10.9-3.45a.36.36,0,1,1,.21-.68l10.9,3.44a.36.36,0,0,1,.24.45A.38.38,0,0,1,687.53,515Z"/><path class="cls-3" d="M699.74,502.73a.35.35,0,0,1-.34.1l-12-2.92a.36.36,0,0,1,.17-.69l12,2.91a.35.35,0,0,1,.27.43A.37.37,0,0,1,699.74,502.73Z"/><path class="cls-3" d="M713.42,489a.37.37,0,0,1-.32.1l-13.16-2.25a.35.35,0,0,1-.29-.41.36.36,0,0,1,.41-.3l13.16,2.25a.36.36,0,0,1,.3.42A.44.44,0,0,1,713.42,489Z"/><path class="cls-3" d="M727.88,474.53a.32.32,0,0,1-.3.1l-13.82-1.84a.36.36,0,0,1-.31-.41.37.37,0,0,1,.4-.31l13.83,1.85a.37.37,0,0,1,.31.4A.33.33,0,0,1,727.88,474.53Z"/><path class="cls-3" d="M744.48,457.9a.39.39,0,0,1-.28.11l-15.15-.78a.37.37,0,0,1-.34-.38.36.36,0,0,1,.38-.34l15.15.78a.36.36,0,0,1,.34.38A.33.33,0,0,1,744.48,457.9Z"/><path class="cls-3" d="M777.66,466.19a.38.38,0,0,1-.23.11l-11.71.55a.36.36,0,0,1-.38-.34.37.37,0,0,1,.34-.38l11.71-.55a.36.36,0,0,1,.38.34A.39.39,0,0,1,777.66,466.19Z"/><path class="cls-3" d="M752.91,491.13a.35.35,0,0,1-.26.11L741.73,491a.37.37,0,0,1-.35-.37.36.36,0,0,1,.37-.35l10.92.24a.37.37,0,0,1,.35.37A.32.32,0,0,1,752.91,491.13Z"/><path class="cls-3" d="M731.12,512.66a.35.35,0,0,1-.3.11l-9.51-1.23a.36.36,0,0,1,.1-.72l9.5,1.23a.36.36,0,0,1,.31.41A.3.3,0,0,1,731.12,512.66Z"/><path class="cls-3" d="M713.07,531.29a.38.38,0,0,1-.33.1l-9.19-2a.36.36,0,0,1-.28-.43.35.35,0,0,1,.43-.27l9.19,2a.36.36,0,0,1,.28.43A.4.4,0,0,1,713.07,531.29Z"/><path class="cls-3" d="M696.31,547.75a.35.35,0,0,1-.37.08l-8.05-2.69a.36.36,0,1,1,.23-.68l8,2.69a.37.37,0,0,1,.23.46A.42.42,0,0,1,696.31,547.75Z"/><path class="cls-3" d="M681.75,562.42a.33.33,0,0,1-.38.08l-7.79-3a.35.35,0,0,1-.21-.46.36.36,0,0,1,.47-.21l7.78,3a.35.35,0,0,1,.21.46A.29.29,0,0,1,681.75,562.42Z"/><path class="cls-3" d="M668.89,575.6a.37.37,0,0,1-.42.07l-7.24-3.74a.36.36,0,0,1-.15-.48.36.36,0,0,1,.48-.16L668.8,575a.35.35,0,0,1,.15.48S668.91,575.57,668.89,575.6Z"/><path class="cls-3" d="M657.11,587.47a.35.35,0,0,1-.44.06l-6.84-4.14a.36.36,0,0,1-.12-.49.35.35,0,0,1,.49-.13l6.84,4.14a.37.37,0,0,1,.12.5Z"/><path class="cls-3" d="M644.37,597.07a.37.37,0,0,1-.48,0l-4.29-3.47a.35.35,0,0,1-.06-.5.37.37,0,0,1,.51-.06l4.29,3.47a.35.35,0,0,1,0,.5Z"/><path class="cls-3" d="M637,608.58a.37.37,0,0,1-.49,0l-6.47-5.36a.36.36,0,0,1-.05-.51.36.36,0,0,1,.51-.05l6.47,5.37a.36.36,0,0,1,0,.5Z"/><path class="cls-3" d="M626.24,615.34a.36.36,0,0,1-.5,0l-4-3.73a.37.37,0,0,1,0-.51.35.35,0,0,1,.51,0l4,3.73a.35.35,0,0,1,0,.51Z"/><path class="cls-3" d="M620.32,625.63a.36.36,0,0,1-.51,0l-6-6a.36.36,0,0,1,.51-.51l6.05,6A.36.36,0,0,1,620.32,625.63Z"/><path class="cls-3" d="M611,631.17h0a.36.36,0,0,1-.51,0l-4-4.21a.36.36,0,0,1,0-.5h0a.36.36,0,0,1,.51,0l4,4.21A.36.36,0,0,1,611,631.17Z"/><path class="cls-3" d="M604,637.51h0a.35.35,0,0,1-.5,0l-3.66-3.89a.36.36,0,0,1,0-.51.35.35,0,0,1,.51,0L604,637A.36.36,0,0,1,604,637.51Z"/><path class="cls-3" d="M600.16,646.38h0a.36.36,0,0,1-.51,0l-6-6.49a.37.37,0,0,1,0-.51.35.35,0,0,1,.51,0l6,6.49A.36.36,0,0,1,600.16,646.38Z"/><path class="cls-3" d="M591.74,649.68l0,0a.35.35,0,0,1-.5-.09l-3-4.31a.36.36,0,0,1,.09-.5.35.35,0,0,1,.5.09l3,4.31A.36.36,0,0,1,591.74,649.68Z"/><path class="cls-3" d="M586.53,655.36a.16.16,0,0,1-.08.06.36.36,0,0,1-.49-.13l-2.83-4.93a.36.36,0,0,1,.62-.36l2.83,4.93A.35.35,0,0,1,586.53,655.36Z"/><path class="cls-3" d="M583,663.24a.27.27,0,0,1-.08.07.37.37,0,0,1-.49-.14l-4.33-7.74a.36.36,0,0,1,.62-.36l4.34,7.75A.35.35,0,0,1,583,663.24Z"/><path class="cls-3" d="M572.32,670.12l-.08,0a.35.35,0,0,1-.49-.12l-3-5.14a.37.37,0,0,1,.13-.5.36.36,0,0,1,.49.13l3,5.14A.36.36,0,0,1,572.32,670.12Z"/><path class="cls-3" d="M564.75,678l-.1.07a.35.35,0,0,1-.48-.16l-2.76-5.65a.37.37,0,0,1,.16-.49.38.38,0,0,1,.49.17l2.76,5.65A.38.38,0,0,1,564.75,678Z"/><path class="cls-3" d="M558.14,688.08a.38.38,0,0,1-.13.09.38.38,0,0,1-.47-.22l-3.16-8.7a.36.36,0,0,1,.21-.46.37.37,0,0,1,.47.21l3.16,8.71A.36.36,0,0,1,558.14,688.08Z"/><path class="cls-3" d="M550.77,691.62a.38.38,0,0,1-.13.09.38.38,0,0,1-.47-.22L548,685.66a.36.36,0,0,1,.21-.47.36.36,0,0,1,.46.22l2.15,5.83A.37.37,0,0,1,550.77,691.62Z"/><path class="cls-3" d="M545.4,697.68a.5.5,0,0,1-.12.08.37.37,0,0,1-.47-.2l-2.47-6.16a.36.36,0,0,1,.2-.47.37.37,0,0,1,.47.2l2.47,6.16A.37.37,0,0,1,545.4,697.68Z"/><path class="cls-3" d="M540.62,706.17A.36.36,0,0,1,540,706l-2.45-9.85a.36.36,0,0,1,.26-.44.37.37,0,0,1,.44.26l2.45,9.85A.37.37,0,0,1,540.62,706.17Z"/><path class="cls-3" d="M443,868a.34.34,0,0,1-.27.1.35.35,0,0,1-.35-.37l.24-6.11a.37.37,0,0,1,.38-.35.36.36,0,0,1,.34.37l-.24,6.12A.35.35,0,0,1,443,868Z"/><path class="cls-3" d="M450.84,860.11a.37.37,0,0,1-.25.1.36.36,0,0,1-.37-.34l-.45-12.09a.37.37,0,0,1,.35-.38.35.35,0,0,1,.37.35l.45,12.09A.43.43,0,0,1,450.84,860.11Z"/><path class="cls-3" d="M456.92,854a.38.38,0,0,1-.23.11.36.36,0,0,1-.38-.34l-.72-12.89a.37.37,0,0,1,.34-.38.36.36,0,0,1,.38.34L457,853.7A.39.39,0,0,1,456.92,854Z"/><path class="cls-3" d="M463.94,846.9a.38.38,0,0,1-.23.11.37.37,0,0,1-.39-.33l-.55-6.91a.36.36,0,0,1,.33-.39.35.35,0,0,1,.38.33l.56,6.91A.35.35,0,0,1,463.94,846.9Z"/><path class="cls-3" d="M470.42,840.36a.33.33,0,0,1-.22.11.36.36,0,0,1-.39-.33l-1.4-18.07a.36.36,0,0,1,.33-.39.37.37,0,0,1,.39.34l1.4,18.06A.33.33,0,0,1,470.42,840.36Z"/><path class="cls-3" d="M476.51,834.23a.38.38,0,0,1-.22.1.36.36,0,0,1-.39-.32l-.69-6.77a.36.36,0,1,1,.71-.08l.7,6.78A.36.36,0,0,1,476.51,834.23Z"/><path class="cls-3" d="M483.4,827.29a.39.39,0,0,1-.22.11.37.37,0,0,1-.4-.33l-1.1-11.15a.36.36,0,1,1,.71-.08L483.5,827A.37.37,0,0,1,483.4,827.29Z"/><path class="cls-3" d="M489.09,821.56a.41.41,0,0,1-.21.1.36.36,0,0,1-.41-.31L487,810.59a.35.35,0,0,1,.31-.4.35.35,0,0,1,.4.3l1.51,10.76A.42.42,0,0,1,489.09,821.56Z"/><path class="cls-3" d="M495.44,815.15a.36.36,0,0,1-.61-.19l-.95-5.18a.35.35,0,0,1,.29-.41.36.36,0,0,1,.42.28l1,5.18A.37.37,0,0,1,495.44,815.15Z"/><path class="cls-3" d="M500.6,810a.35.35,0,0,1-.19.1.37.37,0,0,1-.42-.29l-2.58-15a.36.36,0,0,1,.29-.41.36.36,0,0,1,.42.29l2.58,15A.37.37,0,0,1,500.6,810Z"/><path class="cls-3" d="M506.43,804.08a.35.35,0,0,1-.2.1.36.36,0,0,1-.41-.29l-1.09-6.38a.36.36,0,0,1,.71-.12l1.09,6.38A.35.35,0,0,1,506.43,804.08Z"/><path class="cls-3" d="M511.72,798.74a.32.32,0,0,1-.18.1.36.36,0,0,1-.43-.28l-2.3-11a.36.36,0,0,1,.71-.14l2.3,11A.37.37,0,0,1,511.72,798.74Z"/><path class="cls-3" d="M517.15,793.28a.44.44,0,0,1-.19.1.37.37,0,0,1-.42-.29l-2-10.76a.37.37,0,0,1,.29-.42.36.36,0,0,1,.42.29l2,10.75A.39.39,0,0,1,517.15,793.28Z"/><path class="cls-3" d="M522.31,788.07a.42.42,0,0,1-.17.1.38.38,0,0,1-.44-.27l-1.35-5.84a.36.36,0,0,1,.27-.43.35.35,0,0,1,.43.27l1.36,5.84A.39.39,0,0,1,522.31,788.07Z"/><path class="cls-3" d="M527.47,782.87a.32.32,0,0,1-.16.09.35.35,0,0,1-.44-.25l-4.18-15.53a.36.36,0,1,1,.69-.19l4.18,15.53A.35.35,0,0,1,527.47,782.87Z"/><path class="cls-3" d="M532.37,777.93a.31.31,0,0,1-.15.1.37.37,0,0,1-.45-.24L530,772.08a.36.36,0,1,1,.69-.21l1.75,5.71A.35.35,0,0,1,532.37,777.93Z"/><path class="cls-3" d="M537.13,773.13a.42.42,0,0,1-.14.09.37.37,0,0,1-.46-.23l-3.36-10.75a.36.36,0,1,1,.69-.22l3.36,10.75A.36.36,0,0,1,537.13,773.13Z"/><path class="cls-3" d="M542.3,767.93a.38.38,0,0,1-.15.09.36.36,0,0,1-.45-.23l-3-9.29A.37.37,0,0,1,539,758a.36.36,0,0,1,.45.24l3,9.29A.34.34,0,0,1,542.3,767.93Z"/><path class="cls-3" d="M546.66,763.53a.38.38,0,0,1-.15.09.36.36,0,0,1-.45-.24l-1.75-6a.36.36,0,0,1,.25-.44.35.35,0,0,1,.44.24l1.75,6A.36.36,0,0,1,546.66,763.53Z"/><path class="cls-3" d="M556.06,754.06a.57.57,0,0,1-.13.08.35.35,0,0,1-.46-.22l-2.15-6.1a.36.36,0,0,1,.22-.46.36.36,0,0,1,.46.22l2.15,6.1A.38.38,0,0,1,556.06,754.06Z"/><path class="cls-3" d="M560.43,749.65a.24.24,0,0,1-.15.09.35.35,0,0,1-.45-.23l-3-9.56a.36.36,0,0,1,.69-.21l3,9.55A.36.36,0,0,1,560.43,749.65Z"/><path class="cls-3" d="M564.93,745.12a.57.57,0,0,1-.13.08.35.35,0,0,1-.46-.21l-3.76-9.81a.36.36,0,0,1,.21-.47.35.35,0,0,1,.46.21l3.76,9.82A.36.36,0,0,1,564.93,745.12Z"/><path class="cls-3" d="M563.08,747l-.12.07a.36.36,0,0,1-.47-.18l-5.77-13.4a.38.38,0,0,1,.19-.48.37.37,0,0,1,.48.19l5.76,13.4A.36.36,0,0,1,563.08,747Z"/><path class="cls-3" d="M551.16,759a.15.15,0,0,1-.06,0,.36.36,0,0,1-.45,0l-10.4-10.32a.36.36,0,0,1,.51-.51l9.31,9.23-4.34-12.6a.37.37,0,0,1,.22-.46.37.37,0,0,1,.46.22l4.84,14.07A.36.36,0,0,1,551.16,759Z"/><path class="cls-3" d="M530.09,737.81a.36.36,0,0,1-.51,0L523,731.33a.36.36,0,0,1,.51-.51l6.53,6.48A.35.35,0,0,1,530.09,737.81Z"/><path class="cls-3" d="M504.34,712.53a.36.36,0,0,1-.51,0l-7.47-7.42a.36.36,0,0,1,.51-.51l7.47,7.41A.36.36,0,0,1,504.34,712.53Z"/><path class="cls-3" d="M569.56,740.45l-.1.07a.36.36,0,0,1-.48-.17l-2.14-4.51a.36.36,0,0,1,.17-.48.37.37,0,0,1,.48.17l2.14,4.51A.35.35,0,0,1,569.56,740.45Z"/><path class="cls-3" d="M573.4,736.58l-.11.08a.37.37,0,0,1-.48-.19l-6-14.2a.36.36,0,1,1,.66-.28l6,14.2A.35.35,0,0,1,573.4,736.58Z"/><path class="cls-3" d="M577.9,732.05l-.09.06a.36.36,0,0,1-.48-.15l-2.82-5.44a.35.35,0,0,1,.16-.48.34.34,0,0,1,.48.15l2.82,5.44A.37.37,0,0,1,577.9,732.05Z"/><path class="cls-3" d="M581.87,728a.31.31,0,0,1-.09.07.35.35,0,0,1-.48-.16l-5-9.68A.36.36,0,1,1,577,718l5,9.68A.35.35,0,0,1,581.87,728Z"/><path class="cls-3" d="M586.24,723.64l-.09.07a.36.36,0,0,1-.49-.16L580.84,714a.36.36,0,1,1,.64-.32l4.83,9.55A.35.35,0,0,1,586.24,723.64Z"/><path class="cls-3" d="M590.34,719.51l-.08.06a.37.37,0,0,1-.49-.14L587,714.25a.36.36,0,0,1,.63-.34l2.81,5.17A.36.36,0,0,1,590.34,719.51Z"/><path class="cls-3" d="M594.58,715.24a.18.18,0,0,1-.07,0,.35.35,0,0,1-.49-.12l-7.76-12.72a.36.36,0,1,1,.61-.38l7.76,12.73A.36.36,0,0,1,594.58,715.24Z"/><path class="cls-3" d="M598.55,711.24l0,0a.36.36,0,0,1-.5-.09l-3.07-4.37a.36.36,0,1,1,.58-.42l3.08,4.38A.36.36,0,0,1,598.55,711.24Z"/><path class="cls-3" d="M602.65,707.1l0,0a.35.35,0,0,1-.5-.06l-6.28-7.81a.36.36,0,1,1,.56-.45l6.28,7.81A.37.37,0,0,1,602.65,707.1Z"/><path class="cls-3" d="M606.76,703l0,0a.35.35,0,0,1-.5,0l-6-7.55a.36.36,0,1,1,.56-.45l6,7.55A.37.37,0,0,1,606.76,703Z"/><path class="cls-3" d="M610.46,699.23l0,0a.35.35,0,0,1-.5,0l-3.61-4.1a.37.37,0,0,1,0-.51.36.36,0,0,1,.51,0l3.61,4.11A.37.37,0,0,1,610.46,699.23Z"/><path class="cls-3" d="M614.3,695.36l0,0a.36.36,0,0,1-.5-.08l-8.55-11.39a.36.36,0,1,1,.57-.43l8.55,11.39A.36.36,0,0,1,614.3,695.36Z"/><path class="cls-3" d="M618.27,691.36h0a.35.35,0,0,1-.51,0l-3.47-3.7a.35.35,0,0,1,0-.51.36.36,0,0,1,.51,0l3.47,3.71A.36.36,0,0,1,618.27,691.36Z"/><path class="cls-3" d="M622,687.62l0,0a.36.36,0,0,1-.51,0l-6.4-7.68a.35.35,0,0,1,0-.51.37.37,0,0,1,.51.05l6.41,7.68A.35.35,0,0,1,622,687.62Z"/><path class="cls-3" d="M626,683.62l0,0a.36.36,0,0,1-.51,0l-6.54-7.28a.36.36,0,0,1,.54-.48l6.54,7.28A.36.36,0,0,1,626,683.62Z"/><path class="cls-3" d="M629.39,680.15l0,0a.36.36,0,0,1-.51,0l-3.47-4.24a.36.36,0,1,1,.56-.46l3.47,4.24A.35.35,0,0,1,629.39,680.15Z"/><path class="cls-3" d="M633.1,676.42l0,0a.36.36,0,0,1-.51-.06l-8.95-11a.36.36,0,0,1,.06-.51.36.36,0,0,1,.5.05l9,11A.37.37,0,0,1,633.1,676.42Z"/><path class="cls-3" d="M637.2,672.28h0a.36.36,0,0,1-.51,0l-3.74-4a.37.37,0,0,1,0-.51.36.36,0,0,1,.51,0l3.74,4A.37.37,0,0,1,637.2,672.28Z"/><path class="cls-3" d="M640.64,668.82h0a.34.34,0,0,1-.5,0l-6.81-7a.37.37,0,0,1,0-.51h0a.35.35,0,0,1,.51,0l6.8,7A.36.36,0,0,1,640.64,668.82Z"/><path class="cls-3" d="M644.74,664.68a.36.36,0,0,1-.5,0l-7.34-7a.36.36,0,0,1,0-.51.37.37,0,0,1,.51,0l7.34,7a.37.37,0,0,1,0,.51Z"/><path class="cls-3" d="M648.45,661a.37.37,0,0,1-.5,0l-4.27-4a.36.36,0,0,1,0-.51.35.35,0,0,1,.51,0l4.27,4a.37.37,0,0,1,0,.51Z"/><path class="cls-3" d="M655.73,653.61a.36.36,0,0,1-.51,0L651,649.38a.36.36,0,0,1,0-.51.35.35,0,0,1,.51,0l4.27,4.24A.36.36,0,0,1,655.73,653.61Z"/><path class="cls-3" d="M659.57,649.74a.36.36,0,0,1-.5,0L651.73,643a.36.36,0,0,1,.49-.53l7.34,6.75a.37.37,0,0,1,0,.51Z"/><path class="cls-3" d="M663.14,646.14a.36.36,0,0,1-.5,0l-7.47-6.88a.37.37,0,0,1,0-.51.33.33,0,0,1,.51,0l7.47,6.88a.35.35,0,0,1,0,.51Z"/><path class="cls-3" d="M667,642.27a.36.36,0,0,1-.5,0l-4.27-4a.36.36,0,0,1,0-.51.35.35,0,0,1,.51,0l4.27,4a.37.37,0,0,1,0,.51Z"/><path class="cls-3" d="M670.69,638.54a.37.37,0,0,1-.5,0l-10-9.13a.36.36,0,0,1,0-.51.35.35,0,0,1,.51,0l10,9.13a.35.35,0,0,1,0,.5Z"/><path class="cls-3" d="M674.79,634.4a.36.36,0,0,1-.5,0l-3.6-3.31a.35.35,0,0,1,0-.51.35.35,0,0,1,.51,0l3.6,3.31a.37.37,0,0,1,0,.51Z"/><path class="cls-3" d="M678.63,630.53a.36.36,0,0,1-.48,0l-7.73-6.08a.36.36,0,0,1-.06-.51.36.36,0,0,1,.5-.06l7.73,6.08a.36.36,0,0,1,.06.51Z"/><path class="cls-3" d="M682.46,626.66a.34.34,0,0,1-.46,0l-8.93-6.48a.36.36,0,1,1,.42-.58l8.93,6.48a.35.35,0,0,1,.08.5Z"/><path class="cls-3" d="M686.3,622.79a.35.35,0,0,1-.45.05l-4.66-3a.35.35,0,0,1-.11-.49.36.36,0,0,1,.5-.11l4.66,3a.36.36,0,0,1,.11.5A.12.12,0,0,1,686.3,622.79Z"/><path class="cls-3" d="M690.14,618.93a.35.35,0,0,1-.45,0l-11.6-7.79a.36.36,0,0,1,.41-.6l11.59,7.79a.37.37,0,0,1,.1.5Z"/><path class="cls-3" d="M694.11,614.92a.35.35,0,0,1-.45.05l-4.8-3.17a.36.36,0,1,1,.4-.6l4.8,3.17a.37.37,0,0,1,.1.5Z"/><path class="cls-3" d="M698,611.06a.36.36,0,0,1-.44.05l-8.66-5.42a.36.36,0,0,1-.12-.49.37.37,0,0,1,.5-.12l8.66,5.42a.35.35,0,0,1,.11.49A.18.18,0,0,1,698,611.06Z"/><path class="cls-3" d="M701.79,607.19a.35.35,0,0,1-.45,0l-8.8-5.81a.36.36,0,0,1,.4-.6l8.79,5.81a.36.36,0,0,1,.1.5Z"/><path class="cls-3" d="M706,602.92a.36.36,0,0,1-.43.06l-5.06-2.63a.37.37,0,0,1-.15-.49.36.36,0,0,1,.49-.15l5.06,2.63a.37.37,0,0,1,.15.49Z"/><path class="cls-3" d="M710,598.92a.36.36,0,0,1-.43.06l-13.19-7.26a.37.37,0,0,1-.14-.49.36.36,0,0,1,.49-.14l13.18,7.26a.36.36,0,0,1,.15.49Z"/><path class="cls-3" d="M714.1,594.78a.37.37,0,0,1-.42.07l-6-3a.36.36,0,0,1,.33-.65l6,3a.36.36,0,0,1,.16.48Z"/><path class="cls-3" d="M718.47,590.38a.35.35,0,0,1-.4.07l-10.65-4.74a.35.35,0,0,1-.19-.47.36.36,0,0,1,.48-.19l10.65,4.75a.36.36,0,0,1,.18.47A.41.41,0,0,1,718.47,590.38Z"/><path class="cls-3" d="M722.44,586.38a.36.36,0,0,1-.4.07l-10.65-4.74a.36.36,0,1,1,.29-.66l10.65,4.74a.37.37,0,0,1,.18.48A.41.41,0,0,1,722.44,586.38Z"/><path class="cls-3" d="M726.54,582.24a.35.35,0,0,1-.39.08l-6.53-2.77a.35.35,0,0,1-.19-.47.36.36,0,0,1,.47-.19l6.53,2.77a.36.36,0,0,1,.19.47A.44.44,0,0,1,726.54,582.24Z"/><path class="cls-3" d="M730.64,578.11a.36.36,0,0,1-.4.07l-14.11-6.32a.36.36,0,1,1,.3-.66l14.11,6.32a.37.37,0,0,1,.18.48A.44.44,0,0,1,730.64,578.11Z"/><path class="cls-3" d="M735,573.7a.35.35,0,0,1-.4.08l-5.86-2.64a.36.36,0,0,1-.18-.47.37.37,0,0,1,.48-.18l5.85,2.63a.36.36,0,0,1,.19.48A.39.39,0,0,1,735,573.7Z"/><path class="cls-3" d="M739.38,569.3a.35.35,0,0,1-.39.08l-10.25-4.08a.36.36,0,0,1-.2-.46.37.37,0,0,1,.47-.21l10.25,4.08a.37.37,0,0,1,.2.47A.36.36,0,0,1,739.38,569.3Z"/><path class="cls-3" d="M743.75,564.9a.36.36,0,0,1-.37.09l-10.25-3.55a.36.36,0,0,1-.22-.46.35.35,0,0,1,.45-.22l10.25,3.55a.35.35,0,0,1,.22.45A.32.32,0,0,1,743.75,564.9Z"/><path class="cls-3" d="M741.5,567.17a.37.37,0,0,1-.4.08l-13.58-5.8a.36.36,0,0,1,.29-.66l13.57,5.79a.36.36,0,0,1,.19.48A.26.26,0,0,1,741.5,567.17Z"/><path class="cls-3" d="M748,560.63a.34.34,0,0,1-.37.09l-6.26-2.24a.36.36,0,0,1-.21-.46.36.36,0,0,1,.46-.22l6.25,2.24a.36.36,0,0,1,.22.46A.3.3,0,0,1,748,560.63Z"/><path class="cls-3" d="M752.62,556a.37.37,0,0,1-.39.09l-15-5.66a.35.35,0,0,1-.21-.46.35.35,0,0,1,.46-.21l15,5.65a.37.37,0,0,1,.21.47A.5.5,0,0,1,752.62,556Z"/><path class="cls-3" d="M757.12,551.43a.37.37,0,0,1-.38.08l-6.91-2.36a.37.37,0,0,1-.23-.46.36.36,0,0,1,.46-.22l6.92,2.36a.36.36,0,0,1,.22.46A.64.64,0,0,1,757.12,551.43Z"/><path class="cls-3" d="M762,546.49a.36.36,0,0,1-.36.09l-11-3.54a.36.36,0,1,1,.22-.69l11,3.54a.37.37,0,0,1,.23.46A.42.42,0,0,1,762,546.49Z"/><path class="cls-3" d="M766.91,541.56a.35.35,0,0,1-.35.09l-11.84-3.28a.36.36,0,1,1,.19-.69L766.75,541a.35.35,0,0,1,.25.44A.37.37,0,0,1,766.91,541.56Z"/><path class="cls-3" d="M771.68,536.75a.37.37,0,0,1-.35.1l-7.72-2.1a.36.36,0,0,1-.25-.44.35.35,0,0,1,.44-.25l7.72,2.09a.36.36,0,0,1,.25.44A.35.35,0,0,1,771.68,536.75Z"/><path class="cls-3" d="M776.71,531.68a.39.39,0,0,1-.36.1l-16.49-4.72a.36.36,0,0,1,.19-.7l16.5,4.72a.36.36,0,0,1,.16.6Z"/><path class="cls-3" d="M782.4,526a.37.37,0,0,1-.32.1l-7.45-1.3a.36.36,0,0,1-.29-.42.37.37,0,0,1,.42-.29l7.44,1.3a.36.36,0,0,1,.3.42A.44.44,0,0,1,782.4,526Z"/><path class="cls-3" d="M787.3,521a.37.37,0,0,1-.33.1l-13.16-2.47a.36.36,0,0,1,.13-.71l13.17,2.47a.37.37,0,0,1,.28.43A.38.38,0,0,1,787.3,521Z"/><path class="cls-3" d="M792.72,515.54a.36.36,0,0,1-.31.11l-13.17-2.21A.36.36,0,0,1,779,513a.35.35,0,0,1,.41-.29l13.17,2.2a.37.37,0,0,1,.29.42A.32.32,0,0,1,792.72,515.54Z"/><path class="cls-3" d="M797.62,510.61a.38.38,0,0,1-.33.1l-8.64-1.7a.34.34,0,0,1-.28-.42.35.35,0,0,1,.42-.28l8.64,1.69a.37.37,0,0,1,.29.42A.39.39,0,0,1,797.62,510.61Z"/><path class="cls-3" d="M803.58,504.61a.37.37,0,0,1-.32.1l-18.75-3.25a.36.36,0,0,1,.12-.71L803.38,504a.35.35,0,0,1,.29.41A.37.37,0,0,1,803.58,504.61Z"/><path class="cls-3" d="M808.74,499.4a.33.33,0,0,1-.33.1l-7.31-1.43a.36.36,0,1,1,.14-.71l7.31,1.44a.36.36,0,0,1,.29.42A.4.4,0,0,1,808.74,499.4Z"/><path class="cls-3" d="M815.09,493a.34.34,0,0,1-.3.1l-13.56-1.8a.36.36,0,0,1,.09-.72l13.56,1.81a.36.36,0,0,1,.31.4A.38.38,0,0,1,815.09,493Z"/><path class="cls-3" d="M820.78,487.26a.35.35,0,0,1-.3.11l-14.09-1.81a.36.36,0,0,1,.09-.71l14.09,1.8a.36.36,0,0,1,.31.41A.3.3,0,0,1,820.78,487.26Z"/><path class="cls-3" d="M827.27,480.73a.35.35,0,0,1-.31.1l-8.78-1.29a.37.37,0,0,1-.3-.41.36.36,0,0,1,.41-.31l8.77,1.3a.36.36,0,0,1,.31.41A.38.38,0,0,1,827.27,480.73Z"/><path class="cls-3" d="M833.62,474.32a.33.33,0,0,1-.28.11l-18.87-1.26a.36.36,0,1,1,0-.71l18.87,1.25a.35.35,0,0,1,.33.38A.31.31,0,0,1,833.62,474.32Z"/><path class="cls-3" d="M840.24,467.65a.36.36,0,0,1-.28.11l-9-.5a.36.36,0,0,1-.34-.38.37.37,0,0,1,.38-.34l9,.5a.36.36,0,0,1,.34.38A.33.33,0,0,1,840.24,467.65Z"/><path class="cls-3" d="M847.39,460.45a.39.39,0,0,1-.28.11l-14.75-.88a.36.36,0,0,1-.34-.38.34.34,0,0,1,.38-.33l14.75.87a.36.36,0,0,1,.34.38A.33.33,0,0,1,847.39,460.45Z"/><path class="cls-3" d="M854.53,453.25a.31.31,0,0,1-.26.1L838.46,453a.37.37,0,0,1-.36-.37.36.36,0,0,1,.37-.35l15.82.33a.37.37,0,0,1,.35.37A.34.34,0,0,1,854.53,453.25Z"/><path class="cls-3" d="M861.42,446.31a.39.39,0,0,1-.29.11l-9.71-.9a.36.36,0,1,1,.07-.71l9.7.89a.36.36,0,0,1,.33.39A.41.41,0,0,1,861.42,446.31Z"/><circle class="cls-3" cx="556.21" cy="732.05" r="2.26"/><circle class="cls-3" cx="725.45" cy="559.89" r="2.26"/><path class="cls-3" d="M652.16,657.21a.36.36,0,0,1-.51,0L644,649.67a.36.36,0,0,1-.1-.28l.31-5.26-5.67,6a.38.38,0,0,1-.51,0,.35.35,0,0,1,0-.51l6.35-6.67a.38.38,0,0,1,.4-.08.36.36,0,0,1,.22.35l-.36,6.08,7.48,7.43A.36.36,0,0,1,652.16,657.21Z"/><path class="cls-3" d="M539.31,638.38a3.86,3.86,0,0,0,1.53-.89c.76-.77.63-1.51.21-1.92-.63-.62-1.49-.3-2.1.31l-.46.47-.74-.73.45-.45c.46-.47.84-1.27.3-1.8-.36-.35-.93-.38-1.5.2a3,3,0,0,0-.75,1.42l-1-.49a3.92,3.92,0,0,1,1.11-1.94c1.08-1.1,2.25-1.06,2.94-.37a1.81,1.81,0,0,1,.27,2.21l0,0a1.89,1.89,0,0,1,2.49.15c.9.89.86,2.35-.44,3.67a4.2,4.2,0,0,1-1.85,1.12Z"/><path class="cls-3" d="M545.53,628.8c1.71,1.7,2.12,3.43.86,4.7s-3,.78-4.61-.82-2.07-3.45-.84-4.7S544,627.24,545.53,628.8Zm-2.75,2.86c1.29,1.29,2.32,1.6,2.87,1s.17-1.61-1.1-2.88-2.26-1.65-2.86-1.05S541.44,630.35,542.78,631.66Z"/><path class="cls-3" d="M556.4,623.23l-.62-.61.05-1.21c.08-2.4,0-3.62-.67-4.33a1.19,1.19,0,0,0-1.84.06,2.74,2.74,0,0,0-.68,1.58l-1-.41a3.69,3.69,0,0,1,1.08-2.18,2.22,2.22,0,0,1,3.35-.15c.93.92,1,2.34,1,4.12L557,621v0l2.17-2.19.84.83Z"/><path class="cls-3" d="M563,616.63l-1.35-1.34-2.39,2.4-.65-.65-1.17-5.45,1.18-1.19,3.21,3.18.68-.69.76.76-.68.69,1.35,1.34Zm-2.11-2.1-1.45-1.44c-.3-.3-.61-.61-.89-1l0,0c.18.49.31.9.44,1.36l.49,2.42v0Z"/><path class="cls-3" d="M575,595.64l0,0-.47,1.46-.94-.58.65-1.93.83-.84,5.32,5.27-1,1Z"/><path class="cls-3" d="M580.77,595.93a2.07,2.07,0,0,1-.39-2.37l0,0a1.84,1.84,0,0,1-2-.35,2.25,2.25,0,0,1,.31-3.23c1.14-1.14,2.34-1,3-.33a1.86,1.86,0,0,1,.39,2l0,0a2,2,0,0,1,2.35.32c.95.94.79,2.38-.33,3.52S581.52,596.67,580.77,595.93Zm2.74-2.86c-.54-.53-1.23-.42-2,0a1.38,1.38,0,0,0,.15,1.72,1.19,1.19,0,0,0,1.75,0A1.15,1.15,0,0,0,583.51,593.07Zm-4.23-.89c.44.43,1.06.33,1.7,0a1.22,1.22,0,0,0-.15-1.46,1.08,1.08,0,0,0-1.55,1.5Z"/><path class="cls-3" d="M590,580.59v0l-.48,1.46-.93-.59.64-1.92.84-.85,5.32,5.28-1,1Z"/><path class="cls-3" d="M596,574.33l-2,2,.91,1.21a3.07,3.07,0,0,1,.35-.41,3.29,3.29,0,0,1,1.63-.95,2.15,2.15,0,0,1,2,.64,2.73,2.73,0,0,1-.29,4,4.34,4.34,0,0,1-1.71,1.1l-.56-1a3.85,3.85,0,0,0,1.44-.89A1.46,1.46,0,0,0,598,578c-.61-.61-1.45-.55-2.51.51a6.89,6.89,0,0,0-.67.78l-2.34-3,2.73-2.75Z"/><path class="cls-3" d="M606.36,564.05v0l-.48,1.46-.93-.59.65-1.92.83-.85,5.32,5.28-1,1Z"/><path class="cls-3" d="M613.56,565.62,613,565l0-1.21c.08-2.4,0-3.62-.67-4.33a1.18,1.18,0,0,0-1.83.06,2.69,2.69,0,0,0-.69,1.58l-1-.41a3.71,3.71,0,0,1,1.07-2.18,2.21,2.21,0,0,1,3.35-.15c.93.92,1,2.34,1,4.12l-.06.86,0,0,2.17-2.19.83.83Z"/><path class="cls-3" d="M620.53,549.78h0l-.47,1.46-.94-.58.65-1.93.83-.84,5.33,5.28-1,1Z"/><path class="cls-3" d="M628.76,544.92c1.71,1.7,2.11,3.43.85,4.7s-3,.78-4.6-.82-2.07-3.45-.84-4.7S627.19,543.36,628.76,544.92ZM626,547.78c1.29,1.29,2.32,1.6,2.87,1s.17-1.61-1.11-2.88-2.25-1.65-2.85-1.05S624.67,546.47,626,547.78Z"/><path class="cls-3" d="M639.27,537a2.07,2.07,0,0,1-.39-2.37l0,0a1.83,1.83,0,0,1-2-.36c-.87-.86-.69-2.21.31-3.22s2.34-1,3-.34a1.87,1.87,0,0,1,.39,2l0,0a2,2,0,0,1,2.35.31c.95,1,.79,2.38-.34,3.52S640,537.71,639.27,537Zm2.74-2.85c-.54-.54-1.24-.43-2,0a1.37,1.37,0,0,0,.15,1.71,1.17,1.17,0,0,0,1.74,0A1.13,1.13,0,0,0,642,534.12Zm-4.23-.9c.43.43,1.05.33,1.7,0a1.22,1.22,0,0,0-.15-1.46,1,1,0,0,0-1.51,0A1,1,0,0,0,637.78,533.22Z"/><path class="cls-3" d="M648.48,519.79l.64.64,2.44,6.89-1,1.06-2.25-6.67v0l-2.49,2.51-.83-.83Z"/><path class="cls-3" d="M659,510.64a5.59,5.59,0,0,0-.49.54,2.68,2.68,0,0,0-.22,3.33l0,0a2.11,2.11,0,0,1,.67-1.7,2.26,2.26,0,0,1,3.35.09,2.61,2.61,0,0,1,0,3.76c-1.29,1.29-3,1-4.28-.27a4.56,4.56,0,0,1-1.48-3.29,4.37,4.37,0,0,1,1.09-2.68,5.32,5.32,0,0,1,.49-.52Zm2.38,3.31a1.31,1.31,0,0,0-2-.12,1.38,1.38,0,0,0-.32,1.41,1.12,1.12,0,0,0,.26.38c.72.68,1.63.92,2.27.27A1.33,1.33,0,0,0,661.35,514Z"/><path class="cls-3" d="M669,500.75l-2,2.05.91,1.21a4.06,4.06,0,0,1,.36-.41,3.42,3.42,0,0,1,1.62-1,2.14,2.14,0,0,1,2,.64,2.73,2.73,0,0,1-.29,4,4.22,4.22,0,0,1-1.71,1.1l-.56-1a3.66,3.66,0,0,0,1.44-.89,1.47,1.47,0,0,0,.18-2.12c-.61-.6-1.46-.55-2.51.51a7,7,0,0,0-.68.78l-2.33-3,2.73-2.75Z"/><path class="cls-3" d="M684.27,494.36,682.91,493l-2.38,2.41-.66-.65-1.16-5.46,1.18-1.19,3.21,3.19.68-.69.76.75-.68.69,1.35,1.34Zm-2.12-2.09-1.45-1.44c-.3-.3-.6-.62-.89-.95l0,0c.17.5.31.9.44,1.36l.49,2.42v0Z"/><path class="cls-3" d="M693.54,482.94a3.86,3.86,0,0,0,1.53-.89c.76-.77.64-1.51.21-1.92-.63-.62-1.49-.3-2.09.31l-.47.47-.73-.73.44-.45c.47-.47.84-1.27.31-1.8-.37-.35-.94-.38-1.51.2a3,3,0,0,0-.75,1.42l-1-.49a3.92,3.92,0,0,1,1.11-1.94c1.08-1.1,2.25-1.06,3-.37a1.84,1.84,0,0,1,.27,2.22h0a1.89,1.89,0,0,1,2.49.15c.9.89.86,2.35-.44,3.67a4.15,4.15,0,0,1-1.85,1.12Z"/><path class="cls-3" d="M708.4,470l-.61-.61,0-1.2c.08-2.41,0-3.63-.66-4.34a1.18,1.18,0,0,0-1.84.07,2.77,2.77,0,0,0-.69,1.57l-1-.41a3.69,3.69,0,0,1,1.08-2.18,2.22,2.22,0,0,1,3.35-.15c.93.92,1,2.34,1,4.12l-.06.86v0l2.17-2.18.84.82Z"/><path class="cls-3" d="M721.44,448.07v0l-.48,1.46L720,449l.64-1.92.84-.85,5.32,5.28-1,1Z"/><path class="cls-3" d="M541.94,718.08a3.86,3.86,0,0,0,1.53-.89c.76-.77.64-1.51.21-1.92-.63-.62-1.49-.3-2.09.31l-.47.47-.73-.73.44-.45c.47-.47.84-1.27.31-1.8-.36-.35-.94-.38-1.51.2a3.08,3.08,0,0,0-.75,1.42l-1-.5a4,4,0,0,1,1.11-1.93c1.09-1.1,2.25-1.06,3-.37a1.83,1.83,0,0,1,.27,2.21v0a1.89,1.89,0,0,1,2.49.15c.9.89.87,2.35-.44,3.67a4.15,4.15,0,0,1-1.85,1.12Z"/><path class="cls-3" d="M548.16,708.5c1.71,1.7,2.12,3.43.86,4.7s-3,.78-4.61-.82-2.07-3.45-.83-4.7S546.59,706.94,548.16,708.5Zm-2.74,2.86c1.28,1.29,2.31,1.6,2.86,1s.17-1.61-1.1-2.88-2.26-1.65-2.86-1S544.07,710.05,545.42,711.36Z"/><path class="cls-3" d="M560.91,701l-.62-.61.05-1.21c.08-2.4,0-3.63-.67-4.33a1.18,1.18,0,0,0-1.84.06,2.71,2.71,0,0,0-.68,1.58l-1-.42a3.69,3.69,0,0,1,1.08-2.18,2.22,2.22,0,0,1,3.35-.15c.93.93,1,2.35,1,4.12l-.06.87h0l2.16-2.18.84.83Z"/><path class="cls-3" d="M567.46,694.43l-1.35-1.34-2.39,2.41-.65-.65-1.17-5.46,1.18-1.19,3.21,3.19.68-.69.76.76-.68.68,1.35,1.34Zm-2.11-2.09-1.45-1.44c-.3-.3-.61-.62-.89-.95l0,0c.18.5.31.91.44,1.36l.49,2.42v0Z"/><path class="cls-3" d="M583,670l0,0-.47,1.46-.94-.58.65-1.93.84-.84,5.32,5.27-1,1Z"/><path class="cls-3" d="M588.7,670.29a2.07,2.07,0,0,1-.39-2.37l0,0a1.84,1.84,0,0,1-2-.35,2.25,2.25,0,0,1,.31-3.23c1.14-1.14,2.34-1,3-.33a1.86,1.86,0,0,1,.39,2l0,0a2,2,0,0,1,2.35.32c1,.94.79,2.38-.33,3.51S589.45,671,588.7,670.29Zm2.74-2.86c-.54-.53-1.23-.42-2,0a1.37,1.37,0,0,0,.15,1.71,1.18,1.18,0,0,0,1.75,0A1.15,1.15,0,0,0,591.44,667.43Zm-4.23-.89c.44.43,1.06.33,1.7,0a1.21,1.21,0,0,0-.15-1.46,1.08,1.08,0,0,0-1.55,1.5Z"/><path class="cls-3" d="M600.29,652.53h0l-.48,1.46-.93-.58.65-1.93.83-.84,5.32,5.28-1,1Z"/><path class="cls-3" d="M606.35,646.27l-2,2,.91,1.21a4,4,0,0,1,.36-.4,3.36,3.36,0,0,1,1.62-1,2.17,2.17,0,0,1,2,.65,2.74,2.74,0,0,1-.3,4,4.46,4.46,0,0,1-1.71,1.1l-.56-1a3.7,3.7,0,0,0,1.44-.9,1.47,1.47,0,0,0,.18-2.12c-.61-.6-1.46-.55-2.51.52a6.15,6.15,0,0,0-.68.77l-2.33-3,2.73-2.75Z"/><path class="cls-3" d="M620.54,632.12h0l-.47,1.46-.94-.58.65-1.93.84-.84,5.32,5.28-1,1Z"/><path class="cls-3" d="M627.73,633.69l-.61-.61,0-1.21c.08-2.4,0-3.63-.67-4.33a1.18,1.18,0,0,0-1.83.06,2.8,2.8,0,0,0-.69,1.58l-1-.41a3.76,3.76,0,0,1,1.07-2.19,2.23,2.23,0,0,1,3.35-.15c.94.93,1,2.35,1,4.13l-.07.86,0,0,2.17-2.19.83.83Z"/><path class="cls-3" d="M638.67,613.84l0,0-.47,1.46-.93-.58.64-1.93.84-.84,5.32,5.27-1,1Z"/><path class="cls-3" d="M646.9,609c1.71,1.7,2.12,3.44.86,4.7s-3,.78-4.61-.82-2.07-3.45-.83-4.69S645.33,607.43,646.9,609Zm-2.74,2.87c1.28,1.29,2.31,1.6,2.86,1s.18-1.62-1.1-2.88-2.26-1.66-2.86-1S642.81,610.53,644.16,611.85Z"/><path class="cls-3" d="M662.5,595.91a2.07,2.07,0,0,1-.39-2.37l0,0a1.84,1.84,0,0,1-2-.36,2.24,2.24,0,0,1,.31-3.22c1.13-1.15,2.34-1,3-.34a1.87,1.87,0,0,1,.39,2l0,0a2,2,0,0,1,2.35.31c1,.95.79,2.38-.34,3.52S663.25,596.65,662.5,595.91Zm2.74-2.85c-.54-.54-1.23-.43-2,0a1.37,1.37,0,0,0,.15,1.71,1.19,1.19,0,0,0,1.75,0A1.14,1.14,0,0,0,665.24,593.06Zm-4.23-.9c.44.43,1,.33,1.7,0a1.22,1.22,0,0,0-.15-1.46,1,1,0,0,0-1.51,0A1,1,0,0,0,661,592.16Z"/><path class="cls-3" d="M674.16,576.25l.65.64,2.44,6.89-1,1.07L674,578.17v0l-2.49,2.51-.83-.83Z"/><path class="cls-3" d="M688.62,563.1c-.14.15-.3.31-.48.54a2.66,2.66,0,0,0-.22,3.33l0,0a2.12,2.12,0,0,1,.67-1.71,2.26,2.26,0,0,1,3.35.09,2.61,2.61,0,0,1,0,3.76c-1.29,1.29-3,1-4.28-.27a4.56,4.56,0,0,1-1.48-3.29,4.32,4.32,0,0,1,1.09-2.67,4.62,4.62,0,0,1,.49-.53Zm2.39,3.31a1.31,1.31,0,0,0-2-.12,1.38,1.38,0,0,0-.32,1.41,1,1,0,0,0,.26.38c.72.69,1.62.92,2.27.27S691.65,567.05,691,566.41Z"/><path class="cls-3" d="M703.31,548.55l-2,2,.91,1.21c.11-.14.21-.25.36-.41a3.4,3.4,0,0,1,1.63-.95,2.14,2.14,0,0,1,2,.65,2.74,2.74,0,0,1-.3,4,4.43,4.43,0,0,1-1.7,1.1l-.56-1a3.9,3.9,0,0,0,1.44-.9,1.46,1.46,0,0,0,.17-2.12c-.61-.6-1.46-.55-2.51.52a7.09,7.09,0,0,0-.68.77l-2.33-3,2.73-2.75Z"/><path class="cls-3" d="M722.26,538.42l-1.35-1.34-2.38,2.4-.66-.65-1.16-5.45,1.18-1.19,3.2,3.18.69-.68.76.75-.68.69,1.35,1.34Zm-2.11-2.1-1.45-1.43c-.3-.31-.6-.62-.89-.95l0,0c.17.49.3.9.44,1.36l.49,2.42v0Z"/><path class="cls-3" d="M739.08,519.39a3.62,3.62,0,0,0,1.53-.89c.76-.77.64-1.51.21-1.91-.63-.63-1.48-.31-2.09.31l-.46.46-.74-.73.44-.45c.47-.46.84-1.26.31-1.79-.36-.36-.93-.39-1.51.19A3,3,0,0,0,736,516l-1-.49a4.09,4.09,0,0,1,1.11-1.94c1.09-1.09,2.25-1.06,3-.37a1.83,1.83,0,0,1,.27,2.22l0,0a1.88,1.88,0,0,1,2.48.14c.9.89.87,2.35-.44,3.67a4,4,0,0,1-1.85,1.13Z"/><path class="cls-3" d="M761,499.42l-.61-.61,0-1.21c.08-2.41,0-3.63-.67-4.33a1.17,1.17,0,0,0-1.83.06,2.8,2.8,0,0,0-.69,1.58l-1-.42a3.73,3.73,0,0,1,1.07-2.18,2.22,2.22,0,0,1,3.35-.15c.94.93,1,2.35,1,4.12l-.07.87h0l2.17-2.18.83.83Z"/><path class="cls-3" d="M782.34,469.05h0l-.47,1.47-.93-.59.64-1.92.84-.85,5.32,5.28-1,1Z"/><path class="cls-3" d="M460.6,820.52a2.33,2.33,0,0,1-.44-2.67l0,0a2,2,0,0,1-2.23-.4c-1-1-.78-2.49.34-3.63,1.28-1.29,2.64-1.11,3.38-.38a2.14,2.14,0,0,1,.44,2.27l0,0a2.28,2.28,0,0,1,2.64.36c1.07,1.06.89,2.68-.38,4S461.44,821.35,460.6,820.52Zm3.08-3.22c-.61-.6-1.39-.48-2.23,0a1.56,1.56,0,0,0,.17,1.93,1.33,1.33,0,0,0,2-.05A1.28,1.28,0,0,0,463.68,817.3Zm-4.76-1c.49.49,1.19.38,1.91,0a1.37,1.37,0,0,0-.16-1.64,1.13,1.13,0,0,0-1.7,0A1.11,1.11,0,0,0,458.92,816.29Z"/><path class="cls-3" d="M465.84,808.22l-2.28,2.3,1,1.36a5,5,0,0,1,.4-.46,3.88,3.88,0,0,1,1.83-1.07,2.42,2.42,0,0,1,2.3.72c1.14,1.14,1.13,3-.33,4.48a5,5,0,0,1-1.92,1.24l-.63-1.08a4.23,4.23,0,0,0,1.62-1,1.64,1.64,0,0,0,.19-2.38c-.68-.68-1.63-.62-2.82.58a6.81,6.81,0,0,0-.76.87l-2.63-3.39,3.07-3.1Z"/><path class="cls-3" d="M514.15,757.65l.73.72,2.75,7.75-1.19,1.2-2.53-7.51v0l-2.8,2.81-.94-.93Z"/><path class="cls-3" d="M519.68,754l-2.29,2.3,1,1.36c.12-.15.23-.28.4-.46a3.78,3.78,0,0,1,1.83-1.07,2.43,2.43,0,0,1,2.29.73c1.15,1.13,1.14,3-.33,4.48a4.77,4.77,0,0,1-1.92,1.23l-.63-1.08a4.24,4.24,0,0,0,1.62-1,1.66,1.66,0,0,0,.2-2.39c-.68-.67-1.64-.62-2.83.58a7.38,7.38,0,0,0-.75.87l-2.63-3.39,3.07-3.09Z"/><path class="cls-3" d="M559.36,713.69a5.89,5.89,0,0,0-.55.61,3,3,0,0,0-.24,3.74l0,0a2.41,2.41,0,0,1,.75-1.92,2.53,2.53,0,0,1,3.77.1,2.93,2.93,0,0,1,0,4.23c-1.44,1.45-3.34,1.16-4.81-.3a5.2,5.2,0,0,1-1.66-3.71,5.66,5.66,0,0,1,1.78-3.6Zm2.68,3.72a1.48,1.48,0,0,0-2.22-.13,1.55,1.55,0,0,0-.35,1.58,1.05,1.05,0,0,0,.29.43c.81.77,1.83,1,2.55.31A1.5,1.5,0,0,0,562,717.41Z"/><path class="cls-3" d="M564.55,708.74l-2.29,2.3,1,1.36c.12-.15.23-.28.4-.46a3.78,3.78,0,0,1,1.83-1.07,2.41,2.41,0,0,1,2.29.73c1.15,1.13,1.14,3-.33,4.47a4.81,4.81,0,0,1-1.92,1.24l-.63-1.08a4.16,4.16,0,0,0,1.62-1,1.64,1.64,0,0,0,.2-2.38c-.68-.68-1.64-.62-2.83.58a7.38,7.38,0,0,0-.75.87l-2.63-3.39,3.07-3.09Z"/><path class="cls-3" d="M597.9,675.12l-2.28,2.3,1,1.37a3.31,3.31,0,0,1,.41-.46,3.8,3.8,0,0,1,1.83-1.08,2.44,2.44,0,0,1,2.29.73c1.14,1.13,1.13,3-.33,4.48a4.83,4.83,0,0,1-1.92,1.23l-.63-1.08a4.24,4.24,0,0,0,1.62-1,1.65,1.65,0,0,0,.19-2.39c-.68-.67-1.63-.62-2.82.58a6.83,6.83,0,0,0-.76.88l-2.62-3.4,3.07-3.09Z"/><path class="cls-3" d="M602.8,670.19l-2.28,2.3,1,1.36c.12-.15.23-.28.4-.46a3.78,3.78,0,0,1,1.83-1.07,2.41,2.41,0,0,1,2.3.73c1.14,1.13,1.13,3-.33,4.47a4.9,4.9,0,0,1-1.93,1.24l-.62-1.08a4.23,4.23,0,0,0,1.62-1,1.64,1.64,0,0,0,.19-2.38c-.68-.68-1.64-.62-2.82.58a7.57,7.57,0,0,0-.76.87l-2.63-3.39,3.07-3.09Z"/><path class="cls-3" d="M670,610.24a4.22,4.22,0,0,0,1.72-1c.85-.86.71-1.7.24-2.15-.71-.71-1.68-.35-2.36.34l-.52.53-.83-.82.5-.51c.52-.52.94-1.42.34-2-.4-.4-1-.43-1.69.22a3.36,3.36,0,0,0-.84,1.6l-1.08-.56a4.6,4.6,0,0,1,1.25-2.18c1.23-1.23,2.54-1.19,3.32-.41a2,2,0,0,1,.3,2.49l0,0a2.14,2.14,0,0,1,2.8.16c1,1,1,2.65-.5,4.13a4.65,4.65,0,0,1-2.07,1.27Z"/><path class="cls-3" d="M674.54,597.89l-2.29,2.3,1,1.36a5,5,0,0,1,.4-.46,3.78,3.78,0,0,1,1.83-1.07,2.43,2.43,0,0,1,2.3.72c1.14,1.14,1.13,3-.33,4.48a4.9,4.9,0,0,1-1.93,1.24l-.62-1.08a4.23,4.23,0,0,0,1.62-1,1.64,1.64,0,0,0,.19-2.38c-.68-.68-1.64-.62-2.82.58a7.57,7.57,0,0,0-.76.87l-2.63-3.39L673.6,597Z"/><path class="cls-3" d="M636.07,646.75l-1.52-1.5-2.69,2.7-.73-.73-1.31-6.14,1.32-1.33,3.61,3.58.77-.78.85.85-.76.78,1.52,1.5Zm-2.38-2.35-1.63-1.62c-.34-.34-.68-.7-1-1.07l0,0c.2.55.34,1,.49,1.53l.55,2.72v0Z"/><path class="cls-3" d="M637.21,635.5l-2.28,2.31,1,1.36a4,4,0,0,1,.4-.46,3.8,3.8,0,0,1,1.83-1.07,2.42,2.42,0,0,1,2.3.72c1.14,1.14,1.13,3-.33,4.48a5,5,0,0,1-1.92,1.24L637.6,643a4.36,4.36,0,0,0,1.62-1,1.64,1.64,0,0,0,.19-2.38c-.68-.68-1.63-.62-2.82.57a7.57,7.57,0,0,0-.76.88l-2.63-3.39,3.07-3.1Z"/><path class="cls-3" d="M709.17,573.08l-.69-.69,0-1.35c.09-2.71,0-4.09-.76-4.88a1.32,1.32,0,0,0-2.06.07,3.07,3.07,0,0,0-.77,1.77l-1.13-.46a4.15,4.15,0,0,1,1.21-2.45,2.5,2.5,0,0,1,3.77-.17c1.05,1,1.15,2.63,1.08,4.63l-.07,1h0l2.44-2.45.94.93Z"/><path class="cls-3" d="M712.79,559.34l-2.28,2.3,1,1.36a4,4,0,0,1,.4-.46,3.78,3.78,0,0,1,1.83-1.07,2.42,2.42,0,0,1,2.3.72c1.14,1.14,1.13,3-.33,4.48a5,5,0,0,1-1.92,1.24l-.63-1.08a4.36,4.36,0,0,0,1.62-1,1.64,1.64,0,0,0,.19-2.38c-.68-.68-1.64-.62-2.82.58a6.81,6.81,0,0,0-.76.87l-2.63-3.39,3.07-3.1Z"/><path class="cls-3" d="M750.18,521.82l0,0-.54,1.64-1-.65.72-2.17.94-.95,6,5.94-1.09,1.1Z"/><path class="cls-3" d="M757,514.78l-2.28,2.3,1,1.37a4,4,0,0,1,.4-.46,3.73,3.73,0,0,1,1.83-1.08,2.46,2.46,0,0,1,2.3.73c1.14,1.13,1.13,3-.33,4.48a4.86,4.86,0,0,1-1.93,1.23l-.62-1.08a4.31,4.31,0,0,0,1.62-1,1.66,1.66,0,0,0,.19-2.39c-.68-.67-1.64-.62-2.82.58a6.83,6.83,0,0,0-.76.88l-2.63-3.4,3.07-3.09Z"/><path class="cls-3" d="M807.7,463.69l-2.29,2.3,1,1.36a3.72,3.72,0,0,1,.4-.46,3.78,3.78,0,0,1,1.83-1.07,2.39,2.39,0,0,1,2.29.73c1.14,1.13,1.13,3-.33,4.47a4.81,4.81,0,0,1-1.92,1.24l-.63-1.08a4.16,4.16,0,0,0,1.62-1,1.64,1.64,0,0,0,.19-2.38c-.68-.68-1.63-.62-2.82.58a7.57,7.57,0,0,0-.76.87l-2.62-3.39,3.07-3.09Z"/></g></g></svg>