<svg xmlns="http://www.w3.org/2000/svg" xmlns:xlink="http://www.w3.org/1999/xlink" viewBox="0 0 425.64 397.93"><defs><style>.cls-1{fill:none;}.cls-2{isolation:isolate;}.cls-3,.cls-9{fill:#343433;}.cls-4{fill:#424040;}.cls-5{fill:#575656;}.cls-6{fill:#cccbca;}.cls-7{fill:#e7e8e7;}.cls-8{fill:#bd1e2d;}.cls-8,.cls-9{fill-rule:evenodd;}.cls-10{fill:#404b4d;}.cls-11{fill:#303e42;}.cls-12{fill:#d4dbdf;}.cls-13{fill:#eef5f9;}.cls-14{fill:#e1e8ec;}.cls-15{fill:#141c1e;}.cls-16{opacity:0.1;}.cls-16,.cls-25{mix-blend-mode:multiply;}.cls-17{clip-path:url(#clip-path);}.cls-18,.cls-45{opacity:0.5;}.cls-18{mix-blend-mode:overlay;}.cls-19{clip-path:url(#clip-path-2);}.cls-20{fill:#5a6567;}.cls-21{clip-path:url(#clip-path-3);}.cls-22{fill:#263133;}.cls-23{fill:#fff;}.cls-24{fill:#333e40;}.cls-25,.cls-50{opacity:0.2;}.cls-26{clip-path:url(#clip-path-4);}.cls-27{fill:#4b5459;}.cls-28{clip-path:url(#clip-path-5);}.cls-29{clip-path:url(#clip-path-6);}.cls-30{clip-path:url(#clip-path-7);}.cls-31{clip-path:url(#clip-path-8);}.cls-32{clip-path:url(#clip-path-9);}.cls-33{fill:#f0f0f1;}.cls-34{fill:#4d585a;}.cls-35{fill:#273234;}.cls-36{fill:#f5911e;}.cls-37{clip-path:url(#clip-path-10);}.cls-38{clip-path:url(#clip-path-11);}.cls-39{clip-path:url(#clip-path-12);}.cls-40{clip-path:url(#clip-path-13);}.cls-41{clip-path:url(#clip-path-14);}.cls-42{fill:#c5d0d3;}.cls-43{fill:#3d4b4f;}.cls-44{fill:#233135;}.cls-46{clip-path:url(#clip-path-15);}.cls-47{clip-path:url(#clip-path-16);}.cls-48{clip-path:url(#clip-path-17);}.cls-49{fill:#445459;}.cls-51{clip-path:url(#clip-path-18);}.cls-52{fill:#dfe6ea;}.cls-53{clip-path:url(#clip-path-19);}.cls-54{clip-path:url(#clip-path-20);}.cls-55{clip-path:url(#clip-path-21);}.cls-56{clip-path:url(#clip-path-22);}.cls-57{clip-path:url(#clip-path-23);}.cls-58{clip-path:url(#clip-path-24);}.cls-59{clip-path:url(#clip-path-25);}.cls-60{clip-path:url(#clip-path-26);}.cls-61{clip-path:url(#clip-path-27);}.cls-62{clip-path:url(#clip-path-28);}.cls-63{clip-path:url(#clip-path-29);}.cls-64{clip-path:url(#clip-path-30);}.cls-65{clip-path:url(#clip-path-31);}.cls-66{clip-path:url(#clip-path-32);}.cls-67{clip-path:url(#clip-path-33);}.cls-68{fill:#c3cdd1;}.cls-69{clip-path:url(#clip-path-34);}.cls-70{clip-path:url(#clip-path-35);}</style><clipPath id="clip-path"><rect class="cls-1" x="219.8" y="100.42" width="187.64" height="137.2"/></clipPath><clipPath id="clip-path-2"><rect class="cls-1" x="220.79" y="100.76" width="187.21" height="137.81"/></clipPath><clipPath id="clip-path-3"><rect class="cls-1" x="166.08" y="170.8" width="251.54" height="180.37"/></clipPath><clipPath id="clip-path-4"><rect class="cls-1" x="203.06" y="268.26" width="9.11" height="12.44"/></clipPath><clipPath id="clip-path-5"><rect class="cls-1" x="161.27" y="286.36" width="0.9" height="63.52"/></clipPath><clipPath id="clip-path-6"><rect class="cls-1" x="164.38" y="140.11" width="253.19" height="156.18"/></clipPath><clipPath id="clip-path-7"><rect class="cls-1" x="180.37" y="204.83" width="34.96" height="98.22"/></clipPath><clipPath id="clip-path-8"><rect class="cls-1" x="100.98" y="335.42" width="30.72" height="27.82"/></clipPath><clipPath id="clip-path-9"><rect class="cls-1" x="4.6" y="278.92" width="25.01" height="29.1"/></clipPath><clipPath id="clip-path-10"><rect class="cls-1" x="167.98" y="303.35" width="5.12" height="5.56"/></clipPath><clipPath id="clip-path-11"><rect class="cls-1" x="137.39" y="301.17" width="16.89" height="6.82"/></clipPath><clipPath id="clip-path-12"><rect class="cls-1" x="13.31" y="256.45" width="10.72" height="7.4"/></clipPath><clipPath id="clip-path-13"><rect class="cls-1" x="23.14" y="233.11" width="10.19" height="30.75"/></clipPath><clipPath id="clip-path-14"><rect class="cls-1" x="128.09" y="324.12" width="26.18" height="6.23"/></clipPath><clipPath id="clip-path-15"><rect class="cls-1" x="55.96" y="205.95" width="65.64" height="43.21"/></clipPath><clipPath id="clip-path-16"><rect class="cls-1" x="93.05" y="227.52" width="65.65" height="43.21"/></clipPath><clipPath id="clip-path-17"><rect class="cls-1" x="166.58" y="254.79" width="24.16" height="28.95"/></clipPath><clipPath id="clip-path-18"><rect class="cls-1" x="26.03" y="163.24" width="74.21" height="75.63"/></clipPath><clipPath id="clip-path-19"><rect class="cls-1" x="160.1" y="66.31" width="236.65" height="134.65"/></clipPath><clipPath id="clip-path-20"><rect class="cls-1" x="159.43" y="64.68" width="233.25" height="136.25"/></clipPath><clipPath id="clip-path-21"><rect class="cls-1" x="70.98" y="11.72" width="236.65" height="134.65"/></clipPath><clipPath id="clip-path-22"><rect class="cls-1" x="70.31" y="10.08" width="233.25" height="136.25"/></clipPath><clipPath id="clip-path-23"><rect class="cls-1" x="92.49" y="25.93" width="236.65" height="134.65"/></clipPath><clipPath id="clip-path-24"><rect class="cls-1" x="91.81" y="24.3" width="233.25" height="136.25"/></clipPath><clipPath id="clip-path-25"><rect class="cls-1" x="135.57" y="53.04" width="236.65" height="134.65"/></clipPath><clipPath id="clip-path-26"><rect class="cls-1" x="134.9" y="51.41" width="233.25" height="136.26"/></clipPath><clipPath id="clip-path-27"><rect class="cls-1" x="114.44" y="39" width="236.65" height="134.65"/></clipPath><clipPath id="clip-path-28"><rect class="cls-1" x="113.77" y="37.37" width="233.25" height="136.25"/></clipPath><clipPath id="clip-path-29"><rect class="cls-1" x="3.96" y="293.88" width="0.05" height="1.06"/></clipPath><clipPath id="clip-path-30"><rect class="cls-1" x="23.61" y="233.1" width="0.01" height="0.01"/></clipPath><clipPath id="clip-path-31"><rect class="cls-1" x="22.5" y="262.99" width="0.89" height="0.52"/></clipPath><clipPath id="clip-path-32"><rect class="cls-1" x="24.04" y="232.85" width="0.1" height="0.03"/></clipPath><clipPath id="clip-path-33"><rect class="cls-1" x="22.51" y="261.93" width="0.89" height="1.58"/></clipPath><clipPath id="clip-path-34"><rect class="cls-1" x="136.76" y="300.83" width="16.89" height="6.82"/></clipPath><clipPath id="clip-path-35"><rect class="cls-1" x="22.94" y="232.76" width="9.75" height="30.75"/></clipPath></defs><title>van-a</title><g class="cls-2"><g id="Layer_2" data-name="Layer 2"><g id="Layer_1-2" data-name="Layer 1"><path class="cls-3" d="M227.71,295.53l.06-.19-22.43,13,39.73,23.13a58.88,58.88,0,0,0,.71-9c0-16.27-5.86-27.94-18.07-26.86"/><path class="cls-3" d="M231.82,305.66l-18.21-10.32c-5-2.92-11.66-2.88-18.38,1.17-15.12,9.13-26.15,28.38-26.49,46-.15,8.17,3.43,14.25,8.82,17L197.9,371c4.78,2.12,10.84,1.74,16.93-1.94,15.11-9.11,26.14-28.39,26.47-46,.16-8.51-3.73-14.75-9.48-17.34"/><path class="cls-4" d="M241.3,323c-.33,17.62-11.36,36.9-26.47,46-13.46,8.12-26.78.17-26.49-15.43.34-17.64,11.37-36.9,26.49-46,13.44-8.11,26.77-.15,26.47,15.45"/><path class="cls-5" d="M239.46,325c-.3,16.22-10.36,34-24.14,42.36-12.27,7.47-24.4.15-24.14-14.22.31-16.23,10.36-33.95,24.14-42.34,12.27-7.47,24.41-.15,24.14,14.2"/><path class="cls-6" d="M232.78,329.46c-.21,11.1-7.16,23.23-16.67,29-8.47,5.1-16.85.1-16.67-9.72.21-11.11,7.15-23.23,16.67-29,8.47-5.1,16.85-.09,16.67,9.72"/><path class="cls-4" d="M221.78,317.77c4.83.5,8.46,4.69,8.34,11-.19,10.42-6.7,21.83-15.6,27.22-6.4,3.87-12.73,1.56-14.85-4.31,1.36,7.82,8.86,11.34,16.44,6.78,9.51-5.75,16.46-17.88,16.67-29,.14-7.58-4.83-12.29-11-11.69"/><path class="cls-7" d="M225.92,334.4a19.57,19.57,0,0,1-8.87,15.43c-4.51,2.72-9,.05-8.88-5.18a19.52,19.52,0,0,1,8.88-15.42c4.5-2.73,9-.05,8.87,5.17"/><path class="cls-8" d="M228.88,322.29h0l-.18-.27.17.28"/><path class="cls-9" d="M210.62,333.3l-4.05-4c-.73,1-1.42,2.12-2,3.23l5.09,2.36a18.42,18.42,0,0,1,1-1.58"/><path class="cls-9" d="M216.68,327.43c.26-.15.52-.28.77-.4l-1-7-.37.2a28.23,28.23,0,0,0-2.87,2l2.48,5.89c.34-.24.68-.46,1-.68"/><path class="cls-9" d="M208.44,337.19l-5.26-2a38.38,38.38,0,0,0-1.55,3.86l6,.42a21.07,21.07,0,0,1,.84-2.25"/><path class="cls-9" d="M213.56,329.84l-2.4-5.88a34.77,34.77,0,0,0-2.74,2.94l3.59,4.58a20.12,20.12,0,0,1,1.55-1.64"/><path class="cls-9" d="M225.23,328.41l3.05-5.11a10.13,10.13,0,0,0-.62-1.06,9.94,9.94,0,0,0-.87-1.13l-2.39,6.42a5.79,5.79,0,0,1,.83.88"/><path class="cls-9" d="M226.53,331.33l3.21-3.7a16.46,16.46,0,0,0-.57-2.2l-3.2,4.18a6.94,6.94,0,0,1,.56,1.72"/><path class="cls-9" d="M223.24,326.79l2-7.06a7,7,0,0,0-2.4-1.06l-1,7.67a5.72,5.72,0,0,1,1.36.45"/><path class="cls-9" d="M220.51,326.22l.87-7.73h-.06a8.54,8.54,0,0,0-2.91.55l.72,7.38a7.53,7.53,0,0,1,1.38-.2"/><path class="cls-9" d="M207,342h-6.18a30.23,30.23,0,0,0-.66,3.84l6.57-1.62A16.81,16.81,0,0,1,207,342"/><path class="cls-9" d="M219.17,348.85l-.19,3.74c.69-.64,1.36-1.32,2-2l-.52-2.93c-.42.43-.85.83-1.29,1.21"/><path class="cls-9" d="M222.46,345.24l.9,2.42a34.53,34.53,0,0,0,2.24-3.45l-2.16-.45c-.31.51-.64,1-1,1.48"/><path class="cls-9" d="M224.85,341.11l2.08.53a37.21,37.21,0,0,0,1.62-4.08l-2.7.9a26.59,26.59,0,0,1-1,2.65"/><path class="cls-9" d="M206.79,346.47,200,348.22c0,.16,0,.33,0,.5a8.62,8.62,0,0,0,.39,2.63l6.87-3.28a7.81,7.81,0,0,1-.42-1.6"/><path class="cls-9" d="M226.7,333.39a20.63,20.63,0,0,1-.28,2.69L229.3,335a30.26,30.26,0,0,0,.72-4.48Z"/><path class="cls-9" d="M216.68,350.69a8.21,8.21,0,0,1-.92.49l-2.08,5.14.5-.17.34-.18c.71-.44,1.41-.93,2.1-1.43l.91-4.41c-.28.2-.56.39-.85.56"/><path class="cls-9" d="M207.83,349.29l-6.56,3.95a7.14,7.14,0,0,0,1.44,1.58,6.84,6.84,0,0,0,.73.53l5.22-5.05a5.45,5.45,0,0,1-.83-1"/><path class="cls-9" d="M209.87,351.2,205,356.15a12,12,0,0,0,2.3.63l3.37-5.22a4.44,4.44,0,0,1-.8-.36"/><path class="cls-9" d="M212,351.87,209.29,357h.11a14.32,14.32,0,0,0,1.95-.14l2.33-5a6.74,6.74,0,0,1-1.67.05"/><path class="cls-3" d="M392.88,200.76l.06-.19-22.44,13,39.74,23.14a60.39,60.39,0,0,0,.71-9c0-16.26-5.86-27.93-18.07-26.85"/><path class="cls-3" d="M397,210.89l-18.21-10.32c-5-2.93-11.66-2.89-18.39,1.17-15.12,9.12-26.14,28.38-26.48,46-.15,8.17,3.43,14.25,8.81,17l20.35,11.41c4.78,2.12,10.84,1.73,16.93-1.94,15.11-9.12,26.14-28.4,26.47-46,.16-8.51-3.73-14.74-9.48-17.33"/><path class="cls-4" d="M406.47,228.22c-.33,17.62-11.36,36.9-26.47,46-13.46,8.11-26.78.17-26.49-15.44.34-17.64,11.37-36.9,26.49-46,13.44-8.11,26.77-.16,26.47,15.44"/><path class="cls-5" d="M404.63,230.27c-.3,16.22-10.36,34-24.14,42.35-12.27,7.47-24.4.15-24.14-14.21.31-16.23,10.36-34,24.14-42.35,12.27-7.47,24.41-.14,24.14,14.21"/><path class="cls-6" d="M398,234.69c-.21,11.1-7.16,23.23-16.67,29-8.47,5.11-16.86.11-16.67-9.72.21-11.11,7.15-23.23,16.67-29,8.46-5.11,16.85-.1,16.67,9.72"/><path class="cls-4" d="M387,223c4.83.49,8.46,4.68,8.34,11-.19,10.42-6.7,21.82-15.6,27.21-6.4,3.87-12.73,1.56-14.85-4.31,1.36,7.82,8.86,11.35,16.44,6.78,9.51-5.74,16.46-17.87,16.67-29,.14-7.58-4.83-12.3-11-11.69"/><path class="cls-7" d="M391.09,239.62a19.54,19.54,0,0,1-8.88,15.43c-4.51,2.72-9,.06-8.87-5.18a19.54,19.54,0,0,1,8.87-15.42c4.51-2.72,9,0,8.88,5.17"/><path class="cls-8" d="M394.05,227.52h0l-.18-.28c.05.1.11.19.17.29"/><path class="cls-9" d="M375.79,238.52l-4.05-4c-.73,1-1.42,2.12-2.05,3.23l5.09,2.35c.31-.54.65-1.07,1-1.58"/><path class="cls-9" d="M381.85,232.65c.26-.15.52-.28.77-.4l-1-7-.37.2a26.75,26.75,0,0,0-2.87,2l2.48,5.88c.34-.24.68-.46,1-.68"/><path class="cls-9" d="M373.61,242.41l-5.26-2a33.58,33.58,0,0,0-1.55,3.87l6,.41a22.82,22.82,0,0,1,.84-2.25"/><path class="cls-9" d="M378.73,235.06l-2.4-5.88a36.49,36.49,0,0,0-2.75,2.94l3.6,4.58a20,20,0,0,1,1.55-1.64"/><path class="cls-9" d="M390.4,233.63l3.05-5.1a10.91,10.91,0,0,0-.62-1.06,9.12,9.12,0,0,0-.87-1.13l-2.39,6.42a5.72,5.72,0,0,1,.83.87"/><path class="cls-9" d="M391.7,236.55l3.21-3.7a18.14,18.14,0,0,0-.57-2.2l-3.2,4.18a7.71,7.71,0,0,1,.56,1.72"/><path class="cls-9" d="M388.4,232l2-7a7,7,0,0,0-2.4-1.07l-1,7.67a5.5,5.5,0,0,1,1.35.45"/><path class="cls-9" d="M385.68,231.45l.87-7.74h-.06a8.79,8.79,0,0,0-2.91.55l.72,7.38a6.73,6.73,0,0,1,1.38-.19"/><path class="cls-9" d="M372.14,247.19H366a28.56,28.56,0,0,0-.66,3.84l6.57-1.62a16.81,16.81,0,0,1,.27-2.22"/><path class="cls-9" d="M384.34,254.07l-.2,3.74c.7-.64,1.37-1.31,2-2l-.53-2.93c-.41.43-.84.83-1.28,1.21"/><path class="cls-9" d="M387.63,250.46l.9,2.42a35.57,35.57,0,0,0,2.24-3.44l-2.16-.45c-.31.5-.64,1-1,1.47"/><path class="cls-9" d="M390,246.33l2.09.53a36.44,36.44,0,0,0,1.62-4.08l-2.71.9a21.79,21.79,0,0,1-1,2.65"/><path class="cls-9" d="M372,251.7l-6.82,1.74c0,.17,0,.33,0,.5a8.58,8.58,0,0,0,.39,2.63l6.87-3.27a8,8,0,0,1-.42-1.6"/><path class="cls-9" d="M391.86,238.62a18.87,18.87,0,0,1-.27,2.68l2.88-1.13a30.05,30.05,0,0,0,.72-4.48Z"/><path class="cls-9" d="M381.85,255.91a9.19,9.19,0,0,1-.92.49l-2.08,5.15c.17-.05.33-.12.5-.18l.33-.18c.72-.44,1.42-.92,2.11-1.43l.91-4.4c-.28.19-.56.38-.85.55"/><path class="cls-9" d="M373,254.51l-6.56,3.95a7.11,7.11,0,0,0,1.43,1.58,6.61,6.61,0,0,0,.74.53l5.22-5a5.87,5.87,0,0,1-.83-1"/><path class="cls-9" d="M375,256.43l-4.86,4.94a10.68,10.68,0,0,0,2.3.63l3.37-5.21a5.87,5.87,0,0,1-.81-.36"/><path class="cls-9" d="M377.17,257.09l-2.71,5.08h.11a15.82,15.82,0,0,0,1.94-.14l2.34-5a6.36,6.36,0,0,1-1.68,0"/><path class="cls-10" d="M339.38,250.16c3.91-17.2,18.63-33.81,35.29-39.67,6.82-2.39-9.54-17.39-16.95-14.79-16.66,5.85-31.37,22.46-35.29,39.66-1.81,8-3.25,16.94,1.46,20.74l19.32,11.29c-3.79-3.92-5.47-10.05-3.83-17.23"/><polygon class="cls-11" points="35.7 198.46 35.7 201.88 41.49 206.79 41.49 201.8 35.7 198.46"/><path class="cls-12" d="M33.24,184.81l-5.61-3.24c-1.35-.78-2.45-.15-2.45,1.41v18.88a5.44,5.44,0,0,0,2.45,4.25l5.61,3.24c1.35.78,2.45.15,2.45-1.42V189.06a5.44,5.44,0,0,0-2.45-4.25"/><path class="cls-13" d="M33.24,184.81l-5.61-3.24c-1.26-.73-2.29-.21-2.43,1.12a2.29,2.29,0,0,1,1,.32l5.62,3.25a5.4,5.4,0,0,1,2.45,4.24v18.88a2.77,2.77,0,0,1,0,.3c.87.06,1.47-.59,1.47-1.75V189.06a5.44,5.44,0,0,0-2.45-4.25"/><path class="cls-14" d="M417.57,78c-.15-7-4.35-9-4.35-9L294.28,0,63.73,132.38S49.17,141.11,46,154.81l-20.78,68L4.94,264.36,4.6,298.78l-1,.57a6.62,6.62,0,0,0-3,5.16V325.7a2.1,2.1,0,0,0,.89,1.93h0l115.19,66.75c1.05.59,5.32,2.88,8.63,2.81a23.63,23.63,0,0,0,7.66-1.77l50.86-28.8V347.2a39.26,39.26,0,0,1,4.19-17.66A83.41,83.41,0,0,1,195,318.19a39,39,0,0,1,12.19-10.92s25.67-15.47,38.8,9.16a30.66,30.66,0,0,1,3.18,10.27l96.06-54.76a7.86,7.86,0,0,0,4-6.5l.5-11.89a52.22,52.22,0,0,1,26.23-43.16l11.73-6.72,10.57-6.06L411.28,208l6.74-3.89Z"/><path class="cls-15" d="M164.92,281.41c-.77,4.12,1.24,5.41,4.46,2.86l36-28.68c3.22-2.55,5.86-7.72,5.86-11.51V216.4c0-3.79-2.68-5.34-6-3.46L183,225.52c-3.28,1.88-6.59,6.79-7.36,10.91Z"/><path class="cls-11" d="M207.94,214a3.67,3.67,0,0,0-1.73.56l-22.3,12.58c-2.82,1.62-5.79,6.05-6.46,9.66v.1L166.7,281.78a4.37,4.37,0,0,0,0,2,4.28,4.28,0,0,0,1.59-.9l36-28.67c2.81-2.22,5.18-6.83,5.18-10.09V216.4c0-.91-.2-2.44-1.5-2.44"/><g class="cls-16"><g class="cls-17"><path d="M220.3,235v-23a13.22,13.22,0,0,1,5.95-10.32l176.29-99.81c2-1.17,3.82-1,4.89.14-.95-1.78-3-2.22-5.38-.86L225.75,201a13.21,13.21,0,0,0-5.95,10.31v23a4.73,4.73,0,0,0,1.07,3.3,5.4,5.4,0,0,1-.57-2.59"/></g></g><g class="cls-18"><g class="cls-19"><path class="cls-12" d="M408,104.67c0-2-.72-3.32-1.86-3.91a4.84,4.84,0,0,1,1,3.22v23a13.2,13.2,0,0,1-6,10.32L224.88,237.07a4.24,4.24,0,0,1-4.09.47c1.07,1.24,2.9,1.41,5,.22L402.05,138A13.21,13.21,0,0,0,408,127.63Z"/></g></g><path class="cls-10" d="M168.08,351.18l-2-3.21-32.64,18.58c-5,3-12-.49-12-.49L4.6,298.78l-1,.57a6.64,6.64,0,0,0-3,5.16V325.7a2.07,2.07,0,0,0,.89,1.92l115.19,66.76c1.05.59,5.32,2.89,8.63,2.81a23.51,23.51,0,0,0,7.66-1.78l35.08-19.68c.08-.25-.09-24.31,0-24.55"/><path class="cls-10" d="M168.08,351.18l-2-3.21-32.64,18.58c-5,3-12-.49-12-.49L4.6,298.78l-1,.57a6.64,6.64,0,0,0-3,5.16V325.7a2.07,2.07,0,0,0,.89,1.92l115.19,66.76c1.05.59,5.32,2.89,8.63,2.81a23.51,23.51,0,0,0,7.66-1.78l35.08-19.68c.08-.25-.09-24.31,0-24.55"/><path class="cls-20" d="M166.08,348l-32.64,18.58c-5,3-12-.49-12-.49L4.6,298.78l-1,.57a6.35,6.35,0,0,0-2.38,2.78L121,371.31s7,3.49,12,.49l35.15-20.62Z"/><g class="cls-18"><g class="cls-21"><path class="cls-12" d="M194.1,299.16l.29-.12-.25.26-2,2.1A116.09,116.09,0,0,0,168.42,341l-2.34,7,2,3.21,2.63-9.39A113.85,113.85,0,0,1,194,303.05l2-2.09L417.57,173.72l.05-2.91Z"/></g></g><path class="cls-15" d="M169.35,230.85c-1.87.1-5.1-1.51-5.1-1.51L44.78,159l-19.3,63.16L144.11,291s5.73,2.69,9.38-.46a11.57,11.57,0,0,0,4-5.79l13.61-50.48c.57-2.1-.22-3.64-1.75-3.43"/><path class="cls-11" d="M168.63,236.36a2.49,2.49,0,0,0,.1-1.14h-.26a12.89,12.89,0,0,1-5-1.31l-.06,0-.77-.42L43.47,163.24,26,220.31,145,289.39a11,11,0,0,0,4,.87,4.93,4.93,0,0,0,3.31-1.09l.08-.07.11-.07a9.78,9.78,0,0,0,3.24-4.75Z"/><path class="cls-11" d="M168.63,236.36a2.49,2.49,0,0,0,.1-1.14h-.26a12.89,12.89,0,0,1-5-1.31l-.06,0-.77-.42L43.47,163.24,26,220.31,145,289.39a11,11,0,0,0,4,.87,4.93,4.93,0,0,0,3.31-1.09l.08-.07.11-.07a9.78,9.78,0,0,0,3.24-4.75Z"/><path class="cls-22" d="M77.61,361.16c0,1.08-.76,1.52-1.7,1L44.19,343.83a3.78,3.78,0,0,1-1.7-2.95v-5.83c0-1.08.76-1.52,1.7-1l31.72,18.32a3.75,3.75,0,0,1,1.7,2.94Z"/><polygon class="cls-23" points="75.85 360.46 44.25 342.22 44.25 335.55 75.85 353.79 75.85 360.46"/><path class="cls-24" d="M134.75,392.62a24.94,24.94,0,0,1-8.16,1.89c-3.52.09-8.07-2.36-9.19-3L.63,323.85v2.59a2.1,2.1,0,0,0,.89,1.93l115.19,66.74c1.05.6,5.32,2.9,8.63,2.82a23.51,23.51,0,0,0,7.66-1.78l35.08-19.68c0-.05,0-1,0-2.54Z"/><g class="cls-25"><g class="cls-26"><path d="M212.17,274.37a3.31,3.31,0,0,1-1.48,2.58l-6.14,3.54c-.82.47-1.49.09-1.49-.86v-5.05a3.29,3.29,0,0,1,1.49-2.58l6.13-3.54c.82-.47,1.49-.09,1.49.86Z"/></g></g><path class="cls-27" d="M213.65,269.82a3.18,3.18,0,0,1-1.48,2.43l-9.36,5.41c-.82.47-1.49.15-1.49-.71a3.17,3.17,0,0,1,1.48-2.43l9.37-5.41c.81-.47,1.48-.15,1.48.71"/><g class="cls-16"><g class="cls-28"><rect x="161.27" y="286.36" width="0.9" height="63.52"/></g></g><g class="cls-18"><g class="cls-29"><path class="cls-23" d="M164.38,295.35l.75.94a3.38,3.38,0,0,1-.33-.51,2.37,2.37,0,0,1-.42-.43"/><path class="cls-23" d="M164.8,295.78s0,0,0,0,0,0,0,0"/><path class="cls-12" d="M417.57,140.11l-172.24,98.3L234.9,244l-20.81,11.26-.06,0-.06,0-12.32,10.11L189.4,275.61l-12.28,10.16-6.18,5-3.09,2.51-1.55,1.25-.77.63-.38.32-.2.15-.1.08s0,0,0,0,0,0,0,0l.1-.08.2-.15.39-.31.78-.62,1.56-1.24,3.12-2.47,6.24-4.95,12.58-9.79,12.59-9.77,12.48-9.8,20.77-11.17L246,239.72l171.53-98.14Z"/></g></g><g class="cls-16"><g class="cls-30"><path d="M215.34,208.09a3.17,3.17,0,0,0-4.89-2.82l-30.07,17.37.45.78,30.08-17.36a2.27,2.27,0,0,1,3.52,2v95l.91-.52Z"/></g></g><g class="cls-16"><g class="cls-31"><path d="M131.19,346.82a1.8,1.8,0,0,0-2.14-.27,7.83,7.83,0,0,1-2.76.61h-1.21a6.78,6.78,0,0,1-2.75-.73l-18.5-10.68a2.18,2.18,0,0,0-1.11-.33,1.79,1.79,0,0,0-1.74,2v10.81a4.17,4.17,0,0,0,1.94,3.37l18.5,10.68a8.58,8.58,0,0,0,3.67,1h1.2a4.62,4.62,0,0,0,3.46-1.79l.14-.2a8.14,8.14,0,0,0,1.26-3.6l.55-9.22a2.15,2.15,0,0,0-.51-1.61"/></g></g><g class="cls-16"><g class="cls-32"><path d="M4.6,295.27l22.15,12.44a2.22,2.22,0,0,0,1.1.31,1.67,1.67,0,0,0,1.32-.62,2.15,2.15,0,0,0,.44-1.36V295.23a4.13,4.13,0,0,0-2-3.36l-23-12.95Z"/></g></g><path class="cls-33" d="M125.09,362.33a7.5,7.5,0,0,1-3.21-.86l-18.5-10.68a3.31,3.31,0,0,1-1.49-2.58V337.4c0-.95.67-1.34,1.49-.86l18.5,10.68a7.48,7.48,0,0,0,3.21.85h1.2a8.49,8.49,0,0,0,3.16-.71c.79-.39,1.4.06,1.34,1l-.55,9.23a7.25,7.25,0,0,1-1.09,3.12l-.15.21a3.72,3.72,0,0,1-2.71,1.4Z"/><path class="cls-33" d="M4.6,294.22l22.6,12.69c.82.47,1.5.08,1.5-.87V295.22a3.27,3.27,0,0,0-1.5-2.56L4.6,280Z"/><path class="cls-34" d="M32.21,334.66c.38,1,0,1.53-.79,1l-12-6.91A3.35,3.35,0,0,1,18,326.22v-4.31c0-1,.67-1.33,1.48-.86l8.41,4.85A6,6,0,0,1,30,328.68Z"/><path class="cls-35" d="M30,328.68a6,6,0,0,0-2.18-2.78l-6.6-3.81v3.19a3.32,3.32,0,0,0,1.49,2.58L31.6,333Z"/><path class="cls-34" d="M86.44,365.5a1.49,1.49,0,0,0,.79,2l12,6.92c.81.47,1.48.08,1.48-.86v-4.31a3.31,3.31,0,0,0-1.48-2.58l-8.41-4.85a1.62,1.62,0,0,0-2.18.25Z"/><path class="cls-35" d="M99.21,366.64l-7.91-4.57-1.56,2.49a1.49,1.49,0,0,0,.79,2l10.16,5.87v-3.18a3.31,3.31,0,0,0-1.48-2.58"/><path class="cls-35" d="M92.54,342c-.67,2.24-3.14,3-5.51,1.58L40.92,317a13.83,13.83,0,0,1-5.5-7.95l-3.66-12.1c-.66-3,.73-4.34,3.09-3L93.11,327.6c2.36,1.36,3.75,4.31,3.08,6.54Z"/><path class="cls-10" d="M31.7,296.49l64.56,37.28a5.1,5.1,0,0,0-.37-2.95L32.06,294a3.25,3.25,0,0,0-.36,2.52"/><polygon class="cls-10" points="32.99 301.02 94.96 336.8 95.97 334.64 31.99 297.7 32.99 301.02"/><polygon class="cls-10" points="34.5 306.01 93.45 340.05 94.45 337.89 33.51 302.7 34.5 306.01"/><path class="cls-10" d="M34.89,307.31l.53,1.73a11.81,11.81,0,0,0,.51,1.6L92,343a3.36,3.36,0,0,0,.51-1l.52-1.13Z"/><path class="cls-20" d="M89,342.81,42.91,316.2a13.79,13.79,0,0,1-5.51-7.95l-3.66-12.1a4.32,4.32,0,0,1,.06-2.62c-1.7-.43-2.6.89-2,3.41L35.42,309a13.83,13.83,0,0,0,5.5,7.95L87,343.6a3.86,3.86,0,0,0,4.57-.1,4.75,4.75,0,0,1-2.59-.69"/><path class="cls-23" d="M113.64,349.76c0,3.43-2.41,4.82-5.38,3.1a11.87,11.87,0,0,1-5.38-9.31c0-3.43,2.41-4.82,5.38-3.11a11.91,11.91,0,0,1,5.38,9.32"/><path class="cls-23" d="M25.72,299.22c0,3.43-2.41,4.82-5.38,3.1A11.87,11.87,0,0,1,15,293c0-3.43,2.41-4.82,5.38-3.11a11.89,11.89,0,0,1,5.38,9.32"/><path class="cls-23" d="M123.69,356.06c0,2.71-1.9,3.81-4.25,2.45a9.38,9.38,0,0,1-4.25-7.36c0-2.72,1.9-3.82,4.25-2.46a9.39,9.39,0,0,1,4.25,7.37"/><path class="cls-34" d="M116.27,380.11c0,2.25-1.59,3.16-3.53,2a7.79,7.79,0,0,1-3.53-6.11c0-2.24,1.58-3.15,3.53-2a7.8,7.8,0,0,1,3.53,6.1"/><path class="cls-23" d="M112.74,374l0,0c-.81.2-1.34,1-1.34,2.23a7.11,7.11,0,0,0,3.22,5.58,3.11,3.11,0,0,0,1,.36,2.68,2.68,0,0,0,.75-2.05,7.8,7.8,0,0,0-3.53-6.1"/><path class="cls-34" d="M12.72,322.25c0,2.25-1.58,3.15-3.53,2a7.79,7.79,0,0,1-3.52-6.11c0-2.24,1.58-3.15,3.52-2a7.8,7.8,0,0,1,3.53,6.11"/><path class="cls-23" d="M9.19,316.14l0,0c-.81.21-1.34,1-1.34,2.23A7.14,7.14,0,0,0,11,323.93a3.44,3.44,0,0,0,1,.37,2.72,2.72,0,0,0,.75-2.05,7.8,7.8,0,0,0-3.53-6.11"/><path class="cls-23" d="M14.05,292.81c0,2.71-1.91,3.81-4.26,2.45a9.4,9.4,0,0,1-4.25-7.36c0-2.71,1.91-3.81,4.25-2.46a9.42,9.42,0,0,1,4.26,7.37"/><path class="cls-36" d="M129.45,347.36a8.49,8.49,0,0,1-3.16.71h-1v14.26h1a3.72,3.72,0,0,0,2.71-1.4l.15-.21a7.2,7.2,0,0,0,1.09-3.12l.55-9.23c.06-.95-.55-1.4-1.34-1"/><g class="cls-16"><g class="cls-37"><path d="M173.1,305.25a2.24,2.24,0,0,1-1,1.74l-3.1,1.79c-.56.32-1,.06-1-.58V307a2.25,2.25,0,0,1,1-1.75l3.1-1.79a.62.62,0,0,1,1,.58Z"/></g></g><path class="cls-36" d="M172.71,304.74a2.2,2.2,0,0,1-1,1.74l-3.1,1.8c-.55.32-1,.06-1-.58v-1.18a2.23,2.23,0,0,1,1-1.74l3.1-1.79c.56-.32,1-.06,1,.58Z"/><path class="cls-12" d="M151.45,306.39c-2.82,1-6.47-.77-6.47-.77l-7.59-4.45-9.3,23.68,3.43,2s15.47,4.57,19.93,3.19l2.83-1.63V304.77Z"/><g class="cls-18"><g class="cls-38"><path class="cls-12" d="M151.45,307.69l2.83-1.63v-1.29l-2.83,1.62c-2.82,1-6.47-.77-6.47-.77l-7.59-4.45v1.29l7.59,4.45s3.65,1.75,6.47.78"/></g></g><path class="cls-12" d="M25.26,233.11v2.33l8.07,4.73L24,263.86l-10.72-6.28,9.3-21.11s.68-3.36,2.65-3.36"/><g class="cls-16"><g class="cls-39"><polygon points="13.31 256.45 13.31 257.57 24.03 263.86 24.03 262.54 13.31 256.45"/></g></g><g class="cls-18"><g class="cls-40"><path class="cls-12" d="M25.26,235.44v-2.33a1.68,1.68,0,0,0-1,.34l.12,2.55,8.07,4.73-9.3,22.61.89.52,9.3-23.69Z"/></g></g><g class="cls-16"><g class="cls-41"><path d="M131.81,326.15l-3.45-2-.27.73,3.43,2s15.47,4.57,19.93,3.19l2.83-1.63v-.89l-2.83,1.62c-4.46,1.38-19.64-3-19.64-3"/></g></g><polygon class="cls-20" points="36 242.13 26.82 266.24 124.32 324.03 133.82 300.47 36 242.13"/><polygon class="cls-10" points="34.32 246.52 132.46 303.85 133.25 301.88 35.09 244.52 34.32 246.52"/><polygon class="cls-10" points="33.01 249.97 131.08 307.26 131.88 305.28 33.77 247.97 33.01 249.97"/><polygon class="cls-10" points="31.7 253.42 129.71 310.66 130.5 308.69 32.46 251.42 31.7 253.42"/><polygon class="cls-10" points="30.38 256.87 128.33 314.07 129.13 312.1 31.14 254.87 30.38 256.87"/><polygon class="cls-10" points="29.07 260.32 126.96 317.48 127.75 315.5 29.83 258.32 29.07 260.32"/><polygon class="cls-10" points="27.76 263.77 125.59 320.89 126.38 318.91 28.52 261.77 27.76 263.77"/><polygon class="cls-10" points="125.01 322.32 27.2 265.23 26.82 266.24 124.32 324.03 125.01 322.32"/><path class="cls-42" d="M49.07,166.55,43,199.17c-.76,4.12,1.24,5.41,4.46,2.87l26.44-20.88Z"/><path class="cls-42" d="M43.47,163.24,26.26,219.57l3.31-2.19a11.6,11.6,0,0,0,4-5.79l12.61-46.76Z"/><polygon class="cls-43" points="92.26 192 87.7 205.95 121.61 225.53 123.41 210.35 92.26 192"/><polygon class="cls-44" points="123.41 210.35 121.61 225.53 124.61 224.24 126.11 211.94 123.41 210.35"/><g class="cls-45"><g class="cls-46"><polygon class="cls-44" points="121.61 225.53 87.7 205.95 55.96 228.19 91.04 249.16 121.61 225.53"/></g></g><polygon class="cls-43" points="160.47 232.19 129.27 213.8 124.78 227.52 158.69 247.09 160.47 232.19"/><polygon class="cls-44" points="163.16 233.76 162.62 233.46 160.47 232.19 158.69 247.09 161.7 245.81 163.16 233.76"/><g class="cls-45"><g class="cls-47"><polygon class="cls-44" points="158.69 247.09 124.78 227.52 93.05 249.76 128.13 270.73 158.69 247.09"/></g></g><path class="cls-43" d="M190.73,264.94l6.37-5.07,5.13-43.1L183.91,227.1c-2.82,1.62-5.79,6.05-6.46,9.66v.1l-4.28,17.93Z"/><polygon class="cls-44" points="197.1 259.87 200.28 257.34 205.36 215.53 204.42 215.53 202.23 216.77 197.1 259.87"/><path class="cls-44" d="M162.22,248.49l-31.74,22.23,24.77,14.81a6.51,6.51,0,0,0,.48-1.25l9.21-34.22Z"/><g class="cls-45"><g class="cls-48"><path class="cls-44" d="M173.15,254.79l-6.45,27a4.37,4.37,0,0,0,0,2,4.28,4.28,0,0,0,1.59-.9l22.48-17.9Z"/></g></g><path class="cls-49" d="M149,290.26a4.93,4.93,0,0,0,3.31-1.09l.08-.07.11-.07a9.78,9.78,0,0,0,3.24-4.75l1.87-6.93L37.77,208.06,26,220.31,145,289.39a11,11,0,0,0,4,.87"/><path class="cls-43" d="M87.63,218.28C83.55,210.41,73.87,204,66,204s-11,6.38-6.87,14.25,13.77,14.25,21.64,14.25,11-6.38,6.86-14.25m-8.85,10.41C73,228.69,66,224,63,218.28s-.74-10.42,5-10.42,12.84,4.67,15.82,10.42.74,10.41-5,10.41"/><path class="cls-43" d="M44.23,211.78,48,208S59,206.61,74.7,216.2s17.11,17.64,17.11,17.64l-1.91,4.34s-17.16-2.89-31.54-10.46-14.13-15.94-14.13-15.94"/><g class="cls-50"><g class="cls-51"><path class="cls-23" d="M43.47,163.24,26,220.31,58,238.87a93.92,93.92,0,0,1,42.26-42.18Z"/></g></g><path class="cls-52" d="M176.48,271.46l-5.66-3.26c-1.35-.79-2.46-.14-2.46,1.42v19a5.46,5.46,0,0,0,2.46,4.28l5.65,3.26c1.36.79,2.47.14,2.47-1.42v-19a5.48,5.48,0,0,0-2.46-4.27"/><path class="cls-12" d="M176.48,271.46l-5.66-3.26c-1.35-.79-2.46-.14-2.46,1.42v19a5.46,5.46,0,0,0,2.46,4.28l5.65,3.26c1.36.79,2.47.14,2.47-1.42v-19a5.48,5.48,0,0,0-2.46-4.27"/><path class="cls-13" d="M176.48,271.46l-5.66-3.26c-1-.58-1.87-.38-2.26.41a2.27,2.27,0,0,1,.91.32l5.65,3.26a5.45,5.45,0,0,1,2.47,4.27v19a2.34,2.34,0,0,1-.21,1c.92.1,1.56-.55,1.56-1.74v-19a5.48,5.48,0,0,0-2.46-4.27"/><polygon class="cls-11" points="162.53 275.71 162.53 280.74 168.36 282.52 168.36 279.08 162.53 275.71"/><g class="cls-16"><g class="cls-53"><path d="M395.52,66.51l-.33-.2c1.05,1,.86,2.22-.56,3l-227,130.3a6.59,6.59,0,0,1-6,0l-1.61-.92a3.67,3.67,0,0,0,.56.4l1.94,1.12a6.59,6.59,0,0,0,6,0l227-130.31c1.64-.94,1.64-2.49,0-3.43"/></g></g><g class="cls-18"><g class="cls-54"><path class="cls-12" d="M164.17,200.55l-1.95-1.13c-1.64-.94-1.64-2.49,0-3.43l227-130.31a6.3,6.3,0,0,1,3.5-.68,6.68,6.68,0,0,0-5.06.38l-227,130.31c-1.64.94-1.64,2.49,0,3.44l2,1.12a5.73,5.73,0,0,0,2.46.68,4.27,4.27,0,0,1-.9-.38"/></g></g><g class="cls-16"><g class="cls-55"><path d="M306.4,11.91l-.34-.19c1.05.94.87,2.21-.56,3L78.55,145.06a6.65,6.65,0,0,1-6,0L71,144.13a3.09,3.09,0,0,0,.56.4l1.94,1.13a6.65,6.65,0,0,0,6,0l227-130.31c1.64-.95,1.64-2.49,0-3.44"/></g></g><g class="cls-18"><g class="cls-56"><path class="cls-12" d="M75,146l-1.94-1.12c-1.64-1-1.64-2.49,0-3.44l227-130.31a6.3,6.3,0,0,1,3.5-.68,6.72,6.72,0,0,0-5.06.39l-227,130.3c-1.64.95-1.64,2.49,0,3.44l1.94,1.13a6,6,0,0,0,2.46.68A5.2,5.2,0,0,1,75,146"/></g></g><g class="cls-16"><g class="cls-57"><path d="M327.91,26.12l-.34-.19c1.05.94.87,2.22-.56,3l-227,130.3a6.57,6.57,0,0,1-6,0l-1.61-.92a4.11,4.11,0,0,0,.55.4L95,159.87a6.59,6.59,0,0,0,6,0l227-130.31c1.64-.94,1.64-2.49,0-3.44"/></g></g><g class="cls-18"><g class="cls-58"><path class="cls-12" d="M96.56,160.17l-2-1.13c-1.64-.94-1.64-2.49,0-3.44l227-130.3a6.29,6.29,0,0,1,3.49-.68A6.65,6.65,0,0,0,320,25L93,155.31c-1.63.94-1.63,2.48,0,3.44L95,159.87a5.87,5.87,0,0,0,2.46.68,5.18,5.18,0,0,1-.89-.38"/></g></g><g class="cls-16"><g class="cls-59"><path d="M371,53.23l-.34-.19c1.05.94.88,2.21-.56,3L143.14,186.38a6.59,6.59,0,0,1-6,0l-1.61-.93a2.88,2.88,0,0,0,.55.4l1.95,1.13a6.59,6.59,0,0,0,6,0L371,56.67c1.64-.94,1.64-2.49,0-3.44"/></g></g><g class="cls-18"><g class="cls-60"><path class="cls-12" d="M139.63,187.28l-1.94-1.13c-1.64-.94-1.64-2.49,0-3.44l227-130.3a6.39,6.39,0,0,1,3.5-.69,6.73,6.73,0,0,0-5.06.39l-227,130.3c-1.63,1-1.63,2.5,0,3.44l1.95,1.13a5.87,5.87,0,0,0,2.46.68,6.08,6.08,0,0,1-.9-.38"/></g></g><g class="cls-16"><g class="cls-61"><path d="M349.86,39.2l-.33-.2c1.05,1,.86,2.22-.56,3L122,172.35a6.59,6.59,0,0,1-6,0l-1.61-.93a3.67,3.67,0,0,0,.56.4l1.94,1.12a6.59,6.59,0,0,0,6,0l227-130.3c1.64-1,1.64-2.5,0-3.44"/></g></g><g class="cls-18"><g class="cls-62"><path class="cls-12" d="M118.51,173.24l-2-1.12c-1.64-1-1.64-2.5,0-3.44l227-130.31a6.48,6.48,0,0,1,3.5-.68,6.77,6.77,0,0,0-5.06.38L115,168.38c-1.64,1-1.64,2.49,0,3.44l1.94,1.12a5.77,5.77,0,0,0,2.47.68,4.27,4.27,0,0,1-.9-.38"/></g></g><path class="cls-10" d="M221.79,302.61c12.21-1.08,24.47,6.65,24,19.78a77.11,77.11,0,0,1-.71,9l5.51-4.53a49.06,49.06,0,0,0,.45-7.63c0-14.71-8.77-20.32-18.92-21.65Z"/><path class="cls-10" d="M392.88,200.76c12.21-1.08,18.07,10.59,18.07,26.85a60.39,60.39,0,0,1-.71,9l5.35-3.09a69.56,69.56,0,0,0,.61-9.07c0-11.09-2.33-20.35-7.09-25.9a7.87,7.87,0,0,0-10-1.53Z"/><polygon class="cls-10" points="417.94 195.25 417.94 203.79 414.67 205.77 414.67 217.3 425.1 211.81 425.64 199.75 417.94 195.25"/><polygon class="cls-20" points="417.93 195.34 417.93 203.89 425.63 199.85 417.93 195.34"/><path class="cls-3" d="M417.91,199.71s.79,3.22-3.6,5l.36,1.07,3.36-2a11.48,11.48,0,0,0-.12-4.09"/><path class="cls-14" d="M3,299a4.88,4.88,0,0,0-.67.48h0A4.16,4.16,0,0,1,3,299"/><path class="cls-14" d="M2.15,299.64h0a4.45,4.45,0,0,0-.48.49h0a5.13,5.13,0,0,1,.46-.47"/><path class="cls-14" d="M1,301a6.71,6.71,0,0,0-.67,1.34A7.24,7.24,0,0,1,1,301H1"/><path class="cls-14" d="M1.55,300.28h0a6.85,6.85,0,0,0-.45.61h0c.14-.2.28-.4.44-.59"/><path class="cls-10" d="M0,304.16H0a5.38,5.38,0,0,1,.37-1.84A5.28,5.28,0,0,0,0,304.16"/><path class="cls-10" d="M1.11,300.87a6.46,6.46,0,0,1,.44-.59,6.46,6.46,0,0,0-.44.59"/><path class="cls-10" d="M1.69,300.11a4.09,4.09,0,0,1,.46-.47,5.13,5.13,0,0,0-.46.47"/><path class="cls-10" d="M3,299a4.16,4.16,0,0,0-.67.48A4.16,4.16,0,0,1,3,299"/><path class="cls-20" d="M2.16,299.63l.15-.14-.15.14"/><path class="cls-20" d="M1.56,300.27l.12-.15-.12.15"/><path class="cls-20" d="M1,301l.06-.11L1,301"/><path class="cls-20" d="M1.11,300.87h0L1,301H1l.08-.12"/><path class="cls-20" d="M1.69,300.11h0l-.12.16h0c.05-.06.09-.12.14-.17"/><path class="cls-20" d="M2.31,299.49h0l-.15.14h0l.16-.15"/><rect x="160.63" y="286.02" width="0.9" height="63.52"/><g class="cls-16"><g class="cls-63"><polygon points="3.96 293.88 3.96 294.93 4 294.94 4.01 293.9 3.96 293.88"/></g></g><path class="cls-35" d="M36.76,307.91c.05.2.12.4.18.6l55.49,32-.52,1.13.91-2L36.56,307.22Z"/><polygon class="cls-35" points="35.56 303.91 93.82 337.55 94.33 336.45 35.05 302.23 35.56 303.91"/><path class="cls-35" d="M31,295.66a5.3,5.3,0,0,1,0-.68,5.3,5.3,0,0,0,0,.68"/><path class="cls-35" d="M31.13,296.6c-.06-.29-.1-.55-.13-.81,0,.26.07.52.13.81"/><path class="cls-35" d="M42.27,315.85l46.11,26.61a4.58,4.58,0,0,0,2.59.69,2.84,2.84,0,0,1-.81.51,2.94,2.94,0,0,0,1.23-1L38.75,312.29a11.71,11.71,0,0,0,3.52,3.56"/><path class="cls-35" d="M92.48,327.26,34.22,293.62c-1.85-1.07-3.11-.47-3.24,1.28a2.75,2.75,0,0,1,.19-.81l0,0a1.57,1.57,0,0,1,.22-.38l0,0h0a1.59,1.59,0,0,1,1.73-.44,3.2,3.2,0,0,0-.22,1.32l62.31,36a5.16,5.16,0,0,1,.37,2.94l-62-35.77.39,1.26,61.28,35.38.23-.49c.67-2.23-.72-5.18-3.08-6.54"/><path class="cls-10" d="M31.17,294.09l0,0,0,0"/><path class="cls-10" d="M33.66,297.65l62,35.78a5.18,5.18,0,0,0-.37-2.95L33,294.51a6.47,6.47,0,0,0,.16,1.3Z"/><path class="cls-10" d="M31.43,293.63l0,0a.08.08,0,0,0,0,0Z"/><polygon class="cls-10" points="31.36 297.36 31.91 299.19 31.36 297.36 31.36 297.36"/><polygon class="cls-10" points="35.05 302.23 94.33 336.45 95.33 334.29 34.05 298.91 35.05 302.23"/><polygon class="cls-10" points="33.87 305.67 33.87 305.67 33.53 304.54 33.87 305.67"/><polygon class="cls-10" points="34.26 306.97 34.78 308.7 34.26 306.97 34.26 306.97"/><path class="cls-10" d="M35,309.57c-.09-.29-.18-.59-.25-.87.07.29.16.58.25.87"/><path class="cls-10" d="M36.94,308.51a14.22,14.22,0,0,0,1.81,3.78l52.64,30.39h0c.09-.13.17-.26.25-.4a3.51,3.51,0,0,0,.26-.59l.52-1.13Z"/><path class="cls-20" d="M31,295.79s0-.08,0-.12,0,.08,0,.12"/><path class="cls-20" d="M31,295s0-.05,0-.08,0,.05,0,.08"/><path class="cls-20" d="M36.76,307.91l-.2-.69-2.69-1.55.39,1.3,2.68,1.54c-.06-.2-.13-.4-.18-.6"/><path class="cls-20" d="M88.38,342.46,42.27,315.85a11.71,11.71,0,0,1-3.52-3.56l-3.45-2c-.1-.25-.19-.49-.27-.73a13.78,13.78,0,0,0,5.26,7.07L86.4,343.26a5.61,5.61,0,0,0,.79.37l.24.08.57.15.24.05a4,4,0,0,0,.69,0,3.16,3.16,0,0,0,.32,0,3.43,3.43,0,0,0,.34-.06,2.38,2.38,0,0,0,.38-.11l.19-.08a2.84,2.84,0,0,0,.81-.51,4.58,4.58,0,0,1-2.59-.69"/><path class="cls-20" d="M33.17,293.19a1.59,1.59,0,0,0-1.73.44l1.51.88a3,3,0,0,1,.22-1.32"/><path class="cls-20" d="M33.66,297.65l-2.6-1.5a4.09,4.09,0,0,1,.11-2.06,2.75,2.75,0,0,0-.19.81.22.22,0,0,1,0,.08,5.5,5.5,0,0,0,0,.69s0,.08,0,.12c0,.26.07.52.13.81l.23.76,2.69,1.55Z"/><polygon class="cls-20" points="35.56 303.91 35.05 302.23 32.36 300.68 31.91 299.19 33.53 304.54 32.87 302.36 35.56 303.91"/><path class="cls-20" d="M31.19,294.05a2,2,0,0,1,.21-.38,2,2,0,0,0-.21.38"/><path class="cls-20" d="M31.06,296.15l2.6,1.5-.55-1.84a6.47,6.47,0,0,1-.16-1.3l-1.51-.88s0,0,0,0a2,2,0,0,0-.21.38l0,0a4.09,4.09,0,0,0-.11,2.06"/><polygon class="cls-20" points="35.05 302.23 34.05 298.91 31.36 297.36 31.91 299.19 32.36 300.68 35.05 302.23"/><polygon class="cls-20" points="35.56 303.91 32.87 302.36 33.53 304.54 33.87 305.67 36.56 307.23 35.56 303.91"/><path class="cls-20" d="M38.75,312.29a14.22,14.22,0,0,1-1.81-3.78L34.26,307l.52,1.73c.07.28.16.58.25.87s.17.48.27.73Z"/><path class="cls-34" d="M11.85,323.18a2.31,2.31,0,0,1-.18.35,1.92,1.92,0,0,0,.18-.35"/><path class="cls-34" d="M12,322.61c0,.11-.06.21-.09.32,0-.11.07-.21.09-.32"/><path class="cls-34" d="M11.62,323.62a3,3,0,0,1-.28.33,3,3,0,0,0,.28-.33"/><path class="cls-23" d="M11.62,323.62l.06-.09-.06.09"/><path class="cls-23" d="M11.93,322.93a2.41,2.41,0,0,1-.08.25,1.21,1.21,0,0,0,.08-.25"/><polyline class="cls-23" points="11.34 323.95 11.34 323.94 11.34 323.95 11.34 323.95"/><path class="cls-23" d="M12.08,321.91a3.88,3.88,0,0,1-.06.7,3.88,3.88,0,0,0,.06-.7"/><path class="cls-12" d="M144.35,306.57s3.65,1.74,6.47.78l2.82-1.63v-1.29l-2.82,1.62c-2.82,1-6.47-.78-6.47-.78l-7.59-4.44v1.29Z"/><path class="cls-12" d="M23.62,233.1a1.68,1.68,0,0,1,.42-.22,1.68,1.68,0,0,0-.42.22"/><path class="cls-12" d="M24.14,232.85a1.52,1.52,0,0,1,.49-.09,1.52,1.52,0,0,0-.49.09"/><polygon points="12.68 256.11 12.68 257.23 13.08 256.33 12.68 256.11"/><polyline class="cls-14" points="23.61 233.1 23.61 233.11 23.62 233.1 23.61 233.1"/><g class="cls-18"><g class="cls-64"><polyline class="cls-12" points="23.61 233.1 23.61 233.11 23.62 233.1 23.61 233.1"/></g></g><polygon class="cls-14" points="22.5 262.99 23.4 263.51 22.51 262.99 22.5 262.99"/><g class="cls-18"><g class="cls-65"><polygon class="cls-12" points="22.5 262.99 23.4 263.51 22.51 262.99 22.5 262.99"/></g></g><path class="cls-14" d="M24,232.88l.1,0-.1,0"/><g class="cls-18"><g class="cls-66"><path class="cls-12" d="M24,232.88l.1,0-.1,0"/></g></g><path class="cls-12" d="M24.63,235.1v-2.34a1.52,1.52,0,0,0-.49.09l-.1,0a1.68,1.68,0,0,0-.42.22h0l.12,2.55,8.07,4.73-8.86,21.54.46.26v1.32l9.3-23.69Z"/><polygon points="22.94 261.93 22.51 262.99 23.4 263.51 23.4 262.19 22.94 261.93"/><g class="cls-18"><g class="cls-67"><polygon class="cls-12" points="22.94 261.93 22.51 262.99 23.4 263.51 23.4 262.19 22.94 261.93"/></g></g><polygon points="127.72 323.77 127.46 324.51 127.74 323.79 127.72 323.77"/><polygon class="cls-10" points="131.82 303.51 132.62 301.53 132.62 301.53 131.82 303.51"/><path class="cls-10" d="M34.45,244.18l-.58,1.52Z"/><polygon class="cls-10" points="32.38 249.63 32.38 249.63 32.77 248.58 32.38 249.63"/><polygon class="cls-10" points="131.25 304.94 131.24 304.94 131.03 305.48 131.25 304.94"/><path class="cls-10" d="M31.82,251.08l-.76,2Z"/><path class="cls-10" d="M30.51,254.53l-.76,2Z"/><polygon class="cls-10" points="126.33 317.14 126.84 315.86 126.33 317.14 126.33 317.14"/><path class="cls-10" d="M29.2,258l-.76,2Z"/><path class="cls-10" d="M27.88,261.43l-.76,2Z"/><polygon class="cls-10" points="124.96 320.54 125.66 318.8 124.95 320.54 124.96 320.54"/><path class="cls-10" d="M26.57,264.88l-.39,1Z"/><polygon class="cls-10" points="124.38 321.97 124.38 321.97 123.68 323.69 124.38 321.97"/><path class="cls-44" d="M155.1,283.94a4.12,4.12,0,0,1-.21.62,4.12,4.12,0,0,0,.21-.62"/><path class="cls-68" d="M4.94,264.36l19.91-42.6,115.32,67.17s4.33,3.66,8,2.66c2.42-.66-17.6,43.1-17.6,43.1Z"/><path class="cls-12" d="M131.18,325.81s15.18,4.42,19.64,3l2.82-1.63v-21.5l-2.82,1.63c-2.82,1-6.47-.78-6.47-.78l-7.59-4.45v-1.29l-9,23Z"/><g class="cls-18"><g class="cls-69"><path class="cls-12" d="M144.35,306.57s3.65,1.74,6.47.78l2.82-1.63v-1.29l-2.82,1.62c-2.82,1-6.47-.78-6.47-.78l-7.59-4.44v1.29Z"/></g></g><path class="cls-12" d="M31.8,240.39l-8.07-4.73-.12-2.55a5.74,5.74,0,0,0-1.63,3l-8.9,20.2,9.86,5.6Z"/><polygon points="13.08 256.33 12.68 257.23 22.51 262.99 22.94 261.93 13.08 256.33"/><g class="cls-18"><g class="cls-70"><path class="cls-12" d="M24.63,235.1v-2.34a1.52,1.52,0,0,0-.49.09l-.1,0a1.68,1.68,0,0,0-.42.22h0l.12,2.55,8.07,4.73-8.86,21.54.46.26v1.32l9.3-23.69Z"/></g></g><path d="M131.18,325.81l-3.44-2-.28.72,3.42,2.05s15.48,4.57,19.94,3.18l2.82-1.62v-.9l-2.82,1.63c-4.46,1.38-19.64-3-19.64-3"/><polygon class="cls-20" points="126.84 315.86 131.03 305.48 130.44 306.91 32.38 249.63 31.82 251.08 129.87 308.35 129.07 310.32 31.06 253.08 30.51 254.53 128.5 311.75 127.7 313.73 29.75 256.53 29.2 257.98 127.12 315.16 126.84 315.86"/><polygon class="cls-20" points="125.66 318.8 126.33 317.13 28.44 259.98 27.88 261.43 125.75 318.57 125.66 318.8"/><polygon class="cls-20" points="133.18 300.13 35.36 241.78 34.45 244.18 132.62 301.53 133.18 300.13"/><polygon class="cls-20" points="131.24 304.94 131.82 303.51 33.69 246.18 33.87 245.7 32.77 248.58 33.14 247.63 131.24 304.94"/><polygon class="cls-20" points="124.95 320.54 27.12 263.43 26.57 264.88 124.38 321.97 124.95 320.54"/><polygon class="cls-10" points="131.82 303.51 132.62 301.53 34.45 244.18 33.87 245.7 33.69 246.18 131.82 303.51"/><polygon class="cls-10" points="131.03 305.48 131.24 304.94 33.14 247.63 32.77 248.58 32.38 249.63 130.44 306.91 131.03 305.48"/><polygon class="cls-10" points="129.87 308.35 31.82 251.08 31.06 253.08 129.07 310.32 129.87 308.35"/><polygon class="cls-10" points="128.5 311.75 30.51 254.53 29.75 256.53 127.7 313.73 128.5 311.75"/><polygon class="cls-10" points="126.84 315.86 127.12 315.16 29.2 257.98 28.43 259.98 126.33 317.13 126.84 315.86"/><polygon class="cls-10" points="125.66 318.8 125.75 318.57 27.88 261.43 27.12 263.43 124.95 320.54 125.66 318.8"/><polygon class="cls-10" points="124.38 321.97 26.57 264.88 26.18 265.89 123.68 323.69 124.38 321.97"/></g></g></g></svg>