<svg xmlns="http://www.w3.org/2000/svg" viewBox="0 0 116.58 116.66"><defs><style>.cls-1{fill:#333;}</style></defs><g id="Layer_2" data-name="Layer 2"><g id="Layer_1-2" data-name="Layer 1"><path class="cls-1" d="M54.22,0h8.2c1.35.18,2.7.33,4,.53A55.14,55.14,0,0,1,92.59,11.17c19.16,14.75,27,34.24,23,58.06-2.43,14.44-9.95,26.19-21.53,35.16-12.92,10-27.64,13.82-43.81,11.7a55.83,55.83,0,0,1-28.34-12.24,57.45,57.45,0,0,1-21-35.26c-.37-2-.61-4.11-.91-6.17v-8.2c.17-1.31.32-2.62.51-3.93a57.42,57.42,0,0,1,13.6-30A57.19,57.19,0,0,1,48.17.9C50.18.54,52.2.3,54.22,0ZM109.8,58.44a51.49,51.49,0,1,0-51.37,51.38A51.59,51.59,0,0,0,109.8,58.44Z"/><path class="cls-1" d="M33.27,64.4a22.26,22.26,0,0,1-2.92-.61,5.82,5.82,0,0,1-2.55-9.24c.6-.73,1.3-1.38,2-2q12-12,23.93-23.9c3-3,6.49-2.94,9.49.06Q75.75,41.23,88.3,53.79c3.32,3.33,2.21,8.71-2.06,10.07a22.85,22.85,0,0,1-2.77.51v1.31c0,5.81-.14,11.62,0,17.43a7,7,0,0,1-7.19,7.12c-3.11-.13-6.22,0-9.34,0-1.81,0-2.42-.63-2.43-2.48V74c0-2.61-1.14-3.75-3.73-3.77-1.56,0-3.12,0-4.67,0-2.69,0-3.8,1.09-3.82,3.8,0,4.33,0,8.66,0,13a14.54,14.54,0,0,1-.05,1.48,1.7,1.7,0,0,1-1.85,1.75c-3.57,0-7.14.11-10.7,0s-6.33-3.16-6.35-7c0-5.88,0-11.77,0-17.65Z"/></g></g></svg>