{
  "accessors": [
    {
      "bufferView": 2,
      "componentType": 5126,
      "count": 48536,
      "max": [
        1.3301749229431152,
        1.5254216194152832,
        2.241818904876709
      ],
      "min": [
        0.0,
        0.0,
        0.0
      ],
      "type": "VEC3"
    },
    {
      "bufferView": 2,
      "byteOffset": 582432,
      "componentType": 5126,
      "count": 48536,
      "max": [
        0.9999765753746033,
        0.9999209046363831,
        0.9999587535858154
      ],
      "min": [
        -0.9999837875366211,
        -0.9999229907989502,
        -0.999908983707428
      ],
      "type": "VEC3"
    },
    {
      "bufferView": 1,
      "componentType": 5126,
      "count": 48536,
      "max": [
        0.9929479956626892,
        0.998947024345398
      ],
      "min": [
        0.004416000097990036,
        0.0022950000129640102
      ],
      "type": "VEC2"
    },
    {
      "bufferView": 0,
      "componentType": 5125,
      "count": 266364,
      "type": "SCALAR"
    }
  ],
  "asset": {
    "extras": {
      "author": "The Cuming Museum (https://sketchfab.com/cumingmuseum)",
      "license": "CC-BY-4.0 (http://creativecommons.org/licenses/by/4.0/)",
      "source": "https://sketchfab.com/3d-models/ojibwa-tribe-childs-moccasin-607fb16069344554b250ab38ed19906f",
      "title": "Ojibwa tribe child's moccasin"
    },
    "generator": "Sketchfab-12.67.0",
    "version": "2.0"
  },
  "bufferViews": [
    {
      "buffer": 0,
      "byteLength": 1065456,
      "name": "floatBufferViews",
      "target": 34963
    },
    {
      "buffer": 0,
      "byteLength": 388288,
      "byteOffset": 1065456,
      "byteStride": 8,
      "name": "floatBufferViews",
      "target": 34962
    },
    {
      "buffer": 0,
      "byteLength": 1164864,
      "byteOffset": 1453744,
      "byteStride": 12,
      "name": "floatBufferViews",
      "target": 34962
    }
  ],
  "buffers": [
    {
      "byteLength": 2618608,
      "uri": "scene.bin"
    }
  ],
  "images": [
    {
      "uri": "textures/material_0_baseColor.jpeg"
    },
    {
      "uri": "textures/material_0_metallicRoughness.png"
    }
  ],
  "materials": [
    {
      "doubleSided": true,
      "name": "material_0",
      "occlusionTexture": {
        "index": 1,
        "strength": 0.6
      },
      "pbrMetallicRoughness": {
        "baseColorTexture": {
          "index": 0
        },
        "metallicFactor": 0.42,
        "metallicRoughnessTexture": {
          "index": 1
        }
      }
    }
  ],
  "meshes": [
    {
      "name": "Object_0",
      "primitives": [
        {
          "attributes": {
            "NORMAL": 1,
            "POSITION": 0,
            "TEXCOORD_0": 2
          },
          "indices": 3,
          "material": 0,
          "mode": 4
        }
      ]
    }
  ],
  "nodes": [
    {
      "children": [
        1
      ],
      "matrix": [
        0.9660370945930481,
        -0.2459116578102112,
        0.07937116920948023,
        0.0,
        -0.2052161693572998,
        -0.9167693257331847,
        -0.3426664471626284,
        0.0,
        0.15703073143959045,
        0.3147402405738833,
        -0.9360982179641723,
        0.0,
        -1.036463737487793,
        -4.4263672828674325,
        3.3835952281951895,
        1.0
      ],
      "name": "Sketchfab_model"
    },
    {
      "children": [
        2
      ],
      "matrix": [
        1.0,
        0.0,
        0.0,
        0.0,
        0.0,
        1.0,
        0.0,
        0.0,
        0.0,
        0.0,
        1.0,
        0.0,
        -0.7896909713745117,
        -5.673720836639404,
        -0.9654409885406494,
        1.0
      ],
      "name": "shoe.obj.cleaner.gles"
    },
    {
      "mesh": 0,
      "name": "Object_2"
    }
  ],
  "samplers": [
    {
      "magFilter": 9729,
      "minFilter": 9987,
      "wrapS": 10497,
      "wrapT": 10497
    }
  ],
  "scene": 0,
  "scenes": [
    {
      "name": "Sketchfab_Scene",
      "nodes": [
        0
      ]
    }
  ],
  "textures": [
    {
      "sampler": 0,
      "source": 0
    },
    {
      "sampler": 0,
      "source": 1
    }
  ]
}
