<svg xmlns="http://www.w3.org/2000/svg" viewBox="0 0 30.64 46.64"><defs><style>.cls-1{fill:#477738;}.cls-2{fill:#404b48;}.cls-3{fill:#639d42;}.cls-4,.cls-5{fill:#010101;}.cls-4{opacity:0.06;}.cls-5{opacity:0.2;}.cls-6{fill:#84b167;}.cls-7{fill:#4e7737;}.cls-8{fill:#fff;}.cls-9{fill:none;stroke:#fff;stroke-miterlimit:10;stroke-width:0.5px;}</style></defs><title>housekeeping-compost</title><g id="Layer_2" data-name="Layer 2"><g id="Layer_1-2" data-name="Layer 1"><polygon class="cls-1" points="0.37 6.21 2.18 10 1.86 5.86 0.37 6.21"/><polygon class="cls-1" points="28.46 10 30.27 6.21 28.78 5.86 28.46 10"/><path class="cls-2" d="M1.84,36.68c-.58,0-1,1.37-1,2v6.06c0,.65.47,1.89,1.05,1.89s1-1.24,1-1.89V38.69C2.88,38.05,2.41,36.68,1.84,36.68Z"/><path class="cls-2" d="M28.81,36.68c-.58,0-1,1.37-1,2v6.06c0,.65.46,1.89,1,1.89s1-1.24,1-1.89V38.69C29.85,38.05,29.38,36.68,28.81,36.68Z"/><rect class="cls-2" x="2.12" y="41.18" width="26.17" height="0.96"/><path class="cls-3" d="M3.75,45.58a1.08,1.08,0,0,0,1.07,1h21a1.08,1.08,0,0,0,1.07-1l2-40.92H1.75Z"/><path class="cls-4" d="M6.3,23.85a83.72,83.72,0,0,1-4.07-11L3.75,45.58a1.08,1.08,0,0,0,1.07,1h21a1,1,0,0,0,.84-.42,51.48,51.48,0,0,1-6.6-5C14.15,36,9.5,31,6.3,23.85Z"/><path class="cls-5" d="M1.88,7.56H28.76l.13-2.9H1.75Z"/><path class="cls-1" d="M5.57,9.15A.45.45,0,0,0,6,9.61a.46.46,0,0,0,.46-.46V6.43H5.57Z"/><path class="cls-1" d="M24.15,9.15a.46.46,0,0,0,.46.46.45.45,0,0,0,.46-.46V6.43h-.92Z"/><rect class="cls-3" x="5.12" y="0.16" width="20.61" height="1.61" rx="0.34"/><path class="cls-6" d="M6.11,0a.29.29,0,0,0-.29.29v1.2a.29.29,0,0,0,.29.28.28.28,0,0,0,.28-.28V.29A.28.28,0,0,0,6.11,0Z"/><path class="cls-6" d="M24.73,0a.29.29,0,0,0-.28.29v1.2a.29.29,0,0,0,.57,0V.29A.29.29,0,0,0,24.73,0Z"/><path class="cls-6" d="M15.42,0a.29.29,0,0,0-.29.29v1.2a.29.29,0,0,0,.58,0V.29A.29.29,0,0,0,15.42,0Z"/><path class="cls-6" d="M2.88.88C2.13,1.47,0,3.47,0,3.47v2H15.9V.74H3.27A.63.63,0,0,0,2.88.88Z"/><path class="cls-6" d="M27.37.75H14.74s0,0,0,0V5.43H30.64v-2s-2.13-2-2.88-2.59A.61.61,0,0,0,27.37.75Z"/><path class="cls-7" d="M27.25,1.48l-11.9.05L3.45,1.48a.46.46,0,0,0-.29.11L1,3.66V5H29.73V3.66L27.55,1.59A.46.46,0,0,0,27.25,1.48Z"/><rect class="cls-6" y="3.51" width="30.64" height="2.99" rx="0.46"/><path class="cls-8" d="M13,23.59a.22.22,0,0,0-.21.17,3.51,3.51,0,0,0,.4,2.69,3.42,3.42,0,0,0,2.5,1h0a.23.23,0,0,0,.21-.16,3.48,3.48,0,0,0-.4-2.7A3.5,3.5,0,0,0,13,23.59ZM15.5,27a2.87,2.87,0,0,1-2-.82A2.79,2.79,0,0,1,13.14,24a2.89,2.89,0,0,1,2,.81A2.91,2.91,0,0,1,15.5,27Z"/><path class="cls-8" d="M18.64,23.59a3.48,3.48,0,0,0-2.54,1,3.48,3.48,0,0,0-.4,2.7.22.22,0,0,0,.21.16h0a3.41,3.41,0,0,0,2.5-1,3.46,3.46,0,0,0,.4-2.69A.21.21,0,0,0,18.64,23.59Zm-.54,2.58a2.87,2.87,0,0,1-2,.82,2.86,2.86,0,0,1,.35-2.14,2.87,2.87,0,0,1,2-.81A2.83,2.83,0,0,1,18.1,26.17Z"/><path class="cls-8" d="M15.79,25.74a.22.22,0,0,0-.22.22v3.93a.22.22,0,0,0,.44,0V26A.22.22,0,0,0,15.79,25.74Z"/><path class="cls-8" d="M17.19,25.48l-1.4,1.39L14.4,25.48a.22.22,0,1,0-.31.31l1.55,1.55a.22.22,0,0,0,.15.06.23.23,0,0,0,.16-.06l1.55-1.55a.22.22,0,0,0-.31-.31Z"/><circle class="cls-9" cx="15.73" cy="26.25" r="5.67"/></g></g></svg>