<svg xmlns="http://www.w3.org/2000/svg" viewBox="0 0 30.64 47.62"><defs><style>.cls-1{fill:#35302e;}.cls-2{fill:#404b48;}.cls-3{fill:#48413e;}.cls-4,.cls-5{fill:#010101;}.cls-4{opacity:0.11;}.cls-5{opacity:0.2;}.cls-6{fill:#6c6765;}.cls-7{fill:#35312f;}.cls-8{fill:#fff;}</style></defs><title>housekeeping-garbage</title><g id="Layer_2" data-name="Layer 2"><g id="Layer_1-2" data-name="Layer 1"><polygon class="cls-1" points="0.37 6.26 2.18 10.06 1.86 5.92 0.37 6.26"/><polygon class="cls-1" points="28.46 10.06 30.27 6.26 28.78 5.92 28.46 10.06"/><path class="cls-2" d="M1.84,37.66c-.58,0-1,1.37-1,2v6.06c0,.65.47,1.89,1.05,1.89s1-1.24,1-1.89V39.67C2.88,39,2.41,37.66,1.84,37.66Z"/><path class="cls-2" d="M28.81,37.66c-.58,0-1,1.37-1,2v6.06c0,.65.46,1.89,1,1.89s1-1.24,1-1.89V39.67C29.85,39,29.38,37.66,28.81,37.66Z"/><rect class="cls-2" x="2.12" y="42.16" width="26.17" height="0.96"/><path class="cls-3" d="M3.75,46.56a1.08,1.08,0,0,0,1.07,1h21a1.08,1.08,0,0,0,1.07-1l2-41.84H1.75Z"/><path class="cls-4" d="M6.3,23.91a83.72,83.72,0,0,1-4.07-11L3.75,46.56a1.08,1.08,0,0,0,1.07,1h21a1,1,0,0,0,.84-.42,51.48,51.48,0,0,1-6.6-5A52.87,52.87,0,0,1,6.3,23.91Z"/><path class="cls-5" d="M1.88,7.62H28.76l.13-2.9H1.75Z"/><path class="cls-1" d="M5.57,9.21A.45.45,0,0,0,6,9.67a.46.46,0,0,0,.46-.46V6.49H5.57Z"/><path class="cls-1" d="M24.15,9.21a.46.46,0,0,0,.46.46.45.45,0,0,0,.46-.46V6.49h-.92Z"/><rect class="cls-3" x="5.12" y="0.16" width="20.61" height="1.61" rx="0.34"/><path class="cls-6" d="M6.11,0a.29.29,0,0,0-.29.29v1.2a.29.29,0,0,0,.29.28.28.28,0,0,0,.28-.28V.29A.28.28,0,0,0,6.11,0Z"/><path class="cls-6" d="M24.73,0a.29.29,0,0,0-.28.29v1.2a.29.29,0,0,0,.57,0V.29A.29.29,0,0,0,24.73,0Z"/><path class="cls-6" d="M15.42,0a.29.29,0,0,0-.29.29v1.2a.29.29,0,0,0,.58,0V.29A.29.29,0,0,0,15.42,0Z"/><path class="cls-6" d="M2.88.88C2.13,1.47,0,3.47,0,3.47v2H15.9V.74H3.27A.63.63,0,0,0,2.88.88Z"/><path class="cls-6" d="M27.37.75H14.74s0,0,0,0V5.43H30.64v-2s-2.13-2-2.88-2.59A.61.61,0,0,0,27.37.75Z"/><path class="cls-7" d="M27.25,1.48l-11.9.05L3.45,1.48a.44.44,0,0,0-.29.11L1,3.66V5H29.73V3.66L27.55,1.59A.46.46,0,0,0,27.25,1.48Z"/><rect class="cls-6" y="3.51" width="30.64" height="2.99" rx="0.46"/><path class="cls-8" d="M16.82,22.9a.85.85,0,0,0-.74-.43h0a.83.83,0,0,0-.73.43L14.73,24l.38.22.62-1.07a.4.4,0,0,1,.35-.21.39.39,0,0,1,.35.21l1.29,2.24-.38.22,1.14.67V24.92l-.38.22Z"/><path class="cls-8" d="M18.91,26.56l-.38.22L19.2,28a.43.43,0,0,1,0,.41.38.38,0,0,1-.35.2H16.27v-.44l-1.13.66,1.13.67V29h2.58a.83.83,0,0,0,.73-.43.86.86,0,0,0,0-.85Z"/><path class="cls-8" d="M13,28.36A.43.43,0,0,1,13,28l1.29-2.25.38.22V24.6l-1.14.66.38.22-1.29,2.25a.86.86,0,0,0,0,.85.85.85,0,0,0,.74.43h1.42v-.45H13.32A.41.41,0,0,1,13,28.36Z"/><path class="cls-8" d="M16.08,20.34a5.82,5.82,0,1,0,5.77,5.81A5.8,5.8,0,0,0,16.08,20.34Zm0,11.11a5.3,5.3,0,1,1,5.26-5.3A5.27,5.27,0,0,1,16.08,31.45Z"/><path class="cls-8" d="M19.7,22.13l-7.6,7.58a.27.27,0,0,0,0,.37.26.26,0,0,0,.18.07.26.26,0,0,0,.19-.07l7.59-7.59a.25.25,0,0,0-.36-.36Z"/></g></g></svg>