<svg xmlns="http://www.w3.org/2000/svg" viewBox="0 0 30.12 46.73"><defs><style>.cls-1{fill:#878787;}.cls-2{fill:#404b48;}.cls-3{fill:#ccc;}.cls-4,.cls-5{fill:#010101;}.cls-4{opacity:0.04;}.cls-5{opacity:0.2;}.cls-6{fill:#d7d6d6;}.cls-7{fill:#989898;}.cls-8{isolation:isolate;}.cls-9{fill:#fff;}.cls-10{fill:none;stroke:#fff;stroke-miterlimit:10;stroke-width:0.5px;}</style></defs><title>housekeeping-laundry</title><g id="Layer_2" data-name="Layer 2"><g id="Layer_1-2" data-name="Layer 1"><polygon class="cls-1" points="0.37 6.07 2.14 9.8 1.83 5.73 0.37 6.07"/><polygon class="cls-1" points="27.98 9.8 29.76 6.07 28.29 5.73 27.98 9.8"/><path class="cls-2" d="M1.8,36.94c-.56,0-1,1.34-1,2v6c0,.64.46,1.86,1,1.86s1-1.22,1-1.86v-6C2.83,38.28,2.37,36.94,1.8,36.94Z"/><path class="cls-2" d="M28.32,36.94c-.57,0-1,1.34-1,2v6c0,.64.45,1.86,1,1.86s1-1.22,1-1.86v-6C29.34,38.28,28.88,36.94,28.32,36.94Z"/><rect class="cls-2" x="2.09" y="41.36" width="25.73" height="0.94"/><path class="cls-3" d="M3.69,45.69a1,1,0,0,0,1.05,1H25.38a1,1,0,0,0,1.05-1l2-41.13H1.72Z"/><path class="cls-4" d="M6.2,23.42a79.64,79.64,0,0,1-4-10.84L3.69,45.69a1,1,0,0,0,1.05,1H25.38a1,1,0,0,0,.83-.4,50.72,50.72,0,0,1-6.49-4.91A51.85,51.85,0,0,1,6.2,23.42Z"/><path class="cls-5" d="M1.85,7.4H28.27l.13-2.84H1.72Z"/><path class="cls-1" d="M5.47,9a.46.46,0,0,0,.46.45A.45.45,0,0,0,6.38,9V6.29H5.47Z"/><path class="cls-1" d="M23.74,9a.46.46,0,0,0,.46.45A.45.45,0,0,0,24.65,9V6.29h-.91Z"/><rect class="cls-3" x="5.03" y="0.15" width="20.26" height="1.59" rx="0.33"/><path class="cls-6" d="M6,0a.29.29,0,0,0-.28.28V1.46a.29.29,0,0,0,.57,0V.28A.29.29,0,0,0,6,0Z"/><path class="cls-6" d="M24.32,0A.29.29,0,0,0,24,.28V1.46a.29.29,0,0,0,.57,0V.28A.29.29,0,0,0,24.32,0Z"/><path class="cls-6" d="M15.16,0a.28.28,0,0,0-.28.28V1.46a.28.28,0,1,0,.56,0V.28A.28.28,0,0,0,15.16,0Z"/><path class="cls-6" d="M2.84.87C2.09,1.45,0,3.41,0,3.41V5.34H15.63V.72H3.22A.59.59,0,0,0,2.84.87Z"/><path class="cls-6" d="M26.91.73H14.49s0,0,0,0V5.34H30.12V3.41S28,1.45,27.29.87A.62.62,0,0,0,26.91.73Z"/><path class="cls-7" d="M26.79,1.45l-11.7.06L3.4,1.45a.38.38,0,0,0-.29.12L1,3.6V4.89H29.22V3.6l-2.14-2A.4.4,0,0,0,26.79,1.45Z"/><rect class="cls-6" y="3.45" width="30.12" height="2.94" rx="0.45"/><g class="cls-8"><path class="cls-3" d="M14.78,24.39a.39.39,0,0,0-.37,0l-1.18.68a.62.62,0,0,0-.29.49.2.2,0,0,0,.09.17l.09.05a.12.12,0,0,1-.12,0l3,1.73a.17.17,0,0,0,.19,0l1.19-.68h0l-.56-.32.59-.34a.41.41,0,0,1,.38,0Z"/><path class="cls-9" d="M16.51,26.88l-.37-.21,0,0,0,0,.35.2.09,0Z"/><path class="cls-9" d="M17.13,26.46l-.37-.22,0,0,0,0,.36.2.08-.05Z"/><path class="cls-9" d="M17.64,25.36c.16-.09.29,0,.28.18a.62.62,0,0,1-.27.46l-1.49.86a.59.59,0,0,0-.26.46v.05c0,.17.12.24.26.15l1.19-.68h0l-1.14.66c-.15.09-.29,0-.29-.15a.64.64,0,0,1,.28-.49l1.18-.68c.29-.17.53,0,.53.3v0a1.26,1.26,0,0,1-.57,1l-1.16.67c-.47.27-.84.05-.84-.48v-.19a1.54,1.54,0,0,1,.69-1.2Z"/><path class="cls-9" d="M14.87,23.61a.2.2,0,0,0-.21,0l-1.6.93a1.52,1.52,0,0,0-.7,1.2V26a.59.59,0,0,0,.25.54l3,1.73a.58.58,0,0,1-.24-.54v-.19a1.54,1.54,0,0,1,.69-1.2l1.61-.93a.19.19,0,0,1,.2,0Z"/></g><polygon class="cls-3" points="16.68 25.91 13.7 24.19 13.61 24.24 16.59 25.96 16.68 25.91"/><polygon class="cls-3" points="14.36 23.81 14.27 23.86 17.25 25.58 17.34 25.53 14.36 23.81"/><polygon class="cls-3" points="16.59 25.96 16.59 26.61 16.68 26.56 16.68 25.91 16.59 25.96"/><polygon class="cls-3" points="17.26 25.58 17.26 26.22 17.35 26.17 17.35 25.53 17.26 25.58"/><polygon class="cls-3" points="16.23 27.47 16.32 27.42 16.32 26.77 16.23 26.82 16.23 27.47"/><polygon class="cls-3" points="16.91 27.08 17 27.02 17 26.38 16.91 26.43 16.91 27.08"/><circle class="cls-10" cx="15.12" cy="25.85" r="5.67"/></g></g></svg>