<svg xmlns="http://www.w3.org/2000/svg" viewBox="0 0 30.64 46.52"><defs><style>.cls-1{fill:#0671b3;}.cls-2{fill:#404b48;}.cls-3{fill:#0f88c9;}.cls-4,.cls-5{fill:#010101;}.cls-4{opacity:0.09;}.cls-5{opacity:0.2;}.cls-6{fill:#349fd6;}.cls-7{fill:#086699;}.cls-8{fill:none;stroke:#fff;stroke-miterlimit:10;stroke-width:0.5px;}.cls-9{fill:#fff;}</style></defs><title>housekeeping-recycling</title><g id="Layer_2" data-name="Layer 2"><g id="Layer_1-2" data-name="Layer 1"><polygon class="cls-1" points="0.37 6.09 2.18 9.89 1.86 5.74 0.37 6.09"/><polygon class="cls-1" points="28.46 9.89 30.27 6.09 28.78 5.74 28.46 9.89"/><path class="cls-2" d="M1.84,36.57c-.58,0-1,1.36-1,2v6.05c0,.65.47,1.89,1.05,1.89s1-1.24,1-1.89V38.58C2.88,37.93,2.41,36.57,1.84,36.57Z"/><path class="cls-2" d="M28.81,36.57c-.58,0-1,1.36-1,2v6.05c0,.65.46,1.89,1,1.89s1-1.24,1-1.89V38.58C29.85,37.93,29.38,36.57,28.81,36.57Z"/><rect class="cls-2" x="2.12" y="41.07" width="26.17" height="0.96"/><path class="cls-3" d="M3.75,45.47a1.07,1.07,0,0,0,1.07,1h21a1.07,1.07,0,0,0,1.07-1l2-40.92H1.75Z"/><path class="cls-4" d="M6.3,23.73a83.72,83.72,0,0,1-4.07-11L3.75,45.47a1.07,1.07,0,0,0,1.07,1h21a1.06,1.06,0,0,0,.84-.41,52.5,52.5,0,0,1-6.6-5C14.15,35.87,9.5,30.9,6.3,23.73Z"/><path class="cls-5" d="M1.88,7.44H28.76l.13-2.89H1.75Z"/><path class="cls-1" d="M5.57,9A.46.46,0,0,0,6,9.5.47.47,0,0,0,6.49,9V6.31H5.57Z"/><path class="cls-1" d="M24.15,9a.47.47,0,0,0,.46.46A.46.46,0,0,0,25.07,9V6.31h-.92Z"/><rect class="cls-3" x="5.12" y="0.16" width="20.61" height="1.61" rx="0.34"/><path class="cls-6" d="M6.11,0a.29.29,0,0,0-.29.29v1.2a.29.29,0,0,0,.29.28.28.28,0,0,0,.28-.28V.29A.28.28,0,0,0,6.11,0Z"/><path class="cls-6" d="M24.73,0a.29.29,0,0,0-.28.29v1.2a.29.29,0,0,0,.57,0V.29A.29.29,0,0,0,24.73,0Z"/><path class="cls-6" d="M15.42,0a.29.29,0,0,0-.29.29v1.2a.29.29,0,0,0,.58,0V.29A.29.29,0,0,0,15.42,0Z"/><path class="cls-6" d="M2.88.88C2.13,1.47,0,3.47,0,3.47v2H15.9V.74H3.27A.63.63,0,0,0,2.88.88Z"/><path class="cls-6" d="M27.37.75H14.74s0,0,0,0V5.43H30.64v-2s-2.13-2-2.88-2.59A.61.61,0,0,0,27.37.75Z"/><path class="cls-7" d="M27.25,1.48l-11.9.05L3.45,1.48a.46.46,0,0,0-.29.11L1,3.66V5H29.73V3.66L27.55,1.59A.46.46,0,0,0,27.25,1.48Z"/><rect class="cls-6" y="3.51" width="30.64" height="2.99" rx="0.46"/><circle class="cls-8" cx="15.65" cy="26.78" r="5.67"/><path class="cls-9" d="M16.33,23.66a.76.76,0,0,0-.68-.39h0a.75.75,0,0,0-.67.39l-.57,1,.35.2.57-1a.37.37,0,0,1,.32-.19.37.37,0,0,1,.33.19l1.19,2.06-.35.2,1.05.6V25.51l-.35.2Z"/><path class="cls-9" d="M18.27,27l-.35.2.61,1.07a.35.35,0,0,1,0,.37.36.36,0,0,1-.32.19H15.83v-.4l-1.05.6,1.05.61v-.4h2.38a.77.77,0,0,0,.67-.39.73.73,0,0,0,0-.78Z"/><path class="cls-9" d="M12.78,28.65a.35.35,0,0,1,0-.37L14,26.22l.35.2V25.21l-1.05.61.35.2-1.19,2.06a.78.78,0,0,0,0,.78.8.8,0,0,0,.68.39h1.31v-.41H13.1A.35.35,0,0,1,12.78,28.65Z"/></g></g></svg>