<svg xmlns="http://www.w3.org/2000/svg" viewBox="0 0 178.64 228.79"><defs><style>.cls-1{fill:#333333;fill-rule:evenodd;}</style></defs><title>paper-icon</title><g id="Layer_2" data-name="Layer 2"><g id="ROW_10" data-name="ROW 10"><path id="DOCUMENTS" class="cls-1" d="M167.92,207.35H32.16a10.72,10.72,0,0,1-10.72-10.72V10.85A10.72,10.72,0,0,1,32.15.13H89.32V60.87a21.46,21.46,0,0,0,21.44,21.48h67.88V196.63A10.72,10.72,0,0,1,167.92,207.35ZM110.76,71.61A10.73,10.73,0,0,1,100,60.87V0l78.6,71.61H110.76ZM39.91,218.07H157.2a10.72,10.72,0,0,1-10.72,10.72h-125A21.44,21.44,0,0,1,0,207.35V32.28A10.72,10.72,0,0,1,10.72,21.56V196.63a21.44,21.44,0,0,0,21.44,21.44Z"/></g></g></svg>