{
  "accessors": [
    {
      "bufferView": 2,
      "componentType": 5126,
      "count": 471,
      "max": [
        1.3324689865112305,
        15.785155296325684,
        3.4595835208892822
      ],
      "min": [
        -5.586704254150391,
        -15.999441146850586,
        -3.459589719772339
      ],
      "type": "VEC3"
    },
    {
      "bufferView": 2,
      "byteOffset": 5652,
      "componentType": 5126,
      "count": 471,
      "max": [
        1.0,
        1.0,
        1.0
      ],
      "min": [
        -1.0,
        -1.0,
        -1.0
      ],
      "type": "VEC3"
    },
    {
      "bufferView": 1,
      "componentType": 5126,
      "count": 471,
      "max": [
        0.6828226447105408,
        2.1138391494750977
      ],
      "min": [
        -0.7670465707778931,
        0.04475212097167969
      ],
      "type": "VEC2"
    },
    {
      "bufferView": 0,
      "componentType": 5125,
      "count": 1605,
      "type": "SCALAR"
    },
    {
      "bufferView": 2,
      "byteOffset": 11304,
      "componentType": 5126,
      "count": 484,
      "max": [
        -0.7995895147323608,
        15.785155296325684,
        1.3275229930877686
      ],
      "min": [
        -3.4546456336975098,
        11.946762084960938,
        -1.32753324508667
      ],
      "type": "VEC3"
    },
    {
      "bufferView": 2,
      "byteOffset": 17112,
      "componentType": 5126,
      "count": 484,
      "max": [
        0.9996718764305115,
        0.9989434480667114,
        0.9996718168258667
      ],
      "min": [
        -0.9997556209564209,
        -0.9948953986167908,
        -0.9996718168258667
      ],
      "type": "VEC3"
    },
    {
      "bufferView": 1,
      "byteOffset": 3768,
      "componentType": 5126,
      "count": 484,
      "max": [
        0.9812445044517517,
        0.9816776514053345
      ],
      "min": [
        0.36339423060417175,
        0.02335936762392521
      ],
      "type": "VEC2"
    },
    {
      "bufferView": 0,
      "byteOffset": 6420,
      "componentType": 5125,
      "count": 1389,
      "type": "SCALAR"
    },
    {
      "bufferView": 2,
      "byteOffset": 22920,
      "componentType": 5126,
      "count": 3,
      "max": [
        -1.619089961051941,
        15.462841987609863,
        -1.0753071308135986
      ],
      "min": [
        -2.12711238861084,
        15.446245193481445,
        -1.32753324508667
      ],
      "type": "VEC3"
    },
    {
      "bufferView": 2,
      "byteOffset": 22956,
      "componentType": 5126,
      "count": 3,
      "max": [
        0.03861800953745842,
        -0.9948952794075012,
        -0.09323087334632874
      ],
      "min": [
        3.677382380828931e-07,
        -0.994895339012146,
        -0.10091254860162735
      ],
      "type": "VEC3"
    },
    {
      "bufferView": 1,
      "byteOffset": 7640,
      "componentType": 5126,
      "count": 3,
      "max": [
        0.7364168763160706,
        0.20304393768310547
      ],
      "min": [
        0.7352554798126221,
        0.14314904808998108
      ],
      "type": "VEC2"
    },
    {
      "bufferView": 0,
      "byteOffset": 11976,
      "componentType": 5125,
      "count": 3,
      "type": "SCALAR"
    },
    {
      "bufferView": 2,
      "byteOffset": 22992,
      "componentType": 5126,
      "count": 3,
      "max": [
        -0.8031883239746094,
        3.4556233882904053,
        -3.0981202125549316
      ],
      "min": [
        -2.1271145343780518,
        2.97099232673645,
        -3.3533823490142822
      ],
      "type": "VEC3"
    },
    {
      "bufferView": 2,
      "byteOffset": 23028,
      "componentType": 5126,
      "count": 3,
      "max": [
        0.3806261420249939,
        0.3555816113948822,
        -0.8634992837905884
      ],
      "min": [
        8.423625104114763e-07,
        0.10357292741537094,
        -0.9346452355384827
      ],
      "type": "VEC3"
    },
    {
      "bufferView": 1,
      "byteOffset": 7664,
      "componentType": 5126,
      "count": 3,
      "max": [
        0.1644476056098938,
        0.8081419467926025
      ],
      "min": [
        0.12457260489463806,
        0.7984141707420349
      ],
      "type": "VEC2"
    },
    {
      "bufferView": 0,
      "byteOffset": 11988,
      "componentType": 5125,
      "count": 3,
      "type": "SCALAR"
    }
  ],
  "asset": {
    "extras": {
      "author": "emypustiu (https://sketchfab.com/emypustiu)",
      "license": "CC-BY-4.0 (http://creativecommons.org/licenses/by/4.0/)",
      "source": "https://sketchfab.com/3d-models/vodka-tuica-a3a17b679da64cbf9f30e68336bc7af5",
      "title": "Vodka (Tuica)"
    },
    "generator": "Sketchfab-12.68.0",
    "version": "2.0"
  },
  "bufferViews": [
    {
      "buffer": 0,
      "byteLength": 12000,
      "name": "floatBufferViews",
      "target": 34963
    },
    {
      "buffer": 0,
      "byteLength": 7688,
      "byteOffset": 12000,
      "byteStride": 8,
      "name": "floatBufferViews",
      "target": 34962
    },
    {
      "buffer": 0,
      "byteLength": 23064,
      "byteOffset": 19688,
      "byteStride": 12,
      "name": "floatBufferViews",
      "target": 34962
    }
  ],
  "buffers": [
    {
      "byteLength": 42752,
      "uri": "scene.bin"
    }
  ],
  "images": [
    {
      "uri": "textures/Material_36_baseColor.png"
    },
    {
      "uri": "textures/Material_36_metallicRoughness.png"
    },
    {
      "uri": "textures/01_-_Default_Rectangle001_metallicRoughness.png"
    }
  ],
  "materials": [
    {
      "doubleSided": true,
      "name": "Material_36",
      "pbrMetallicRoughness": {
        "baseColorTexture": {
          "index": 0
        },
        "metallicFactor": 0.0,
        "metallicRoughnessTexture": {
          "index": 1
        }
      }
    },
    {
      "doubleSided": true,
      "name": "Material_37",
      "pbrMetallicRoughness": {
        "baseColorTexture": {
          "index": 0
        },
        "metallicFactor": 0.09317835365853659,
        "roughnessFactor": 0.22999237804878048
      }
    },
    {
      "doubleSided": true,
      "name": "Material_79_Slot_3",
      "pbrMetallicRoughness": {
        "baseColorFactor": [
          0.0,
          0.0,
          0.0,
          1.0
        ],
        "metallicFactor": 0.0,
        "roughnessFactor": 0.9577051494623774
      }
    },
    {
      "doubleSided": true,
      "name": "01_-_Default_Rectangle001",
      "pbrMetallicRoughness": {
        "baseColorTexture": {
          "index": 0
        },
        "metallicFactor": 0.0,
        "metallicRoughnessTexture": {
          "index": 2
        }
      }
    }
  ],
  "meshes": [
    {
      "name": "Rectangle001_Material #36_0",
      "primitives": [
        {
          "attributes": {
            "NORMAL": 1,
            "POSITION": 0,
            "TEXCOORD_0": 2
          },
          "indices": 3,
          "material": 0,
          "mode": 4
        }
      ]
    },
    {
      "name": "Rectangle001_Material #37_0",
      "primitives": [
        {
          "attributes": {
            "NORMAL": 5,
            "POSITION": 4,
            "TEXCOORD_0": 6
          },
          "indices": 7,
          "material": 1,
          "mode": 4
        }
      ]
    },
    {
      "name": "Rectangle001_Material #79 Slot #3_0",
      "primitives": [
        {
          "attributes": {
            "NORMAL": 9,
            "POSITION": 8,
            "TEXCOORD_0": 10
          },
          "indices": 11,
          "material": 2,
          "mode": 4
        }
      ]
    },
    {
      "name": "Rectangle001_01 - Default [Rectangle001]_0",
      "primitives": [
        {
          "attributes": {
            "NORMAL": 13,
            "POSITION": 12,
            "TEXCOORD_0": 14
          },
          "indices": 15,
          "material": 3,
          "mode": 4
        }
      ]
    }
  ],
  "nodes": [
    {
      "children": [
        1
      ],
      "matrix": [
        1.0,
        0.0,
        0.0,
        0.0,
        0.0,
        2.220446049250313e-16,
        -1.0,
        0.0,
        0.0,
        1.0,
        2.220446049250313e-16,
        0.0,
        0.0,
        0.0,
        0.0,
        1.0
      ],
      "name": "Sketchfab_model"
    },
    {
      "children": [
        2
      ],
      "matrix": [
        1.0,
        0.0,
        0.0,
        0.0,
        0.0,
        0.0,
        1.0,
        0.0,
        0.0,
        -1.0,
        0.0,
        0.0,
        0.0,
        0.0,
        0.0,
        1.0
      ],
      "name": "Vodka.FBX"
    },
    {
      "children": [
        3
      ],
      "name": "Object_2"
    },
    {
      "children": [
        4
      ],
      "name": "RootNode"
    },
    {
      "children": [
        5
      ],
      "name": "Rectangle001",
      "rotation": [
        2.1855694143368964e-08,
        0.0,
        0.0,
        1.0
      ],
      "translation": [
        0.0,
        0.09275662899017334,
        4.0545202750763565e-09
      ]
    },
    {
      "children": [
        6,
        7,
        8,
        9
      ],
      "matrix": [
        1.0,
        0.0,
        -0.0,
        0.0,
        0.0,
        1.0,
        0.0,
        0.0,
        0.0,
        0.0,
        1.0,
        0.0,
        2.12711501121521,
        15.932754516601563,
        -1.543234589007625e-07,
        1.0
      ],
      "name": "Object_5"
    },
    {
      "mesh": 0,
      "name": "Rectangle001_Material #36_0"
    },
    {
      "mesh": 1,
      "name": "Rectangle001_Material #37_0"
    },
    {
      "mesh": 2,
      "name": "Rectangle001_Material #79 Slot #3_0"
    },
    {
      "mesh": 3,
      "name": "Rectangle001_01 - Default [Rectangle001]_0"
    }
  ],
  "samplers": [
    {
      "magFilter": 9729,
      "minFilter": 9987,
      "wrapS": 10497,
      "wrapT": 10497
    }
  ],
  "scene": 0,
  "scenes": [
    {
      "name": "Sketchfab_Scene",
      "nodes": [
        0
      ]
    }
  ],
  "textures": [
    {
      "sampler": 0,
      "source": 0
    },
    {
      "sampler": 0,
      "source": 1
    },
    {
      "sampler": 0,
      "source": 2
    }
  ]
}
